STARTFONT 2.1
COMMENT
COMMENT Converted from OpenType font "Q:\font stuff\winfont\Querround Regular.ttf" by "otf2bdf 3.0".
COMMENT
FONT -FreeType-Querround-Medium-R-Normal--96-960-72-72-P-692-ISO10646-1
SIZE 96 72 72
FONTBOUNDINGBOX 147 136 -22 -29
STARTPROPERTIES 19
FOUNDRY "FreeType"
FAMILY_NAME "Querround"
WEIGHT_NAME "Medium"
SLANT "R"
SETWIDTH_NAME "Normal"
ADD_STYLE_NAME ""
PIXEL_SIZE 112
POINT_SIZE 960
RESOLUTION_X 72
RESOLUTION_Y 72
SPACING "P"
AVERAGE_WIDTH 692
CHARSET_REGISTRY "ISO10646"
CHARSET_ENCODING "1"
FONT_ASCENT 117
FONT_DESCENT 35
COPYRIGHT "design: onezero/\2512003onezero/contact: onezero@gmx.ch"
_OTF_FONTFILE "Q:\font stuff\winfont\Querround Regular.ttf"
_OTF_PSNAME "Querround"
ENDPROPERTIES
CHARS 106
STARTCHAR 0020
ENCODING 32
SWIDTH 833 0
DWIDTH 80 0
BBX 0 0 0 0
BITMAP
ENDCHAR
STARTCHAR 0021
ENCODING 33
SWIDTH 187 0
DWIDTH 18 0
BBX 9 80 0 0
BITMAP
FF80
FF80
FF80
FF80
FF80
FF80
FF80
FF80
FF80
FF80
FF80
FF80
FF80
FF80
FF80
FF80
FF80
FF80
FF80
FF80
FF80
FF80
FF80
FF80
FF80
FF80
FF80
FF80
FF80
FF80
FF80
FF80
FF80
FF80
FF80
FF80
FF80
FF80
FF80
FF80
FF80
FF80
FF80
FF80
FF80
FF80
FF80
FF80
FF80
FF80
FF80
FF80
FF80
FF80
FF80
FF80
FF80
FF80
FF80
FF80
FF80
FF80
FF80
0000
0000
0000
0000
FF80
FF80
FF80
FF80
FF80
FF80
FF80
FF80
FF80
FF80
FF80
FF80
FF80
ENDCHAR
STARTCHAR 0022
ENCODING 34
SWIDTH 322 0
DWIDTH 31 0
BBX 22 32 0 48
BITMAP
FF87FC
FF87FC
FF87FC
FF87FC
FF87FC
FF87FC
FF87FC
FF87FC
FF87FC
FF87FC
FF87FC
FF87FC
FF87FC
FF87FC
FF87FC
FF87FC
FF87FC
FF87FC
FF87FC
FF87FC
FF87FC
FF87FC
FF87FC
FF87FC
FF87FC
FF87FC
FF87FC
FF87FC
FF87FC
FF87FC
FF87FC
FF87FC
ENDCHAR
STARTCHAR 0023
ENCODING 35
SWIDTH 1333 0
DWIDTH 128 0
BBX 0 0 0 0
BITMAP
ENDCHAR
STARTCHAR 0024
ENCODING 36
SWIDTH 1333 0
DWIDTH 128 0
BBX 0 0 0 0
BITMAP
ENDCHAR
STARTCHAR 0025
ENCODING 37
SWIDTH 1166 0
DWIDTH 112 0
BBX 0 0 0 0
BITMAP
ENDCHAR
STARTCHAR 0026
ENCODING 38
SWIDTH 1500 0
DWIDTH 144 0
BBX 0 0 0 0
BITMAP
ENDCHAR
STARTCHAR 0027
ENCODING 39
SWIDTH 187 0
DWIDTH 18 0
BBX 9 32 0 48
BITMAP
FF80
FF80
FF80
FF80
FF80
FF80
FF80
FF80
FF80
FF80
FF80
FF80
FF80
FF80
FF80
FF80
FF80
FF80
FF80
FF80
FF80
FF80
FF80
FF80
FF80
FF80
FF80
FF80
FF80
FF80
FF80
FF80
ENDCHAR
STARTCHAR 0028
ENCODING 40
SWIDTH 322 0
DWIDTH 31 0
BBX 22 134 0 -27
BITMAP
0007FC
003FFC
007FFC
01FFFC
03FFFC
07FFFC
0FFFFC
1FFFFC
1FFFFC
3FFE00
7FF800
7FF000
7FE000
FFC000
FFC000
FF8000
FF8000
FF8000
FF8000
FF8000
FF8000
FF8000
FF8000
FF8000
FF8000
FF8000
FF8000
FF8000
FF8000
FF8000
FF8000
FF8000
FF8000
FF8000
FF8000
FF8000
FF8000
FF8000
FF8000
FF8000
FF8000
FF8000
FF8000
FF8000
FF8000
FF8000
FF8000
FF8000
FF8000
FF8000
FF8000
FF8000
FF8000
FF8000
FF8000
FF8000
FF8000
FF8000
FF8000
FF8000
FF8000
FF8000
FF8000
FF8000
FF8000
FF8000
FF8000
FF8000
FF8000
FF8000
FF8000
FF8000
FF8000
FF8000
FF8000
FF8000
FF8000
FF8000
FF8000
FF8000
FF8000
FF8000
FF8000
FF8000
FF8000
FF8000
FF8000
FF8000
FF8000
FF8000
FF8000
FF8000
FF8000
FF8000
FF8000
FF8000
FF8000
FF8000
FF8000
FF8000
FF8000
FF8000
FF8000
FF8000
FF8000
FF8000
FF8000
FF8000
FF8000
FF8000
FF8000
FF8000
FF8000
FF8000
FF8000
FF8000
FF8000
FF8000
FF8000
FFC000
FFC000
7FE000
7FF000
7FF800
3FFE00
3FFFFC
1FFFFC
0FFFFC
07FFFC
03FFFC
01FFFC
00FFFC
003FFC
0007FC
ENDCHAR
STARTCHAR 0029
ENCODING 41
SWIDTH 322 0
DWIDTH 31 0
BBX 22 134 0 -27
BITMAP
FF8000
FFF000
FFF800
FFFE00
FFFF00
FFFF80
FFFFC0
FFFFE0
FFFFE0
01FFF0
007FF0
003FF8
001FF8
000FF8
000FFC
0007FC
0007FC
0007FC
0007FC
0007FC
0007FC
0007FC
0007FC
0007FC
0007FC
0007FC
0007FC
0007FC
0007FC
0007FC
0007FC
0007FC
0007FC
0007FC
0007FC
0007FC
0007FC
0007FC
0007FC
0007FC
0007FC
0007FC
0007FC
0007FC
0007FC
0007FC
0007FC
0007FC
0007FC
0007FC
0007FC
0007FC
0007FC
0007FC
0007FC
0007FC
0007FC
0007FC
0007FC
0007FC
0007FC
0007FC
0007FC
0007FC
0007FC
0007FC
0007FC
0007FC
0007FC
0007FC
0007FC
0007FC
0007FC
0007FC
0007FC
0007FC
0007FC
0007FC
0007FC
0007FC
0007FC
0007FC
0007FC
0007FC
0007FC
0007FC
0007FC
0007FC
0007FC
0007FC
0007FC
0007FC
0007FC
0007FC
0007FC
0007FC
0007FC
0007FC
0007FC
0007FC
0007FC
0007FC
0007FC
0007FC
0007FC
0007FC
0007FC
0007FC
0007FC
0007FC
0007FC
0007FC
0007FC
0007FC
0007FC
0007FC
0007FC
0007FC
0007FC
000FFC
000FFC
001FF8
003FF8
007FF8
01FFF0
FFFFE0
FFFFE0
FFFFC0
FFFF80
FFFF00
FFFE00
FFFC00
FFF000
FF8000
ENDCHAR
STARTCHAR 002A
ENCODING 42
SWIDTH 1166 0
DWIDTH 112 0
BBX 0 0 0 0
BITMAP
ENDCHAR
STARTCHAR 002B
ENCODING 43
SWIDTH 1166 0
DWIDTH 112 0
BBX 0 0 0 0
BITMAP
ENDCHAR
STARTCHAR 002C
ENCODING 44
SWIDTH 187 0
DWIDTH 18 0
BBX 9 18 0 -9
BITMAP
FF80
FF80
FF80
FF80
FF80
FF80
FF80
FF80
FF80
FF80
FF80
FF80
FF80
FF80
FF80
FF80
FF80
FF80
ENDCHAR
STARTCHAR 002D
ENCODING 45
SWIDTH 583 0
DWIDTH 56 0
BBX 47 9 0 35
BITMAP
FFFFFFFFFFFE
FFFFFFFFFFFE
FFFFFFFFFFFE
FFFFFFFFFFFE
FFFFFFFFFFFE
FFFFFFFFFFFE
FFFFFFFFFFFE
FFFFFFFFFFFE
FFFFFFFFFFFE
ENDCHAR
STARTCHAR 002E
ENCODING 46
SWIDTH 187 0
DWIDTH 18 0
BBX 9 9 0 0
BITMAP
FF80
FF80
FF80
FF80
FF80
FF80
FF80
FF80
FF80
ENDCHAR
STARTCHAR 002F
ENCODING 47
SWIDTH 968 0
DWIDTH 93 0
BBX 92 80 1 -1
BITMAP
00000000000000000001FFF0
00000000000000000003FFE0
00000000000000000007FFC0
0000000000000000000FFF80
0000000000000000001FFF00
0000000000000000003FFE00
0000000000000000007FFC00
000000000000000000FFF800
000000000000000001FFF000
000000000000000003FFE000
000000000000000007FFC000
00000000000000000FFF8000
00000000000000001FFF0000
00000000000000003FFE0000
00000000000000007FFC0000
0000000000000000FFF80000
0000000000000001FFF00000
0000000000000003FFE00000
0000000000000007FFC00000
000000000000000FFF800000
000000000000001FFF000000
000000000000003FFE000000
000000000000007FFC000000
00000000000000FFF8000000
00000000000001FFF0000000
00000000000003FFE0000000
00000000000007FFC0000000
0000000000000FFF80000000
0000000000001FFF00000000
0000000000003FFE00000000
0000000000007FFC00000000
000000000000FFF800000000
000000000001FFF000000000
000000000003FFE000000000
000000000007FFC000000000
00000000000FFF8000000000
00000000001FFF0000000000
00000000003FFE0000000000
00000000007FFC0000000000
0000000000FFF80000000000
0000000001FFF00000000000
0000000003FFE00000000000
0000000007FFC00000000000
000000000FFF800000000000
000000001FFF000000000000
000000003FFE000000000000
000000007FFC000000000000
00000000FFF8000000000000
00000001FFF0000000000000
00000003FFE0000000000000
00000007FFC0000000000000
0000000FFF80000000000000
0000001FFF00000000000000
0000003FFE00000000000000
0000007FFC00000000000000
000000FFF800000000000000
000001FFF000000000000000
000003FFE000000000000000
000007FFC000000000000000
00000FFF8000000000000000
00001FFF0000000000000000
00003FFE0000000000000000
00007FFC0000000000000000
0000FFF80000000000000000
0001FFF00000000000000000
0003FFE00000000000000000
0007FFC00000000000000000
000FFF800000000000000000
001FFF000000000000000000
003FFE000000000000000000
007FFC000000000000000000
00FFF8000000000000000000
01FFF0000000000000000000
03FFE0000000000000000000
07FFC0000000000000000000
0FFF80000000000000000000
1FFF00000000000000000000
3FFE00000000000000000000
7FFC00000000000000000000
FFF800000000000000000000
ENDCHAR
STARTCHAR 0030
ENCODING 48
SWIDTH 1114 0
DWIDTH 107 0
BBX 98 80 0 0
BITMAP
0003FFFFFFFFFFFFFFFFF00000
001FFFFFFFFFFFFFFFFFFE0000
007FFFFFFFFFFFFFFFFFFF8000
01FFFFFFFFFFFFFFFFFFFFE000
03FFFFFFFFFFFFFFFFFFFFF000
07FFFFFFFFFFFFFFFFFFFFF800
0FFFFFFFFFFFFFFFFFFFFFFC00
1FFFFFFFFFFFFFFFFFFFFFFE00
1FFFFFFFFFFFFFFFFFFFFFFE00
3FFE00000000000000001FFF00
7FF8000000000000000007FF00
7FF0000000000000000003FF80
7FE0000000000000000001FF80
FFC0000000000000000000FFC0
FFC0000000000000000000FFC0
FF800000000000000000007FC0
FF800000000000000000007FC0
FF800000000000000000007FC0
FF80000000000001FFF0007FC0
FF80000000000003FFE0007FC0
FF80000000000007FFC0007FC0
FF8000000000000FFF80007FC0
FF8000000000001FFF00007FC0
FF8000000000003FFE00007FC0
FF8000000000007FFC00007FC0
FF800000000000FFF800007FC0
FF800000000001FFF000007FC0
FF800000000003FFE000007FC0
FF800000000007FFC000007FC0
FF80000000000FFF8000007FC0
FF80000000001FFF0000007FC0
FF80000000003FFE0000007FC0
FF80000000007FFC0000007FC0
FF8000000000FFF80000007FC0
FF8000000001FFF00000007FC0
FF8000000003FFE00000007FC0
FF8000000007FFC00000007FC0
FF800000000FFF800000007FC0
FF800000001FFF000000007FC0
FF800000003FFE000000007FC0
FF800000007FFC000000007FC0
FF80000000FFF8000000007FC0
FF80000001FFF0000000007FC0
FF80000003FFE0000000007FC0
FF80000007FFC0000000007FC0
FF8000000FFF80000000007FC0
FF8000001FFF00000000007FC0
FF8000003FFE00000000007FC0
FF8000007FFC00000000007FC0
FF800000FFF800000000007FC0
FF800001FFF000000000007FC0
FF800003FFE000000000007FC0
FF800007FFC000000000007FC0
FF80000FFF8000000000007FC0
FF80001FFF0000000000007FC0
FF80003FFE0000000000007FC0
FF80007FFC0000000000007FC0
FF8000FFF80000000000007FC0
FF8001FFF00000000000007FC0
FF8003FFE00000000000007FC0
FF8007FFC00000000000007FC0
FF800FFF800000000000007FC0
FF800000000000000000007FC0
FF800000000000000000007FC0
FF800000000000000000007FC0
FFC0000000000000000000FFC0
FFC0000000000000000000FFC0
7FE0000000000000000001FF80
7FF0000000000000000003FF80
7FF8000000000000000007FF00
3FFE00000000000000001FFF00
3FFFFFFFFFFFFFFFFFFFFFFE00
1FFFFFFFFFFFFFFFFFFFFFFE00
0FFFFFFFFFFFFFFFFFFFFFFC00
07FFFFFFFFFFFFFFFFFFFFF800
03FFFFFFFFFFFFFFFFFFFFF000
01FFFFFFFFFFFFFFFFFFFFE000
007FFFFFFFFFFFFFFFFFFF8000
003FFFFFFFFFFFFFFFFFFF0000
0007FFFFFFFFFFFFFFFFF00000
ENDCHAR
STARTCHAR 0031
ENCODING 49
SWIDTH 645 0
DWIDTH 62 0
BBX 53 80 0 0
BITMAP
FFFFFFFFFF0000
FFFFFFFFFFE000
FFFFFFFFFFF000
FFFFFFFFFFFC00
FFFFFFFFFFFE00
FFFFFFFFFFFF00
FFFFFFFFFFFF80
FFFFFFFFFFFFC0
FFFFFFFFFFFFC0
0000000003FFE0
0000000000FFF0
00000000007FF0
00000000003FF0
00000000001FF8
00000000001FF8
00000000000FF8
00000000000FF8
00000000000FF8
00000000000FF8
00000000000FF8
00000000000FF8
00000000000FF8
00000000000FF8
00000000000FF8
00000000000FF8
00000000000FF8
00000000000FF8
00000000000FF8
00000000000FF8
00000000000FF8
00000000000FF8
00000000000FF8
00000000000FF8
00000000000FF8
00000000000FF8
00000000000FF8
00000000000FF8
00000000000FF8
00000000000FF8
00000000000FF8
00000000000FF8
00000000000FF8
00000000000FF8
00000000000FF8
00000000000FF8
00000000000FF8
00000000000FF8
00000000000FF8
00000000000FF8
00000000000FF8
00000000000FF8
00000000000FF8
00000000000FF8
00000000000FF8
00000000000FF8
00000000000FF8
00000000000FF8
00000000000FF8
00000000000FF8
00000000000FF8
00000000000FF8
00000000000FF8
00000000000FF8
00000000000FF8
00000000000FF8
00000000000FF8
00000000000FF8
00000000000FF8
00000000000FF8
00000000000FF8
00000000000FF8
00000000000FF8
00000000000FF8
00000000000FF8
00000000000FF8
00000000000FF8
00000000000FF8
00000000000FF8
00000000000FF8
00000000000FF8
ENDCHAR
STARTCHAR 0032
ENCODING 50
SWIDTH 1114 0
DWIDTH 107 0
BBX 98 80 0 0
BITMAP
FFFFFFFFFFFFFFFFFFFFF00000
FFFFFFFFFFFFFFFFFFFFFE0000
FFFFFFFFFFFFFFFFFFFFFF8000
FFFFFFFFFFFFFFFFFFFFFFE000
FFFFFFFFFFFFFFFFFFFFFFF000
FFFFFFFFFFFFFFFFFFFFFFF800
FFFFFFFFFFFFFFFFFFFFFFFC00
FFFFFFFFFFFFFFFFFFFFFFFE00
FFFFFFFFFFFFFFFFFFFFFFFE00
000000000000000000001FFF00
0000000000000000000007FF00
0000000000000000000003FF80
0000000000000000000001FF80
0000000000000000000000FFC0
0000000000000000000000FFC0
00000000000000000000007FC0
00000000000000000000007FC0
00000000000000000000007FC0
00000000000000000000007FC0
00000000000000000000007FC0
00000000000000000000007FC0
0000000000000000000000FFC0
0000000000000000000000FF80
0000000000000000000001FF80
0000000000000000000003FF80
0000000000000000000007FF00
000000000000000000003FFF00
00000000000000000003FFFE00
0000000000000000001FFFFC00
000000000000000001FFFFFC00
00000000000000001FFFFFF800
0000000000000000FFFFFFF000
000000000000000FFFFFFFC000
00000000000000FFFFFFFF8000
0000000000000FFFFFFFFC0000
0000000000007FFFFFFFE00000
000000000007FFFFFFFE000000
00000000007FFFFFFFE0000000
0000000003FFFFFFFF00000000
000000003FFFFFFFF000000000
00000003FFFFFFFF0000000000
0000003FFFFFFFF80000000000
000001FFFFFFFF800000000000
00001FFFFFFFF8000000000000
0001FFFFFFFF80000000000000
000FFFFFFFFC00000000000000
003FFFFFFFC000000000000000
00FFFFFFFC0000000000000000
01FFFFFFE00000000000000000
07FFFFFE000000000000000000
0FFFFFE0000000000000000000
0FFFFE00000000000000000000
1FFFF000000000000000000000
3FFF0000000000000000000000
3FF80000000000000000000000
7FF00000000000000000000000
7FE00000000000000000000000
7FC00000000000000000000000
FFC00000000000000000000000
FF800000000000000000000000
FF800000000000000000000000
FF800000000000000000000000
FF800000000000000000000000
FF800000000000000000000000
FF800000000000000000000000
FFC00000000000000000000000
FFC00000000000000000000000
7FE00000000000000000000000
7FF00000000000000000000000
7FF80000000000000000000000
3FFE0000000000000000000000
3FFFFFFFFFFFFFFFFFFFFFFFC0
1FFFFFFFFFFFFFFFFFFFFFFFC0
0FFFFFFFFFFFFFFFFFFFFFFFC0
07FFFFFFFFFFFFFFFFFFFFFFC0
03FFFFFFFFFFFFFFFFFFFFFFC0
01FFFFFFFFFFFFFFFFFFFFFFC0
007FFFFFFFFFFFFFFFFFFFFFC0
003FFFFFFFFFFFFFFFFFFFFFC0
0007FFFFFFFFFFFFFFFFFFFFC0
ENDCHAR
STARTCHAR 0033
ENCODING 51
SWIDTH 1114 0
DWIDTH 107 0
BBX 98 80 0 0
BITMAP
FFFFFFFFFFFFFFFFFFFFF00000
FFFFFFFFFFFFFFFFFFFFFE0000
FFFFFFFFFFFFFFFFFFFFFF8000
FFFFFFFFFFFFFFFFFFFFFFE000
FFFFFFFFFFFFFFFFFFFFFFF000
FFFFFFFFFFFFFFFFFFFFFFF800
FFFFFFFFFFFFFFFFFFFFFFFC00
FFFFFFFFFFFFFFFFFFFFFFFE00
FFFFFFFFFFFFFFFFFFFFFFFE00
000000000000000000001FFF00
0000000000000000000007FF00
0000000000000000000003FF80
0000000000000000000001FF80
0000000000000000000000FFC0
0000000000000000000000FFC0
00000000000000000000007FC0
00000000000000000000007FC0
00000000000000000000007FC0
00000000000000000000007FC0
00000000000000000000007FC0
00000000000000000000007FC0
00000000000000000000007FC0
00000000000000000000007FC0
00000000000000000000007FC0
00000000000000000000007FC0
00000000000000000000007FC0
00000000000000000000007FC0
00000000000000000000007FC0
00000000000000000000007FC0
00000000000000000000007FC0
00000000000000000000007FC0
00000000000000000000007FC0
00000000000000000000007FC0
00000000000000000000007FC0
00000000000000000000007FC0
FFFFFFFFFFFFFFFFFFFFFFFFC0
FFFFFFFFFFFFFFFFFFFFFFFFC0
FFFFFFFFFFFFFFFFFFFFFFFFC0
FFFFFFFFFFFFFFFFFFFFFFFFC0
FFFFFFFFFFFFFFFFFFFFFFFFC0
FFFFFFFFFFFFFFFFFFFFFFFFC0
FFFFFFFFFFFFFFFFFFFFFFFFC0
FFFFFFFFFFFFFFFFFFFFFFFFC0
FFFFFFFFFFFFFFFFFFFFFFFFC0
00000000000000000000007FC0
00000000000000000000007FC0
00000000000000000000007FC0
00000000000000000000007FC0
00000000000000000000007FC0
00000000000000000000007FC0
00000000000000000000007FC0
00000000000000000000007FC0
00000000000000000000007FC0
00000000000000000000007FC0
00000000000000000000007FC0
00000000000000000000007FC0
00000000000000000000007FC0
00000000000000000000007FC0
00000000000000000000007FC0
00000000000000000000007FC0
00000000000000000000007FC0
00000000000000000000007FC0
00000000000000000000007FC0
00000000000000000000007FC0
00000000000000000000007FC0
0000000000000000000000FFC0
0000000000000000000000FFC0
0000000000000000000001FF80
0000000000000000000003FF80
0000000000000000000007FF00
000000000000000000001FFF00
FFFFFFFFFFFFFFFFFFFFFFFE00
FFFFFFFFFFFFFFFFFFFFFFFE00
FFFFFFFFFFFFFFFFFFFFFFFC00
FFFFFFFFFFFFFFFFFFFFFFF800
FFFFFFFFFFFFFFFFFFFFFFF000
FFFFFFFFFFFFFFFFFFFFFFE000
FFFFFFFFFFFFFFFFFFFFFF8000
FFFFFFFFFFFFFFFFFFFFFF0000
FFFFFFFFFFFFFFFFFFFFF00000
ENDCHAR
STARTCHAR 0034
ENCODING 52
SWIDTH 1114 0
DWIDTH 107 0
BBX 98 80 0 0
BITMAP
FF800000000000000000007FC0
FF800000000000000000007FC0
FF800000000000000000007FC0
FF800000000000000000007FC0
FF800000000000000000007FC0
FF800000000000000000007FC0
FF800000000000000000007FC0
FF800000000000000000007FC0
FF800000000000000000007FC0
FF800000000000000000007FC0
FF800000000000000000007FC0
FF800000000000000000007FC0
FF800000000000000000007FC0
FF800000000000000000007FC0
FF800000000000000000007FC0
FF800000000000000000007FC0
FF800000000000000000007FC0
FF800000000000000000007FC0
FF800000000000000000007FC0
FF800000000000000000007FC0
FF800000000000000000007FC0
FF800000000000000000007FC0
FF800000000000000000007FC0
FF800000000000000000007FC0
FF800000000000000000007FC0
FF800000000000000000007FC0
FF800000000000000000007FC0
FF800000000000000000007FC0
FF800000000000000000007FC0
FF800000000000000000007FC0
FF800000000000000000007FC0
FF800000000000000000007FC0
FF800000000000000000007FC0
FF800000000000000000007FC0
FF800000000000000000007FC0
FF800000000000000000007FC0
FF800000000000000000007FC0
FF800000000000000000007FC0
FF800000000000000000007FC0
FF800000000000000000007FC0
FF800000000000000000007FC0
FF800000000000000000007FC0
FF800000000000000000007FC0
FF800000000000000000007FC0
FF800000000000000000007FC0
FF800000000000000000007FC0
FF800000000000000000007FC0
FFC00000000000000000007FC0
FFC00000000000000000007FC0
7FE00000000000000000007FC0
7FE00000000000000000007FC0
7FF00000000000000000007FC0
3FFC0000000000000000007FC0
3FFFFFFFFFFFFFFFFFFFFFFFC0
1FFFFFFFFFFFFFFFFFFFFFFFC0
0FFFFFFFFFFFFFFFFFFFFFFFC0
07FFFFFFFFFFFFFFFFFFFFFFC0
03FFFFFFFFFFFFFFFFFFFFFFC0
01FFFFFFFFFFFFFFFFFFFFFFC0
00FFFFFFFFFFFFFFFFFFFFFFC0
003FFFFFFFFFFFFFFFFFFFFFC0
000FFFFFFFFFFFFFFFFFFFFFC0
00000000000000000000007FC0
00000000000000000000007FC0
00000000000000000000007FC0
00000000000000000000007FC0
00000000000000000000007FC0
00000000000000000000007FC0
00000000000000000000007FC0
00000000000000000000007FC0
00000000000000000000007FC0
00000000000000000000007FC0
00000000000000000000007FC0
00000000000000000000007FC0
00000000000000000000007FC0
00000000000000000000007FC0
00000000000000000000007FC0
00000000000000000000007FC0
00000000000000000000007FC0
00000000000000000000007FC0
ENDCHAR
STARTCHAR 0035
ENCODING 53
SWIDTH 1114 0
DWIDTH 107 0
BBX 98 80 0 0
BITMAP
0003FFFFFFFFFFFFFFFFFFFFC0
001FFFFFFFFFFFFFFFFFFFFFC0
007FFFFFFFFFFFFFFFFFFFFFC0
01FFFFFFFFFFFFFFFFFFFFFFC0
03FFFFFFFFFFFFFFFFFFFFFFC0
07FFFFFFFFFFFFFFFFFFFFFFC0
0FFFFFFFFFFFFFFFFFFFFFFFC0
1FFFFFFFFFFFFFFFFFFFFFFFC0
1FFFFFFFFFFFFFFFFFFFFFFFC0
3FFE0000000000000000000000
3FF80000000000000000000000
7FF00000000000000000000000
7FE00000000000000000000000
7FC00000000000000000000000
FFC00000000000000000000000
FF800000000000000000000000
FF800000000000000000000000
FF800000000000000000000000
FF800000000000000000000000
FF800000000000000000000000
FF800000000000000000000000
FFC00000000000000000000000
FFC00000000000000000000000
7FE00000000000000000000000
7FF00000000000000000000000
7FF80000000000000000000000
3FFE0000000000000000000000
1FFFFFFFFFFFFFFFFFFFF00000
1FFFFFFFFFFFFFFFFFFFFE0000
0FFFFFFFFFFFFFFFFFFFFF8000
07FFFFFFFFFFFFFFFFFFFFE000
03FFFFFFFFFFFFFFFFFFFFF000
01FFFFFFFFFFFFFFFFFFFFF800
007FFFFFFFFFFFFFFFFFFFFC00
003FFFFFFFFFFFFFFFFFFFFE00
0007FFFFFFFFFFFFFFFFFFFE00
000000000000000000001FFF00
0000000000000000000007FF80
0000000000000000000003FF80
0000000000000000000001FF80
0000000000000000000000FFC0
0000000000000000000000FFC0
00000000000000000000007FC0
00000000000000000000007FC0
00000000000000000000007FC0
00000000000000000000007FC0
00000000000000000000007FC0
00000000000000000000007FC0
00000000000000000000007FC0
00000000000000000000007FC0
00000000000000000000007FC0
00000000000000000000007FC0
00000000000000000000007FC0
00000000000000000000007FC0
00000000000000000000007FC0
00000000000000000000007FC0
00000000000000000000007FC0
00000000000000000000007FC0
00000000000000000000007FC0
00000000000000000000007FC0
00000000000000000000007FC0
00000000000000000000007FC0
00000000000000000000007FC0
00000000000000000000007FC0
00000000000000000000007FC0
0000000000000000000000FFC0
0000000000000000000000FFC0
0000000000000000000001FF80
0000000000000000000003FF80
0000000000000000000007FF80
000000000000000000001FFF00
FFFFFFFFFFFFFFFFFFFFFFFE00
FFFFFFFFFFFFFFFFFFFFFFFE00
FFFFFFFFFFFFFFFFFFFFFFFC00
FFFFFFFFFFFFFFFFFFFFFFF800
FFFFFFFFFFFFFFFFFFFFFFF000
FFFFFFFFFFFFFFFFFFFFFFE000
FFFFFFFFFFFFFFFFFFFFFF8000
FFFFFFFFFFFFFFFFFFFFFF0000
FFFFFFFFFFFFFFFFFFFFF00000
ENDCHAR
STARTCHAR 0036
ENCODING 54
SWIDTH 1114 0
DWIDTH 107 0
BBX 98 80 0 0
BITMAP
00003FE0000000000000000000
00003FE0000000000000000000
00003FE0000000000000000000
00003FE0000000000000000000
00003FE0000000000000000000
00003FE0000000000000000000
00003FE0000000000000000000
00003FE0000000000000000000
00003FE0000000000000000000
00003FE0000000000000000000
00003FE0000000000000000000
00003FE0000000000000000000
00003FE0000000000000000000
00003FE0000000000000000000
00003FE0000000000000000000
00003FE0000000000000000000
00003FE0000000000000000000
00003FC0000000000000000000
00007FFFFFFFFFFFFFFFF00000
00007FFFFFFFFFFFFFFFFE0000
0000FFFFFFFFFFFFFFFFFF8000
0000FFFFFFFFFFFFFFFFFFE000
0003FFFFFFFFFFFFFFFFFFF000
0007FFFFFFFFFFFFFFFFFFF800
000FFFFFFFFFFFFFFFFFFFFC00
001FFFFFFFFFFFFFFFFFFFFE00
003FFFFFFFFFFFFFFFFFFFFE00
007FFC000000000000001FFF00
00FFF80000000000000007FF80
01FFF00000000000000003FF80
03FFE00000000000000001FF80
07FFC00000000000000000FFC0
0FFF800000000000000000FFC0
0FFF0000000000000000007FC0
1FFE0000000000000000007FC0
3FFC0000000000000000007FC0
3FF80000000000000000007FC0
7FF00000000000000000007FC0
7FE00000000000000000007FC0
7FC00000000000000000007FC0
FFC00000000000000000007FC0
FF800000000000000000007FC0
FF800000000000000000007FC0
FF800000000000000000007FC0
FF800000000000000000007FC0
FF800000000000000000007FC0
FF800000000000000000007FC0
FF800000000000000000007FC0
FF800000000000000000007FC0
FF800000000000000000007FC0
FF800000000000000000007FC0
FF800000000000000000007FC0
FF800000000000000000007FC0
FF800000000000000000007FC0
FF800000000000000000007FC0
FF800000000000000000007FC0
FF800000000000000000007FC0
FF800000000000000000007FC0
FF800000000000000000007FC0
FF800000000000000000007FC0
FF800000000000000000007FC0
FF800000000000000000007FC0
FF800000000000000000007FC0
FF800000000000000000007FC0
FF800000000000000000007FC0
FFC0000000000000000000FFC0
FFC0000000000000000000FFC0
7FE0000000000000000001FF80
7FF0000000000000000003FF80
7FF8000000000000000007FF80
3FFE00000000000000001FFF00
1FFFFFFFFFFFFFFFFFFFFFFE00
1FFFFFFFFFFFFFFFFFFFFFFE00
0FFFFFFFFFFFFFFFFFFFFFFC00
07FFFFFFFFFFFFFFFFFFFFF800
03FFFFFFFFFFFFFFFFFFFFF000
01FFFFFFFFFFFFFFFFFFFFE000
007FFFFFFFFFFFFFFFFFFF8000
003FFFFFFFFFFFFFFFFFFF0000
0007FFFFFFFFFFFFFFFFF00000
ENDCHAR
STARTCHAR 0037
ENCODING 55
SWIDTH 1114 0
DWIDTH 107 0
BBX 97 80 0 0
BITMAP
FFFFFFFFFFFFFFFFFFFFE00000
FFFFFFFFFFFFFFFFFFFFFC0000
FFFFFFFFFFFFFFFFFFFFFF0000
FFFFFFFFFFFFFFFFFFFFFFC000
FFFFFFFFFFFFFFFFFFFFFFE000
FFFFFFFFFFFFFFFFFFFFFFF000
FFFFFFFFFFFFFFFFFFFFFFF800
FFFFFFFFFFFFFFFFFFFFFFFC00
FFFFFFFFFFFFFFFFFFFFFFFC00
000000000000000000003FFE00
000000000000000000000FFE00
0000000000000000000007FF00
0000000000000000000003FF00
0000000000000000000001FF80
0000000000000000000001FF80
0000000000000000000000FF80
0000000000000000000000FF80
0000000000000000000000FF80
0000000000000000000000FF80
0000000000000000000000FF80
0000000000000000000000FF80
0000000000000000000001FF80
0000000000000000000001FF00
0000000000000000000003FF00
0000000000000000000007FF00
000000000000000000000FFE00
000000000000000000001FFE00
000000000000000000003FFC00
000000000000000000007FF800
00000000000000000000FFF000
00000000000000000001FFF000
00000000000000000003FFE000
00000000000000000007FFC000
0000000000000000000FFF8000
0000000000000000001FFF0000
0000000000000000003FFE0000
0000000000000000007FFC0000
000000000000000000FFF80000
000000000000000001FFF00000
000000000000000003FFE00000
000000000000000007FFC00000
00000000000000000FFF800000
00000000000000001FFF000000
00000000000000003FFE000000
00000000000000007FFC000000
0000000000000000FFF8000000
0000000000000001FFF0000000
0000000000000003FFE0000000
0000000000000007FFC0000000
000000000000000FFF80000000
000000000000001FFF00000000
000000000000003FFE00000000
000000000000007FFC00000000
00000000000000FFF800000000
00000000000001FFF000000000
00000000000001FFE000000000
00000000000003FFC000000000
00000000000003FF8000000000
00000000000003FF0000000000
00000000000007FE0000000000
00000000000007FE0000000000
00000000000007FC0000000000
00000000000007FC0000000000
00000000000007FC0000000000
00000000000007FC0000000000
00000000000007FC0000000000
00000000000007FC0000000000
00000000000007FC0000000000
00000000000007FC0000000000
00000000000007FC0000000000
00000000000007FC0000000000
00000000000007FC0000000000
00000000000007FC0000000000
00000000000007FC0000000000
00000000000007FC0000000000
00000000000007FC0000000000
00000000000007FC0000000000
00000000000007FC0000000000
00000000000007FC0000000000
00000000000007FC0000000000
ENDCHAR
STARTCHAR 0038
ENCODING 56
SWIDTH 1114 0
DWIDTH 107 0
BBX 98 80 0 0
BITMAP
0003FFFFFFFFFFFFFFFFF00000
001FFFFFFFFFFFFFFFFFFE0000
007FFFFFFFFFFFFFFFFFFF8000
01FFFFFFFFFFFFFFFFFFFFE000
03FFFFFFFFFFFFFFFFFFFFF000
07FFFFFFFFFFFFFFFFFFFFF800
0FFFFFFFFFFFFFFFFFFFFFFC00
1FFFFFFFFFFFFFFFFFFFFFFE00
1FFFFFFFFFFFFFFFFFFFFFFE00
3FFE00000000000000001FFF00
7FF8000000000000000007FF00
7FF0000000000000000003FF80
7FE0000000000000000001FF80
FFC0000000000000000000FF80
FFC0000000000000000000FFC0
FF800000000000000000007FC0
FF800000000000000000007FC0
FF800000000000000000007FC0
FF800000000000000000007FC0
FF800000000000000000007FC0
FF800000000000000000007FC0
FF800000000000000000007FC0
FF800000000000000000007FC0
FF800000000000000000007FC0
FF800000000000000000007FC0
FF800000000000000000007FC0
FF800000000000000000007FC0
FF800000000000000000007FC0
FF800000000000000000007FC0
FFC0000000000000000000FFC0
FFC0000000000000000000FFC0
7FE0000000000000000001FF80
7FF0000000000000000003FF80
7FF8000000000000000007FF80
3FFE00000000000000001FFF00
3FFFFFFFFFFFFFFFFFFFFFFF00
1FFFFFFFFFFFFFFFFFFFFFFE00
0FFFFFFFFFFFFFFFFFFFFFFC00
07FFFFFFFFFFFFFFFFFFFFF800
03FFFFFFFFFFFFFFFFFFFFF000
03FFFFFFFFFFFFFFFFFFFFF000
07FFFFFFFFFFFFFFFFFFFFF800
0FFFFFFFFFFFFFFFFFFFFFFC00
1FFFFFFFFFFFFFFFFFFFFFFE00
3FFE00000000000000001FFF00
3FF8000000000000000007FF00
7FF0000000000000000003FF80
7FE0000000000000000001FF80
7FC0000000000000000000FF80
FFC0000000000000000000FFC0
FF800000000000000000007FC0
FF800000000000000000007FC0
FF800000000000000000007FC0
FF800000000000000000007FC0
FF800000000000000000007FC0
FF800000000000000000007FC0
FF800000000000000000007FC0
FF800000000000000000007FC0
FF800000000000000000007FC0
FF800000000000000000007FC0
FF800000000000000000007FC0
FF800000000000000000007FC0
FF800000000000000000007FC0
FF800000000000000000007FC0
FF800000000000000000007FC0
FFC0000000000000000000FFC0
FFC0000000000000000000FFC0
7FE0000000000000000001FF80
7FF0000000000000000003FF80
7FF8000000000000000007FF00
3FFE00000000000000001FFF00
1FFFFFFFFFFFFFFFFFFFFFFE00
1FFFFFFFFFFFFFFFFFFFFFFE00
0FFFFFFFFFFFFFFFFFFFFFFC00
07FFFFFFFFFFFFFFFFFFFFF800
03FFFFFFFFFFFFFFFFFFFFF000
01FFFFFFFFFFFFFFFFFFFFE000
007FFFFFFFFFFFFFFFFFFF8000
003FFFFFFFFFFFFFFFFFFF0000
0007FFFFFFFFFFFFFFFFF00000
ENDCHAR
STARTCHAR 0039
ENCODING 57
SWIDTH 1114 0
DWIDTH 107 0
BBX 98 80 0 0
BITMAP
0003FFFFFFFFFFFFFFFFF00000
001FFFFFFFFFFFFFFFFFFE0000
007FFFFFFFFFFFFFFFFFFF8000
01FFFFFFFFFFFFFFFFFFFFE000
03FFFFFFFFFFFFFFFFFFFFF000
07FFFFFFFFFFFFFFFFFFFFF800
0FFFFFFFFFFFFFFFFFFFFFFC00
1FFFFFFFFFFFFFFFFFFFFFFE00
1FFFFFFFFFFFFFFFFFFFFFFE00
3FFE00000000000000001FFF00
7FF8000000000000000007FF00
7FF0000000000000000003FF80
7FE0000000000000000001FF80
FFC0000000000000000000FFC0
FFC0000000000000000000FFC0
FF800000000000000000007FC0
FF800000000000000000007FC0
FF800000000000000000007FC0
FF800000000000000000007FC0
FF800000000000000000007FC0
FF800000000000000000007FC0
FF800000000000000000007FC0
FF800000000000000000007FC0
FF800000000000000000007FC0
FF800000000000000000007FC0
FF800000000000000000007FC0
FF800000000000000000007FC0
FF800000000000000000007FC0
FF800000000000000000007FC0
FF800000000000000000007FC0
FF800000000000000000007FC0
FF800000000000000000007FC0
FF800000000000000000007FC0
FF800000000000000000007FC0
FF800000000000000000007FC0
FF800000000000000000007FC0
FF800000000000000000007FC0
FF800000000000000000007FC0
FF80000000000000000000FFC0
FF80000000000000000000FFC0
FF80000000000000000001FF80
FF80000000000000000001FF80
FF80000000000000000003FF80
FF80000000000000000007FF00
FF8000000000000000000FFF00
FF8000000000000000001FFE00
FF8000000000000000003FFC00
FFC000000000000000007FF800
FFC00000000000000000FFF000
7FE00000000000000001FFE000
7FF00000000000000003FFC000
7FF80000000000000007FF8000
3FFE000000000000000FFF0000
3FFFFFFFFFFFFFFFFFFFFE0000
1FFFFFFFFFFFFFFFFFFFFC0000
0FFFFFFFFFFFFFFFFFFFF80000
07FFFFFFFFFFFFFFFFFFF00000
03FFFFFFFFFFFFFFFFFFE00000
01FFFFFFFFFFFFFFFFFFC00000
00FFFFFFFFFFFFFFFFFF800000
003FFFFFFFFFFFFFFFFF800000
0007FFFFFFFFFFFFFFFF000000
000000000000000001FF000000
000000000000000001FF000000
000000000000000001FF000000
000000000000000001FF000000
000000000000000001FF000000
000000000000000001FF000000
000000000000000001FF000000
000000000000000001FF000000
000000000000000001FF000000
000000000000000001FF000000
000000000000000001FF000000
000000000000000001FF000000
000000000000000001FF000000
000000000000000001FF000000
000000000000000001FF000000
000000000000000001FF000000
000000000000000001FF000000
000000000000000001FF000000
ENDCHAR
STARTCHAR 003A
ENCODING 58
SWIDTH 187 0
DWIDTH 18 0
BBX 9 44 0 0
BITMAP
FF80
FF80
FF80
FF80
FF80
FF80
FF80
FF80
FF80
0000
0000
0000
0000
0000
0000
0000
0000
0000
0000
0000
0000
0000
0000
0000
0000
0000
0000
0000
0000
0000
0000
0000
0000
0000
0000
FF80
FF80
FF80
FF80
FF80
FF80
FF80
FF80
FF80
ENDCHAR
STARTCHAR 003B
ENCODING 59
SWIDTH 187 0
DWIDTH 18 0
BBX 9 53 0 -9
BITMAP
FF80
FF80
FF80
FF80
FF80
FF80
FF80
FF80
FF80
0000
0000
0000
0000
0000
0000
0000
0000
0000
0000
0000
0000
0000
0000
0000
0000
0000
0000
0000
0000
0000
0000
0000
0000
0000
0000
0000
FF80
FF80
FF80
FF80
FF80
FF80
FF80
FF80
FF80
FF80
FF80
FF80
FF80
FF80
FF80
FF80
FF80
ENDCHAR
STARTCHAR 003C
ENCODING 60
SWIDTH 833 0
DWIDTH 80 0
BBX 0 0 0 0
BITMAP
ENDCHAR
STARTCHAR 003D
ENCODING 61
SWIDTH 1166 0
DWIDTH 112 0
BBX 0 0 0 0
BITMAP
ENDCHAR
STARTCHAR 003E
ENCODING 62
SWIDTH 833 0
DWIDTH 80 0
BBX 0 0 0 0
BITMAP
ENDCHAR
STARTCHAR 003F
ENCODING 63
SWIDTH 1114 0
DWIDTH 107 0
BBX 98 80 0 0
BITMAP
FFFFFFFFFFFFFFFFFFFFF00000
FFFFFFFFFFFFFFFFFFFFFE0000
FFFFFFFFFFFFFFFFFFFFFF8000
FFFFFFFFFFFFFFFFFFFFFFE000
FFFFFFFFFFFFFFFFFFFFFFF000
FFFFFFFFFFFFFFFFFFFFFFF800
FFFFFFFFFFFFFFFFFFFFFFFC00
FFFFFFFFFFFFFFFFFFFFFFFE00
FFFFFFFFFFFFFFFFFFFFFFFE00
000000000000000000001FFF00
0000000000000000000007FF80
0000000000000000000003FF80
0000000000000000000001FF80
0000000000000000000000FFC0
0000000000000000000000FFC0
00000000000000000000007FC0
00000000000000000000007FC0
00000000000000000000007FC0
00000000000000000000007FC0
00000000000000000000007FC0
00000000000000000000007FC0
00000000000000000000007FC0
00000000000000000000007FC0
00000000000000000000007FC0
00000000000000000000007FC0
00000000000000000000007FC0
00000000000000000000007FC0
00000000000000000000007FC0
00000000000000000000007FC0
0000000000000000000000FFC0
0000000000000000000000FFC0
0000000000000000000001FF80
0000000000000000000003FF80
0000000000000000000007FF80
000000000000000000001FFF00
0003FFFFFFFFFFFFFFFFFFFF00
001FFFFFFFFFFFFFFFFFFFFE00
007FFFFFFFFFFFFFFFFFFFFC00
01FFFFFFFFFFFFFFFFFFFFF800
03FFFFFFFFFFFFFFFFFFFFF000
07FFFFFFFFFFFFFFFFFFFFE000
0FFFFFFFFFFFFFFFFFFFFF8000
1FFFFFFFFFFFFFFFFFFFFF0000
1FFFFFFFFFFFFFFFFFFFF80000
3FFE0000000000000000000000
3FF80000000000000000000000
7FF00000000000000000000000
7FE00000000000000000000000
7FC00000000000000000000000
FFC00000000000000000000000
FF800000000000000000000000
FF800000000000000000000000
FF800000000000000000000000
FF800000000000000000000000
FF800000000000000000000000
FF800000000000000000000000
FF800000000000000000000000
FF800000000000000000000000
FF800000000000000000000000
FF800000000000000000000000
FF800000000000000000000000
FF800000000000000000000000
FF800000000000000000000000
00000000000000000000000000
00000000000000000000000000
00000000000000000000000000
00000000000000000000000000
FF800000000000000000000000
FF800000000000000000000000
FF800000000000000000000000
FF800000000000000000000000
FF800000000000000000000000
FF800000000000000000000000
FF800000000000000000000000
FF800000000000000000000000
FF800000000000000000000000
FF800000000000000000000000
FF800000000000000000000000
FF800000000000000000000000
FF800000000000000000000000
ENDCHAR
STARTCHAR 0040
ENCODING 64
SWIDTH 1114 0
DWIDTH 107 0
BBX 98 80 0 0
BITMAP
0003FFFFFFFFFFFFFFFFF00000
001FFFFFFFFFFFFFFFFFFE0000
007FFFFFFFFFFFFFFFFFFF8000
01FFFFFFFFFFFFFFFFFFFFE000
03FFFFFFFFFFFFFFFFFFFFF000
07FFFFFFFFFFFFFFFFFFFFF800
0FFFFFFFFFFFFFFFFFFFFFFC00
1FFFFFFFFFFFFFFFFFFFFFFE00
1FFFFFFFFFFFFFFFFFFFFFFE00
3FFE00000000000000001FFF00
7FF8000000000000000007FF80
7FF0000000000000000003FF80
7FE0000000000000000001FF80
FFC0000000000000000000FFC0
FFC0000000000000000000FFC0
FF800000000000000000007FC0
FF800000000000000000007FC0
FF800000000000000000007FC0
FF8003FFFFFFFFFFF000007FC0
FF8003FFFFFFFFFFFC00007FC0
FF8003FFFFFFFFFFFF00007FC0
FF8003FFFFFFFFFFFF80007FC0
FF8003FFFFFFFFFFFF80007FC0
FF8003FFFFFFFFFFFFC0007FC0
FF8003FFFFFFFFFFFFC0007FC0
FF8003FFFFFFFFFFFFE0007FC0
FF8003FFFFFFFFFFFFE0007FC0
FF800000007FFC003FE0007FC0
FF80000000FFF8003FF0007FC0
FF80000001FFF0001FF0007FC0
FF80000003FFE0001FF0007FC0
FF80000007FFC0001FF0007FC0
FF8000000FFF80001FF0007FC0
FF8000001FFF00001FF0007FC0
FF8000003FFE00001FF0007FC0
FF8000007FFC00001FF0007FC0
FF800000FFF800001FF0007FC0
FF800001FFF000001FF0007FC0
FF800003FFE000001FF0007FC0
FF800007FFC000001FF0007FC0
FF80000FFF8000001FF0007FC0
FF80001FFF0000001FF0007FC0
FF80003FFE0000001FF0007FC0
FF80007FFC0000001FF0007FC0
FF8000FFF80000001FF0007FC0
FF8000FFF00000001FF0007FC0
FF8001FFE00000001FF0007FC0
FF8001FFC00000001FF000FFC0
FF8003FF800000001FF000FFC0
FF8003FF000000001FF001FF80
FF8003FE000000001FF003FF80
FF8003FE000000001FF007FF80
FF8003FF000000001FF01FFF00
FF8003FFFFFFFFFFFFFFFFFE00
FF8001FFFFFFFFFFFFFFFFFE00
FF8001FFFFFFFFFFFFFFFFFC00
FF8001FFFFFFFFFFFFFFFFF800
FF8000FFFFFFFFFFFFFFFFF000
FF80007FFFFFFFFFFFFFFFE000
FF80003FFFFFFFFFFFFFFF8000
FF80001FFFFFFFFFFFFFFE0000
FF800003FFFFFFFFFFFFF00000
FF800000000000000000000000
FF800000000000000000000000
FF800000000000000000000000
FFC00000000000000000000000
FFC00000000000000000000000
7FE00000000000000000000000
7FF00000000000000000000000
7FF80000000000000000000000
3FFE0000000000000000000000
3FFFFFFFFFFFFFFFFFFFFFFFC0
1FFFFFFFFFFFFFFFFFFFFFFFC0
0FFFFFFFFFFFFFFFFFFFFFFFC0
07FFFFFFFFFFFFFFFFFFFFFFC0
03FFFFFFFFFFFFFFFFFFFFFFC0
01FFFFFFFFFFFFFFFFFFFFFFC0
007FFFFFFFFFFFFFFFFFFFFFC0
003FFFFFFFFFFFFFFFFFFFFFC0
0007FFFFFFFFFFFFFFFFFFFFC0
ENDCHAR
STARTCHAR 0041
ENCODING 65
SWIDTH 1114 0
DWIDTH 107 0
BBX 98 80 0 0
BITMAP
FFFFFFFFFFFFFFFFFFFFF00000
FFFFFFFFFFFFFFFFFFFFFE0000
FFFFFFFFFFFFFFFFFFFFFF8000
FFFFFFFFFFFFFFFFFFFFFFE000
FFFFFFFFFFFFFFFFFFFFFFF000
FFFFFFFFFFFFFFFFFFFFFFF800
FFFFFFFFFFFFFFFFFFFFFFFC00
FFFFFFFFFFFFFFFFFFFFFFFE00
FFFFFFFFFFFFFFFFFFFFFFFE00
000000000007FFC000001FFF00
00000000000FFF80000007FF00
00000000001FFF00000003FF80
00000000003FFE00000001FF80
00000000007FFC00000000FFC0
0000000000FFF800000000FFC0
0000000001FFF0000000007FC0
0000000003FFE0000000007FC0
0000000007FFC0000000007FC0
000000000FFF80000000007FC0
000000001FFF00000000007FC0
000000003FFE00000000007FC0
000000007FFC00000000007FC0
00000000FFF800000000007FC0
00000001FFF000000000007FC0
00000003FFE000000000007FC0
00000007FFC000000000007FC0
0000000FFF8000000000007FC0
0000001FFF0000000000007FC0
0000003FFE0000000000007FC0
0000007FFC0000000000007FC0
000000FFF80000000000007FC0
000001FFF00000000000007FC0
000003FFE00000000000007FC0
000007FFC00000000000007FC0
00000FFF800000000000007FC0
00001FFF000000000000007FC0
00003FFE000000000000007FC0
00007FFC000000000000007FC0
0000FFF8000000000000007FC0
0001FFF0000000000000007FC0
0003FFE0000000000000007FC0
0007FFC0000000000000007FC0
000FFF80000000000000007FC0
001FFF00000000000000007FC0
003FFE00000000000000007FC0
007FFC00000000000000007FC0
00FFF800000000000000007FC0
01FFF000000000000000007FC0
03FFE000000000000000007FC0
07FFC000000000000000007FC0
0FFF8000000000000000007FC0
0FFF0000000000000000007FC0
1FFE0000000000000000007FC0
3FFC0000000000000000007FC0
3FF80000000000000000007FC0
7FF00000000000000000007FC0
7FE00000000000000000007FC0
7FC00000000000000000007FC0
FFC00000000000000000007FC0
FF800000000000000000007FC0
FF800000000000000000007FC0
FF800000000000000000007FC0
FF800000000000000000007FC0
FF800000000000000000007FC0
FF800000000000000000007FC0
FFC0000000000000000000FFC0
FFC0000000000000000000FFC0
7FE0000000000000000001FF80
7FF0000000000000000003FF80
7FF8000000000000000007FF00
3FFE00000000000000001FFF00
3FFFFFFFFFFFFFFFFFFFFFFE00
1FFFFFFFFFFFFFFFFFFFFFFE00
0FFFFFFFFFFFFFFFFFFFFFFC00
07FFFFFFFFFFFFFFFFFFFFF800
03FFFFFFFFFFFFFFFFFFFFF000
01FFFFFFFFFFFFFFFFFFFFE000
007FFFFFFFFFFFFFFFFFFF8000
003FFFFFFFFFFFFFFFFFFF0000
0007FFFFFFFFFFFFFFFFF00000
ENDCHAR
STARTCHAR 0042
ENCODING 66
SWIDTH 1114 0
DWIDTH 107 0
BBX 98 107 0 0
BITMAP
FF800000000000000000000000
FF800000000000000000000000
FF800000000000000000000000
FF800000000000000000000000
FF800000000000000000000000
FF800000000000000000000000
FF800000000000000000000000
FF800000000000000000000000
FF800000000000000000000000
FF800000000000000000000000
FF800000000000000000000000
FF800000000000000000000000
FF800000000000000000000000
FF800000000000000000000000
FF800000000000000000000000
FF800000000000000000000000
FF800000000000000000000000
FF800000000000000000000000
FF800000000000000000000000
FF800000000000000000000000
FF800000000000000000000000
FF800000000000000000000000
FF800000000000000000000000
FF800000000000000000000000
FF800000000000000000000000
FF800000000000000000000000
FF800000000000000000000000
FFFFFFFFFFFFFFFFFFC0000000
FFFFFFFFFFFFFFFFFFF8000000
FFFFFFFFFFFFFFFFFFFE000000
FFFFFFFFFFFFFFFFFFFF800000
FFFFFFFFFFFFFFFFFFFFC00000
FFFFFFFFFFFFFFFFFFFFE00000
FFFFFFFFFFFFFFFFFFFFF00000
FFFFFFFFFFFFFFFFFFFFF80000
FFFFFFFFFFFFFFFFFFFFFC0000
FF80000000000000007FFE0000
FF80000000000000001FFF0000
FF80000000000000000FFF8000
FF800000000000000007FFC000
FF800000000000000003FFE000
FF800000000000000001FFF000
FF800000000000000000FFF800
FF8000000000000000007FFC00
FF8000000000000000003FFE00
FF8000000000000000001FFE00
FF8000000000000000000FFF00
FF80000000000000000007FF00
FF80000000000000000003FF80
FF80000000000000000001FF80
FF80000000000000000000FFC0
FF80000000000000000000FFC0
FF800000000000000000007FC0
FF800000000000000000007FC0
FF800000000000000000007FC0
FF800000000000000000007FC0
FF800000000000000000007FC0
FF800000000000000000007FC0
FF800000000000000000007FC0
FF800000000000000000007FC0
FF800000000000000000007FC0
FF800000000000000000007FC0
FF800000000000000000007FC0
FF800000000000000000007FC0
FF800000000000000000007FC0
FF800000000000000000007FC0
FF800000000000000000007FC0
FF800000000000000000007FC0
FF800000000000000000007FC0
FF800000000000000000007FC0
FF800000000000000000007FC0
FF800000000000000000007FC0
FF800000000000000000007FC0
FF800000000000000000007FC0
FF800000000000000000007FC0
FF800000000000000000007FC0
FF800000000000000000007FC0
FF800000000000000000007FC0
FF800000000000000000007FC0
FF800000000000000000007FC0
FF800000000000000000007FC0
FF800000000000000000007FC0
FF800000000000000000007FC0
FF800000000000000000007FC0
FF800000000000000000007FC0
FF800000000000000000007FC0
FF800000000000000000007FC0
FF800000000000000000007FC0
FF800000000000000000007FC0
FF800000000000000000007FC0
FF800000000000000000007FC0
FF800000000000000000007FC0
FFC0000000000000000000FFC0
FFC0000000000000000000FFC0
7FE0000000000000000001FF80
7FF0000000000000000003FF80
7FF8000000000000000007FF00
3FFE00000000000000001FFF00
1FFFFFFFFFFFFFFFFFFFFFFE00
1FFFFFFFFFFFFFFFFFFFFFFE00
0FFFFFFFFFFFFFFFFFFFFFFC00
07FFFFFFFFFFFFFFFFFFFFF800
03FFFFFFFFFFFFFFFFFFFFF000
01FFFFFFFFFFFFFFFFFFFFE000
007FFFFFFFFFFFFFFFFFFF8000
003FFFFFFFFFFFFFFFFFFF0000
0007FFFFFFFFFFFFFFFFF00000
ENDCHAR
STARTCHAR 0043
ENCODING 67
SWIDTH 1114 0
DWIDTH 107 0
BBX 98 80 0 0
BITMAP
0003FFFFFFFFFFFFFFFFFFFFC0
003FFFFFFFFFFFFFFFFFFFFFC0
007FFFFFFFFFFFFFFFFFFFFFC0
01FFFFFFFFFFFFFFFFFFFFFFC0
03FFFFFFFFFFFFFFFFFFFFFFC0
07FFFFFFFFFFFFFFFFFFFFFFC0
0FFFFFFFFFFFFFFFFFFFFFFFC0
1FFFFFFFFFFFFFFFFFFFFFFFC0
1FFFFFFFFFFFFFFFFFFFFFFFC0
3FFE0000000000000000000000
7FF80000000000000000000000
7FF00000000000000000000000
7FE00000000000000000000000
FFC00000000000000000000000
FFC00000000000000000000000
FF800000000000000000000000
FF800000000000000000000000
FF800000000000000000000000
FF800000000000000000000000
FF800000000000000000000000
FF800000000000000000000000
FF800000000000000000000000
FF800000000000000000000000
FF800000000000000000000000
FF800000000000000000000000
FF800000000000000000000000
FF800000000000000000000000
FF800000000000000000000000
FF800000000000000000000000
FF800000000000000000000000
FF800000000000000000000000
FF800000000000000000000000
FF800000000000000000000000
FF800000000000000000000000
FF800000000000000000000000
FF800000000000000000000000
FF800000000000000000000000
FF800000000000000000000000
FF800000000000000000000000
FF800000000000000000000000
FF800000000000000000000000
FF800000000000000000000000
FF800000000000000000000000
FF800000000000000000000000
FF800000000000000000000000
FF800000000000000000000000
FF800000000000000000000000
FF800000000000000000000000
FF800000000000000000000000
FF800000000000000000000000
FF800000000000000000000000
FF800000000000000000000000
FF800000000000000000000000
FF800000000000000000000000
FF800000000000000000000000
FF800000000000000000000000
FF800000000000000000000000
FF800000000000000000000000
FF800000000000000000000000
FF800000000000000000000000
FF800000000000000000000000
FF800000000000000000000000
FF800000000000000000000000
FF800000000000000000000000
FF800000000000000000000000
FFC00000000000000000000000
FFC00000000000000000000000
7FE00000000000000000000000
7FF00000000000000000000000
7FF80000000000000000000000
3FFE0000000000000000000000
3FFFFFFFFFFFFFFFFFFFFFFFC0
1FFFFFFFFFFFFFFFFFFFFFFFC0
0FFFFFFFFFFFFFFFFFFFFFFFC0
07FFFFFFFFFFFFFFFFFFFFFFC0
03FFFFFFFFFFFFFFFFFFFFFFC0
01FFFFFFFFFFFFFFFFFFFFFFC0
007FFFFFFFFFFFFFFFFFFFFFC0
003FFFFFFFFFFFFFFFFFFFFFC0
0007FFFFFFFFFFFFFFFFFFFFC0
ENDCHAR
STARTCHAR 0044
ENCODING 68
SWIDTH 1114 0
DWIDTH 107 0
BBX 98 107 0 0
BITMAP
00000000000000000000007FC0
00000000000000000000007FC0
00000000000000000000007FC0
00000000000000000000007FC0
00000000000000000000007FC0
00000000000000000000007FC0
00000000000000000000007FC0
00000000000000000000007FC0
00000000000000000000007FC0
00000000000000000000007FC0
00000000000000000000007FC0
00000000000000000000007FC0
00000000000000000000007FC0
00000000000000000000007FC0
00000000000000000000007FC0
00000000000000000000007FC0
00000000000000000000007FC0
00000000000000000000007FC0
00000000000000000000007FC0
00000000000000000000007FC0
00000000000000000000007FC0
00000000000000000000007FC0
00000000000000000000007FC0
00000000000000000000007FC0
00000000000000000000007FC0
00000000000000000000007FC0
00000000000000000000007FC0
000000FFFFFFFFFFFFFFFFFFC0
000007FFFFFFFFFFFFFFFFFFC0
00001FFFFFFFFFFFFFFFFFFFC0
00007FFFFFFFFFFFFFFFFFFFC0
0000FFFFFFFFFFFFFFFFFFFFC0
0001FFFFFFFFFFFFFFFFFFFFC0
0003FFFFFFFFFFFFFFFFFFFFC0
0007FFFFFFFFFFFFFFFFFFFFC0
000FFFFFFFFFFFFFFFFFFFFFC0
001FFF80000000000000007FC0
003FFE00000000000000007FC0
007FFC00000000000000007FC0
00FFF800000000000000007FC0
01FFF000000000000000007FC0
03FFE000000000000000007FC0
07FFC000000000000000007FC0
0FFF8000000000000000007FC0
1FFF0000000000000000007FC0
1FFE0000000000000000007FC0
3FFC0000000000000000007FC0
7FF80000000000000000007FC0
7FF00000000000000000007FC0
7FE00000000000000000007FC0
FFC00000000000000000007FC0
FFC00000000000000000007FC0
FF800000000000000000007FC0
FF800000000000000000007FC0
FF800000000000000000007FC0
FF800000000000000000007FC0
FF800000000000000000007FC0
FF800000000000000000007FC0
FF800000000000000000007FC0
FF800000000000000000007FC0
FF800000000000000000007FC0
FF800000000000000000007FC0
FF800000000000000000007FC0
FF800000000000000000007FC0
FF800000000000000000007FC0
FF800000000000000000007FC0
FF800000000000000000007FC0
FF800000000000000000007FC0
FF800000000000000000007FC0
FF800000000000000000007FC0
FF800000000000000000007FC0
FF800000000000000000007FC0
FF800000000000000000007FC0
FF800000000000000000007FC0
FF800000000000000000007FC0
FF800000000000000000007FC0
FF800000000000000000007FC0
FF800000000000000000007FC0
FF800000000000000000007FC0
FF800000000000000000007FC0
FF800000000000000000007FC0
FF800000000000000000007FC0
FF800000000000000000007FC0
FF800000000000000000007FC0
FF800000000000000000007FC0
FF800000000000000000007FC0
FF800000000000000000007FC0
FF800000000000000000007FC0
FF800000000000000000007FC0
FF800000000000000000007FC0
FF800000000000000000007FC0
FF800000000000000000007FC0
FFC0000000000000000000FFC0
FFC0000000000000000000FFC0
7FE0000000000000000001FF80
7FF0000000000000000003FF80
7FF8000000000000000007FF00
3FFE00000000000000001FFF00
1FFFFFFFFFFFFFFFFFFFFFFE00
1FFFFFFFFFFFFFFFFFFFFFFE00
0FFFFFFFFFFFFFFFFFFFFFFC00
07FFFFFFFFFFFFFFFFFFFFF800
03FFFFFFFFFFFFFFFFFFFFF000
01FFFFFFFFFFFFFFFFFFFFE000
007FFFFFFFFFFFFFFFFFFF8000
003FFFFFFFFFFFFFFFFFFF0000
0003FFFFFFFFFFFFFFFFF00000
ENDCHAR
STARTCHAR 0045
ENCODING 69
SWIDTH 1114 0
DWIDTH 107 0
BBX 98 80 0 0
BITMAP
0003FFFFFFFFFFFFFFFFF00000
001FFFFFFFFFFFFFFFFFFE0000
007FFFFFFFFFFFFFFFFFFF8000
01FFFFFFFFFFFFFFFFFFFFE000
03FFFFFFFFFFFFFFFFFFFFF000
07FFFFFFFFFFFFFFFFFFFFF800
0FFFFFFFFFFFFFFFFFFFFFFC00
1FFFFFFFFFFFFFFFFFFFFFFE00
1FFFFFFFFFFFFFFFFFFFFFFE00
3FFE00000000000000001FFF00
7FF8000000000000000007FF00
7FF0000000000000000003FF80
7FE0000000000000000001FF80
FFC0000000000000000000FFC0
FFC0000000000000000000FFC0
FF800000000000000000007FC0
FF800000000000000000007FC0
FF800000000000000000007FC0
FF800000000000000000007FC0
FF800000000000000000007FC0
FF800000000000000000007FC0
FF80000000000000000000FFC0
FF80000000000000000000FF80
FF80000000000000000001FF80
FF80000000000000000003FF80
FF80000000000000000007FF00
FF8000000000000000000FFF00
FF8000000000000000001FFE00
FF8000000000000000003FFC00
FF8000000000000000007FF800
FF800000000000000000FFF800
FF800000000000000001FFF000
FF800000000000000003FFE000
FF800000000000000007FF8000
FF80000000000000000FFF0000
FF80000000000000001FFE0000
FF80000000000000003FFC0000
FF80000000000000007FF80000
FF8000000000000000FFF00000
FF8000000000000001FFE00000
FF8000000000000003FFC00000
FF8000000000000007FF800000
FF800000000000000FFF000000
FF800000000000001FFE000000
FF800000000000003FFC000000
FF800000000000007FF8000000
FF80000000000000FFF0000000
FF80000000000001FFE0000000
FF80000000000003FFC0000000
FF80000000000007FF80000000
FF8000000000000FFF00000000
FF8000000000001FFE00000000
FF8000000000003FFC00000000
FF8000000000007FF800000000
FF800000000000FFF000000000
FF800000000001FFE000000000
FF800000000003FFC000000000
FF800000000007FF8000000000
FF80000000000FFF0000000000
FF80000000001FFE0000000000
FF80000000003FFC0000000000
FF80000000007FF80000000000
FF8000000000FFF00000000000
FF8000000001FFE00000000000
FF8000000003FFC00000000000
FFC000000007FF800000000000
FFC00000000FFF000000000000
7FE00000001FFE000000000000
7FF00000003FFC000000000000
7FF80000007FF8000000000000
3FFE000000FFF0000000000000
3FFFFFFFFFFFFFFFFFFFFFFFC0
1FFFFFFFFFFFFFFFFFFFFFFFC0
0FFFFFFFFFFFFFFFFFFFFFFFC0
07FFFFFFFFFFFFFFFFFFFFFFC0
03FFFFFFFFFFFFFFFFFFFFFFC0
01FFFFFFFFFFFFFFFFFFFFFFC0
007FFFFFFFFFFFFFFFFFFFFFC0
003FFFFFFFFFFFFFFFFFFFFFC0
0007FFFFFFFFFFFFFFFFFFFFC0
ENDCHAR
STARTCHAR 0046
ENCODING 70
SWIDTH 1114 0
DWIDTH 107 0
BBX 98 80 0 0
BITMAP
0003FFFFFFFFFFFFFFFFFFFFC0
003FFFFFFFFFFFFFFFFFFFFFC0
007FFFFFFFFFFFFFFFFFFFFFC0
01FFFFFFFFFFFFFFFFFFFFFFC0
03FFFFFFFFFFFFFFFFFFFFFFC0
07FFFFFFFFFFFFFFFFFFFFFFC0
0FFFFFFFFFFFFFFFFFFFFFFFC0
1FFFFFFFFFFFFFFFFFFFFFFFC0
1FFFFFFFFFFFFFFFFFFFFFFFC0
3FFE0000000000000000000000
7FF80000000000000000000000
7FF00000000000000000000000
7FE00000000000000000000000
FFC00000000000000000000000
FFC00000000000000000000000
FF800000000000000000000000
FF800000000000000000000000
FF800000000000000000000000
FF800000000000000000000000
FF800000000000000000000000
FF800000000000000000000000
FF800000000000000000000000
FF800000000000000000000000
FF800000000000000000000000
FF800000000000000000000000
FF800000000000000000000000
FF800000000000000000000000
FF800000000000000000000000
FF800000000000000000000000
FF800000000000000000000000
FF800000000000000000000000
FF800000000000000000000000
FF800000000000000000000000
FF800000000000000000000000
FF800000000000000000000000
FF800000000000000000000000
FF800000000000000000000000
FF800000000000000000000000
FF800000000000000000000000
FF800000000000000000000000
FF800000000000000000000000
FF800000000000000000000000
FF800000000000000000000000
FF800000000000000000000000
FF800000000000000000000000
FF800000000000000000000000
FF800000000000000000000000
FF800000000000000000000000
FF800000000000000000000000
FF800000000000000000000000
FF800000000000000000000000
FF800000000000000000000000
FF800000000000000000000000
FFFFFFFFFFFFFFFFFFFFFFFFC0
FFFFFFFFFFFFFFFFFFFFFFFFC0
FFFFFFFFFFFFFFFFFFFFFFFFC0
FFFFFFFFFFFFFFFFFFFFFFFFC0
FFFFFFFFFFFFFFFFFFFFFFFFC0
FFFFFFFFFFFFFFFFFFFFFFFFC0
FFFFFFFFFFFFFFFFFFFFFFFFC0
FFFFFFFFFFFFFFFFFFFFFFFFC0
FFFFFFFFFFFFFFFFFFFFFFFFC0
FF800000000000000000000000
FF800000000000000000000000
FF800000000000000000000000
FF800000000000000000000000
FF800000000000000000000000
FF800000000000000000000000
FF800000000000000000000000
FF800000000000000000000000
FF800000000000000000000000
FF800000000000000000000000
FF800000000000000000000000
FF800000000000000000000000
FF800000000000000000000000
FF800000000000000000000000
FF800000000000000000000000
FF800000000000000000000000
FF800000000000000000000000
FF800000000000000000000000
ENDCHAR
STARTCHAR 0047
ENCODING 71
SWIDTH 1114 0
DWIDTH 107 0
BBX 98 102 0 -22
BITMAP
0003FFFFFFFFFFFFFFFFF00000
003FFFFFFFFFFFFFFFFFFE0000
007FFFFFFFFFFFFFFFFFFF8000
01FFFFFFFFFFFFFFFFFFFFE000
03FFFFFFFFFFFFFFFFFFFFF000
07FFFFFFFFFFFFFFFFFFFFF800
0FFFFFFFFFFFFFFFFFFFFFFC00
1FFFFFFFFFFFFFFFFFFFFFFE00
1FFFFFFFFFFFFFFFFFFFFFFE00
3FFE00000000000000001FFF00
7FF8000000000000000007FF00
7FF0000000000000000003FF80
7FE0000000000000000001FF80
FFC0000000000000000000FFC0
FFC0000000000000000000FFC0
FF800000000000000000007FC0
FF800000000000000000007FC0
FF800000000000000000007FC0
FF800000000000000000007FC0
FF800000000000000000007FC0
FF800000000000000000007FC0
FF800000000000000000007FC0
FF800000000000000000007FC0
FF800000000000000000007FC0
FF800000000000000000007FC0
FF800000000000000000007FC0
FF800000000000000000007FC0
FF800000000000000000007FC0
FF800000000000000000007FC0
FF800000000000000000007FC0
FF800000000000000000007FC0
FF800000000000000000007FC0
FF800000000000000000007FC0
FF800000000000000000007FC0
FF800000000000000000007FC0
FF800000000000000000007FC0
FF800000000000000000007FC0
FF800000000000000000007FC0
FF800000000000000000007FC0
FF800000000000000000007FC0
FF800000000000000000007FC0
FF800000000000000000007FC0
FF800000000000000000007FC0
FF800000000000000000007FC0
FF800000000000000000007FC0
FF800000000000000000007FC0
FF800000000000000000007FC0
FF800000000000000000007FC0
FF800000000000000000007FC0
FF800000000000000000007FC0
FF800000000000000000007FC0
FF800000000000000000007FC0
FF800000000000000000007FC0
FF800000000000000000007FC0
FF800000000000000000007FC0
FF800000000000000000007FC0
FF800000000000000000007FC0
FF800000000000000000007FC0
FF800000000000000000007FC0
FF800000000000000000007FC0
FF800000000000000000007FC0
FF800000000000000000007FC0
FF800000000000000000007FC0
FF800000000000000000007FC0
FF800000000000000000007FC0
FFC00000000000000000007FC0
FFC00000000000000000007FC0
7FE00000000000000000007FC0
7FF00000000000000000007FC0
7FF80000000000000000007FC0
3FFE0000000000000000007FC0
3FFFFFFFFFFFFFFFFFFFFFFFC0
1FFFFFFFFFFFFFFFFFFFFFFFC0
0FFFFFFFFFFFFFFFFFFFFFFFC0
07FFFFFFFFFFFFFFFFFFFFFFC0
03FFFFFFFFFFFFFFFFFFFFFFC0
01FFFFFFFFFFFFFFFFFFFFFFC0
00FFFFFFFFFFFFFFFFFFFFFFC0
003FFFFFFFFFFFFFFFFFFFFFC0
0007FFFFFFFFFFFFFFFFFFFFC0
00000000000000000000007FC0
00000000000000000000007FC0
00000000000000000000007FC0
00000000000000000000007FC0
00000000000000000000007FC0
00000000000000000000007FC0
00000000000000000000007FC0
0000000000000000000000FFC0
0000000000000000000000FFC0
0000000000000000000001FF80
0000000000000000000003FF80
0000000000000000000007FF80
000000000000000000001FFF00
FFFFFFFFFFFFFFFFFFFFFFFF00
FFFFFFFFFFFFFFFFFFFFFFFE00
FFFFFFFFFFFFFFFFFFFFFFFC00
FFFFFFFFFFFFFFFFFFFFFFF800
FFFFFFFFFFFFFFFFFFFFFFF000
FFFFFFFFFFFFFFFFFFFFFFE000
FFFFFFFFFFFFFFFFFFFFFF8000
FFFFFFFFFFFFFFFFFFFFFF0000
FFFFFFFFFFFFFFFFFFFFF00000
ENDCHAR
STARTCHAR 0048
ENCODING 72
SWIDTH 1114 0
DWIDTH 107 0
BBX 98 107 0 0
BITMAP
FF800000000000000000000000
FF800000000000000000000000
FF800000000000000000000000
FF800000000000000000000000
FF800000000000000000000000
FF800000000000000000000000
FF800000000000000000000000
FF800000000000000000000000
FF800000000000000000000000
FF800000000000000000000000
FF800000000000000000000000
FF800000000000000000000000
FF800000000000000000000000
FF800000000000000000000000
FF800000000000000000000000
FF800000000000000000000000
FF800000000000000000000000
FF800000000000000000000000
FF800000000000000000000000
FF800000000000000000000000
FF800000000000000000000000
FF800000000000000000000000
FF800000000000000000000000
FF800000000000000000000000
FF800000000000000000000000
FF800000000000000000000000
FF800000000000000000000000
FFFFFFFFFFFFFFFFFFC0000000
FFFFFFFFFFFFFFFFFFF8000000
FFFFFFFFFFFFFFFFFFFE000000
FFFFFFFFFFFFFFFFFFFF800000
FFFFFFFFFFFFFFFFFFFFC00000
FFFFFFFFFFFFFFFFFFFFE00000
FFFFFFFFFFFFFFFFFFFFF00000
FFFFFFFFFFFFFFFFFFFFF80000
FFFFFFFFFFFFFFFFFFFFFC0000
FF80000000000000007FFE0000
FF80000000000000001FFF0000
FF80000000000000000FFF8000
FF800000000000000007FFC000
FF800000000000000003FFE000
FF800000000000000001FFF000
FF800000000000000000FFF800
FF8000000000000000007FFC00
FF8000000000000000003FFE00
FF8000000000000000001FFE00
FF8000000000000000000FFF00
FF80000000000000000007FF80
FF80000000000000000003FF80
FF80000000000000000001FF80
FF80000000000000000000FFC0
FF80000000000000000000FFC0
FF800000000000000000007FC0
FF800000000000000000007FC0
FF800000000000000000007FC0
FF800000000000000000007FC0
FF800000000000000000007FC0
FF800000000000000000007FC0
FF800000000000000000007FC0
FF800000000000000000007FC0
FF800000000000000000007FC0
FF800000000000000000007FC0
FF800000000000000000007FC0
FF800000000000000000007FC0
FF800000000000000000007FC0
FF800000000000000000007FC0
FF800000000000000000007FC0
FF800000000000000000007FC0
FF800000000000000000007FC0
FF800000000000000000007FC0
FF800000000000000000007FC0
FF800000000000000000007FC0
FF800000000000000000007FC0
FF800000000000000000007FC0
FF800000000000000000007FC0
FF800000000000000000007FC0
FF800000000000000000007FC0
FF800000000000000000007FC0
FF800000000000000000007FC0
FF800000000000000000007FC0
FF800000000000000000007FC0
FF800000000000000000007FC0
FF800000000000000000007FC0
FF800000000000000000007FC0
FF800000000000000000007FC0
FF800000000000000000007FC0
FF800000000000000000007FC0
FF800000000000000000007FC0
FF800000000000000000007FC0
FF800000000000000000007FC0
FF800000000000000000007FC0
FF800000000000000000007FC0
FF800000000000000000007FC0
FF800000000000000000007FC0
FF800000000000000000007FC0
FF800000000000000000007FC0
FF800000000000000000007FC0
FF800000000000000000007FC0
FF800000000000000000007FC0
FF800000000000000000007FC0
FF800000000000000000007FC0
FF800000000000000000007FC0
FF800000000000000000007FC0
FF800000000000000000007FC0
FF800000000000000000007FC0
FF800000000000000000007FC0
FF800000000000000000007FC0
ENDCHAR
STARTCHAR 0049
ENCODING 73
SWIDTH 187 0
DWIDTH 18 0
BBX 9 107 0 0
BITMAP
FF80
FF80
FF80
FF80
FF80
FF80
FF80
FF80
FF80
FF80
FF80
FF80
FF80
FF80
0000
0000
0000
0000
0000
0000
0000
0000
0000
0000
0000
0000
0000
FF80
FF80
FF80
FF80
FF80
FF80
FF80
FF80
FF80
FF80
FF80
FF80
FF80
FF80
FF80
FF80
FF80
FF80
FF80
FF80
FF80
FF80
FF80
FF80
FF80
FF80
FF80
FF80
FF80
FF80
FF80
FF80
FF80
FF80
FF80
FF80
FF80
FF80
FF80
FF80
FF80
FF80
FF80
FF80
FF80
FF80
FF80
FF80
FF80
FF80
FF80
FF80
FF80
FF80
FF80
FF80
FF80
FF80
FF80
FF80
FF80
FF80
FF80
FF80
FF80
FF80
FF80
FF80
FF80
FF80
FF80
FF80
FF80
FF80
FF80
FF80
FF80
FF80
FF80
FF80
ENDCHAR
STARTCHAR 004A
ENCODING 74
SWIDTH 250 0
DWIDTH 24 0
BBX 37 135 -22 -29
BITMAP
0000000FF8
0000000FF8
0000000FF8
0000000FF8
0000000FF8
0000000FF8
0000000FF8
0000000FF8
0000000FF8
0000000FF8
0000000FF8
0000000FF8
0000000FF8
0000000FF8
0000000000
0000000000
0000000000
0000000000
0000000000
0000000000
0000000000
0000000000
0000000000
0000000000
0000000000
0000000000
0000000000
0000000FF8
0000000FF8
0000000FF8
0000000FF8
0000000FF8
0000000FF8
0000000FF8
0000000FF8
0000000FF8
0000000FF8
0000000FF8
0000000FF8
0000000FF8
0000000FF8
0000000FF8
0000000FF8
0000000FF8
0000000FF8
0000000FF8
0000000FF8
0000000FF8
0000000FF8
0000000FF8
0000000FF8
0000000FF8
0000000FF8
0000000FF8
0000000FF8
0000000FF8
0000000FF8
0000000FF8
0000000FF8
0000000FF8
0000000FF8
0000000FF8
0000000FF8
0000000FF8
0000000FF8
0000000FF8
0000000FF8
0000000FF8
0000000FF8
0000000FF8
0000000FF8
0000000FF8
0000000FF8
0000000FF8
0000000FF8
0000000FF8
0000000FF8
0000000FF8
0000000FF8
0000000FF8
0000000FF8
0000000FF8
0000000FF8
0000000FF8
0000000FF8
0000000FF8
0000000FF8
0000000FF8
0000000FF8
0000000FF8
0000000FF8
0000000FF8
0000000FF8
0000000FF8
0000000FF8
0000000FF8
0000000FF8
0000000FF8
0000001FF0
0000001FF0
0000001FF0
0000003FF0
0000003FF0
0000007FE0
000000FFE0
000001FFE0
000003FFC0
000007FF80
00000FFF80
00001FFF00
00003FFE00
00007FFC00
0000FFF800
0001FFF000
0003FFE000
0007FFC000
000FFF8000
001FFF0000
003FFE0000
007FFC0000
00FFF80000
01FFF00000
03FFE00000
07FFC00000
0FFF800000
1FFF000000
3FFE000000
7FFC000000
FFF8000000
FFF0000000
7FE0000000
3FC0000000
1F80000000
0F00000000
0600000000
ENDCHAR
STARTCHAR 004B
ENCODING 75
SWIDTH 1250 0
DWIDTH 120 0
BBX 113 107 0 0
BITMAP
FF8000000000000000000000000000
FF8000000000000000000000000000
FF8000000000000000000000000000
FF8000000000000000000000000000
FF8000000000000000000000000000
FF8000000000000000000000000000
FF8000000000000000000000000000
FF8000000000000000000000000000
FF8000000000000000000000000000
FF8000000000000000000000000000
FF8000000000000000000000000000
FF8000000000000000000000000000
FF8000000000000000000000000000
FF8000000000000000000000000000
FF8000000000000000000000000000
FF8000000000000000000000000000
FF8000000000000000000000000000
FF8000000000000000000000000000
FF8000000000000000000000000000
FF8000000000000000000000000000
FF8000000000000000000000000000
FF8000000000000000000000000000
FF8000000000000000000000000000
FF8000000000000000000000000000
FF8000000000000000000000000000
FF8000000000000000000000000000
FF8000000000000000000000000000
FF8000000000000000000000FFFF80
FF8000000000000000000007FFFF80
FF800000000000000000001FFFFF80
FF800000000000000000007FFFFF80
FF80000000000000000000FFFFFF80
FF80000000000000000001FFFFFF80
FF80000000000000000003FFFFFF80
FF80000000000000000007FFFFFF80
FF8000000000000000000FFFFFFF80
FF8000000000000000001FFF800000
FF8000000000000000003FFE000000
FF8000000000000000007FFC000000
FF800000000000000000FFF8000000
FF800000000000000001FFF0000000
FF800000000000000003FFE0000000
FF800000000000000007FFC0000000
FF80000000000000000FFF80000000
FF80000000000000001FFF00000000
FF80000000000000003FFE00000000
FF80000000000000007FFC00000000
FF8000000000000000FFF800000000
FF8000000000000001FFF000000000
FF8000000000000003FFE000000000
FF8000000000000007FFC000000000
FF800000000000000FFF8000000000
FF800000000000001FFFC000000000
FF800000000000003FFFE000000000
FF800000000000007FFFF000000000
FF80000000000000FFFFF800000000
FF80000000000001FFFFFC00000000
FF80000000000003FFFFFE00000000
FF80000000000007FFDFFF00000000
FF8000000000000FFF8FFF80000000
FF8000000000001FFF07FFC0000000
FF8000000000003FFE03FFE0000000
FF8000000000007FFC01FFF0000000
FF800000000000FFF800FFF8000000
FF800000000001FFF0007FFC000000
FF800000000003FFE0003FFE000000
FF800000000007FFC0001FFF000000
FF80000000000FFF80000FFF800000
FF80000000001FFF000007FFC00000
FF80000000003FFE000003FFE00000
FF80000000007FFC000001FFF00000
FF8000000000FFF8000000FFF80000
FF8000000001FFF00000007FFC0000
FF8000000003FFE00000003FFE0000
FF8000000007FFC00000001FFF0000
FF800000000FFF800000000FFF8000
FF800000001FFF0000000007FFC000
FF800000003FFE0000000003FFE000
FF800000007FFC0000000001FFE000
FF80000000FFF80000000000FFF000
FF80000001FFF000000000007FF800
FF80000003FFE000000000003FF800
FF80000007FFC000000000001FFC00
FF8000000FFF8000000000000FFC00
FF8000001FFF00000000000007FC00
FF8000003FFE00000000000007FE00
FF8000007FFC00000000000007FE00
FF800000FFF800000000000003FE00
FF800001FFF000000000000003FE00
FF800003FFE000000000000003FE00
FF800007FFC000000000000003FE00
FF80000FFF8000000000000003FE00
FFC0001FFF0000000000000003FE00
FFC0003FFE0000000000000003FE00
7FE0007FFC0000000000000003FE00
7FF000FFF80000000000000003FE00
7FF801FFF00000000000000003FE00
3FFE07FFE00000000000000003FE00
3FFFFFFFC00000000000000003FE00
1FFFFFFF800000000000000003FE00
0FFFFFFF000000000000000003FE00
07FFFFFE000000000000000003FE00
03FFFFFC000000000000000003FE00
01FFFFF0000000000000000003FE00
00FFFFE0000000000000000003FE00
003FFF80000000000000000003FE00
0007FC00000000000000000003FE00
ENDCHAR
STARTCHAR 004C
ENCODING 76
SWIDTH 1114 0
DWIDTH 107 0
BBX 98 80 0 0
BITMAP
FF800000000000000000000000
FF800000000000000000000000
FF800000000000000000000000
FF800000000000000000000000
FF800000000000000000000000
FF800000000000000000000000
FF800000000000000000000000
FF800000000000000000000000
FF800000000000000000000000
FF800000000000000000000000
FF800000000000000000000000
FF800000000000000000000000
FF800000000000000000000000
FF800000000000000000000000
FF800000000000000000000000
FF800000000000000000000000
FF800000000000000000000000
FF800000000000000000000000
FF800000000000000000000000
FF800000000000000000000000
FF800000000000000000000000
FF800000000000000000000000
FF800000000000000000000000
FF800000000000000000000000
FF800000000000000000000000
FF800000000000000000000000
FF800000000000000000000000
FF800000000000000000000000
FF800000000000000000000000
FF800000000000000000000000
FF800000000000000000000000
FF800000000000000000000000
FF800000000000000000000000
FF800000000000000000000000
FF800000000000000000000000
FF800000000000000000000000
FF800000000000000000000000
FF800000000000000000000000
FF800000000000000000000000
FF800000000000000000000000
FF800000000000000000000000
FF800000000000000000000000
FF800000000000000000000000
FF800000000000000000000000
FF800000000000000000000000
FF800000000000000000000000
FF800000000000000000000000
FF800000000000000000000000
FF800000000000000000000000
FF800000000000000000000000
FF800000000000000000000000
FF800000000000000000000000
FF800000000000000000000000
FF800000000000000000000000
FF800000000000000000000000
FF800000000000000000000000
FF800000000000000000000000
FF800000000000000000000000
FF800000000000000000000000
FF800000000000000000000000
FF800000000000000000000000
FF800000000000000000000000
FF800000000000000000000000
FF800000000000000000000000
FF800000000000000000000000
FFC00000000000000000000000
FFC00000000000000000000000
7FE00000000000000000000000
7FF00000000000000000000000
7FF80000000000000000000000
3FFE0000000000000000000000
3FFFFFFFFFFFFFFFFFFFFFFFC0
1FFFFFFFFFFFFFFFFFFFFFFFC0
0FFFFFFFFFFFFFFFFFFFFFFFC0
07FFFFFFFFFFFFFFFFFFFFFFC0
03FFFFFFFFFFFFFFFFFFFFFFC0
01FFFFFFFFFFFFFFFFFFFFFFC0
007FFFFFFFFFFFFFFFFFFFFFC0
003FFFFFFFFFFFFFFFFFFFFFC0
0007FFFFFFFFFFFFFFFFFFFFC0
ENDCHAR
STARTCHAR 004D
ENCODING 77
SWIDTH 1385 0
DWIDTH 133 0
BBX 124 80 0 0
BITMAP
0007FFFFFFFFFFFFFFFFFFFFFFFE0000
003FFFFFFFFFFFFFFFFFFFFFFFFFC000
007FFFFFFFFFFFFFFFFFFFFFFFFFE000
01FFFFFFFFFFFFFFFFFFFFFFFFFFF800
03FFFFFFFFFFFFFFFFFFFFFFFFFFFC00
07FFFFFFFFFFFFFFFFFFFFFFFFFFFE00
0FFFFFFFFFFFFFFFFFFFFFFFFFFFFF00
1FFFFFFFFFFFFFFFFFFFFFFFFFFFFF80
1FFFFFFFFFFFFFFFFFFFFFFFFFFFFF80
3FFE00000000003FE00000000007FFC0
7FF800000000003FE00000000001FFE0
7FF000000000003FE00000000000FFE0
7FE000000000003FE000000000007FE0
FFC000000000003FE000000000003FF0
FFC000000000003FE000000000003FF0
FF8000000000003FE000000000001FF0
FF8000000000003FE000000000001FF0
FF8000000000003FE000000000001FF0
FF8000000000003FE000000000001FF0
FF8000000000003FE000000000001FF0
FF8000000000003FE000000000001FF0
FF8000000000003FE000000000001FF0
FF8000000000003FE000000000001FF0
FF8000000000003FE000000000001FF0
FF8000000000003FE000000000001FF0
FF8000000000003FE000000000001FF0
FF8000000000003FE000000000001FF0
FF8000000000003FE000000000001FF0
FF8000000000003FE000000000001FF0
FF8000000000003FE000000000001FF0
FF8000000000003FE000000000001FF0
FF8000000000003FE000000000001FF0
FF8000000000003FE000000000001FF0
FF8000000000003FE000000000001FF0
FF8000000000003FE000000000001FF0
FF8000000000003FE000000000001FF0
FF8000000000003FE000000000001FF0
FF8000000000003FE000000000001FF0
FF8000000000003FE000000000001FF0
FF8000000000003FE000000000001FF0
FF8000000000003FE000000000001FF0
FF8000000000003FE000000000001FF0
FF8000000000003FE000000000001FF0
FF8000000000003FE000000000001FF0
FF8000000000003FE000000000001FF0
FF8000000000003FE000000000001FF0
FF8000000000003FE000000000001FF0
FF8000000000003FE000000000001FF0
FF8000000000003FE000000000001FF0
FF8000000000003FE000000000001FF0
FF8000000000003FE000000000001FF0
FF8000000000003FE000000000001FF0
FF8000000000003FE000000000001FF0
FF8000000000003FE000000000001FF0
FF8000000000003FE000000000001FF0
FF8000000000003FE000000000001FF0
FF8000000000003FE000000000001FF0
FF8000000000003FE000000000001FF0
FF8000000000003FE000000000001FF0
FF8000000000003FE000000000001FF0
FF8000000000003FE000000000001FF0
FF8000000000003FE000000000001FF0
FF8000000000003FE000000000001FF0
FF8000000000003FE000000000001FF0
FF8000000000003FE000000000001FF0
FF8000000000003FE000000000001FF0
FF8000000000003FE000000000001FF0
FF8000000000003FE000000000001FF0
FF8000000000003FE000000000001FF0
FF8000000000003FE000000000001FF0
FF8000000000003FE000000000001FF0
FF8000000000003FE000000000001FF0
FF8000000000003FE000000000001FF0
FF8000000000003FE000000000001FF0
FF8000000000003FE000000000001FF0
FF8000000000003FE000000000001FF0
FF8000000000003FE000000000001FF0
FF8000000000003FE000000000001FF0
FF8000000000003FE000000000001FF0
FF8000000000003FE000000000001FF0
ENDCHAR
STARTCHAR 004E
ENCODING 78
SWIDTH 1114 0
DWIDTH 107 0
BBX 98 80 0 0
BITMAP
0003FFFFFFFFFFFFFFFFF00000
001FFFFFFFFFFFFFFFFFFE0000
007FFFFFFFFFFFFFFFFFFF8000
01FFFFFFFFFFFFFFFFFFFFE000
03FFFFFFFFFFFFFFFFFFFFF000
07FFFFFFFFFFFFFFFFFFFFF800
0FFFFFFFFFFFFFFFFFFFFFFC00
1FFFFFFFFFFFFFFFFFFFFFFE00
1FFFFFFFFFFFFFFFFFFFFFFE00
3FFE00000000000000001FFF00
7FF8000000000000000007FF00
7FF0000000000000000003FF80
7FE0000000000000000001FF80
FFC0000000000000000000FFC0
FFC0000000000000000000FFC0
FF800000000000000000007FC0
FF800000000000000000007FC0
FF800000000000000000007FC0
FF800000000000000000007FC0
FF800000000000000000007FC0
FF800000000000000000007FC0
FF800000000000000000007FC0
FF800000000000000000007FC0
FF800000000000000000007FC0
FF800000000000000000007FC0
FF800000000000000000007FC0
FF800000000000000000007FC0
FF800000000000000000007FC0
FF800000000000000000007FC0
FF800000000000000000007FC0
FF800000000000000000007FC0
FF800000000000000000007FC0
FF800000000000000000007FC0
FF800000000000000000007FC0
FF800000000000000000007FC0
FF800000000000000000007FC0
FF800000000000000000007FC0
FF800000000000000000007FC0
FF800000000000000000007FC0
FF800000000000000000007FC0
FF800000000000000000007FC0
FF800000000000000000007FC0
FF800000000000000000007FC0
FF800000000000000000007FC0
FF800000000000000000007FC0
FF800000000000000000007FC0
FF800000000000000000007FC0
FF800000000000000000007FC0
FF800000000000000000007FC0
FF800000000000000000007FC0
FF800000000000000000007FC0
FF800000000000000000007FC0
FF800000000000000000007FC0
FF800000000000000000007FC0
FF800000000000000000007FC0
FF800000000000000000007FC0
FF800000000000000000007FC0
FF800000000000000000007FC0
FF800000000000000000007FC0
FF800000000000000000007FC0
FF800000000000000000007FC0
FF800000000000000000007FC0
FF800000000000000000007FC0
FF800000000000000000007FC0
FF800000000000000000007FC0
FF800000000000000000007FC0
FF800000000000000000007FC0
FF800000000000000000007FC0
FF800000000000000000007FC0
FF800000000000000000007FC0
FF800000000000000000007FC0
FF800000000000000000007FC0
FF800000000000000000007FC0
FF800000000000000000007FC0
FF800000000000000000007FC0
FF800000000000000000007FC0
FF800000000000000000007FC0
FF800000000000000000007FC0
FF800000000000000000007FC0
FF800000000000000000007FC0
ENDCHAR
STARTCHAR 004F
ENCODING 79
SWIDTH 1114 0
DWIDTH 107 0
BBX 98 80 0 0
BITMAP
0003FFFFFFFFFFFFFFFFF00000
001FFFFFFFFFFFFFFFFFFE0000
007FFFFFFFFFFFFFFFFFFF8000
01FFFFFFFFFFFFFFFFFFFFE000
03FFFFFFFFFFFFFFFFFFFFF000
07FFFFFFFFFFFFFFFFFFFFF800
0FFFFFFFFFFFFFFFFFFFFFFC00
1FFFFFFFFFFFFFFFFFFFFFFE00
1FFFFFFFFFFFFFFFFFFFFFFE00
3FFE00000000000000001FFF00
7FF8000000000000000007FF00
7FF0000000000000000003FF80
7FE0000000000000000001FF80
FFC0000000000000000000FFC0
FFC0000000000000000000FFC0
FF800000000000000000007FC0
FF800000000000000000007FC0
FF800000000000000000007FC0
FF800000000000000000007FC0
FF800000000000000000007FC0
FF800000000000000000007FC0
FF800000000000000000007FC0
FF800000000000000000007FC0
FF800000000000000000007FC0
FF800000000000000000007FC0
FF800000000000000000007FC0
FF800000000000000000007FC0
FF800000000000000000007FC0
FF800000000000000000007FC0
FF800000000000000000007FC0
FF800000000000000000007FC0
FF800000000000000000007FC0
FF800000000000000000007FC0
FF800000000000000000007FC0
FF800000000000000000007FC0
FF800000000000000000007FC0
FF800000000000000000007FC0
FF800000000000000000007FC0
FF800000000000000000007FC0
FF800000000000000000007FC0
FF800000000000000000007FC0
FF800000000000000000007FC0
FF800000000000000000007FC0
FF800000000000000000007FC0
FF800000000000000000007FC0
FF800000000000000000007FC0
FF800000000000000000007FC0
FF800000000000000000007FC0
FF800000000000000000007FC0
FF800000000000000000007FC0
FF800000000000000000007FC0
FF800000000000000000007FC0
FF800000000000000000007FC0
FF800000000000000000007FC0
FF800000000000000000007FC0
FF800000000000000000007FC0
FF800000000000000000007FC0
FF800000000000000000007FC0
FF800000000000000000007FC0
FF800000000000000000007FC0
FF800000000000000000007FC0
FF800000000000000000007FC0
FF800000000000000000007FC0
FF800000000000000000007FC0
FF800000000000000000007FC0
FFC0000000000000000000FFC0
FFC0000000000000000000FF80
7FE0000000000000000001FF80
7FF0000000000000000003FF80
7FF8000000000000000007FF00
3FFE00000000000000001FFF00
3FFFFFFFFFFFFFFFFFFFFFFE00
1FFFFFFFFFFFFFFFFFFFFFFE00
0FFFFFFFFFFFFFFFFFFFFFFC00
07FFFFFFFFFFFFFFFFFFFFF800
03FFFFFFFFFFFFFFFFFFFFF000
01FFFFFFFFFFFFFFFFFFFFE000
007FFFFFFFFFFFFFFFFFFF8000
003FFFFFFFFFFFFFFFFFFE0000
0007FFFFFFFFFFFFFFFFF00000
ENDCHAR
STARTCHAR 0050
ENCODING 80
SWIDTH 1114 0
DWIDTH 107 0
BBX 98 102 0 -22
BITMAP
0003FFFFFFFFFFFFFFFFF80000
001FFFFFFFFFFFFFFFFFFF0000
007FFFFFFFFFFFFFFFFFFF8000
01FFFFFFFFFFFFFFFFFFFFE000
03FFFFFFFFFFFFFFFFFFFFF000
07FFFFFFFFFFFFFFFFFFFFF800
0FFFFFFFFFFFFFFFFFFFFFFC00
1FFFFFFFFFFFFFFFFFFFFFFE00
1FFFFFFFFFFFFFFFFFFFFFFE00
3FFE00000000000000001FFF00
7FF8000000000000000007FF80
7FF0000000000000000003FF80
7FE0000000000000000001FF80
FFC0000000000000000000FFC0
FFC0000000000000000000FFC0
FF800000000000000000007FC0
FF800000000000000000007FC0
FF800000000000000000007FC0
FF800000000000000000007FC0
FF800000000000000000007FC0
FF800000000000000000007FC0
FF800000000000000000007FC0
FF800000000000000000007FC0
FF800000000000000000007FC0
FF800000000000000000007FC0
FF800000000000000000007FC0
FF800000000000000000007FC0
FF800000000000000000007FC0
FF800000000000000000007FC0
FF800000000000000000007FC0
FF800000000000000000007FC0
FF800000000000000000007FC0
FF800000000000000000007FC0
FF800000000000000000007FC0
FF800000000000000000007FC0
FF800000000000000000007FC0
FF800000000000000000007FC0
FF800000000000000000007FC0
FF800000000000000000007FC0
FF800000000000000000007FC0
FF800000000000000000007FC0
FF800000000000000000007FC0
FF800000000000000000007FC0
FF800000000000000000007FC0
FF800000000000000000007FC0
FF800000000000000000007FC0
FF800000000000000000007FC0
FF800000000000000000007FC0
FF800000000000000000007FC0
FF800000000000000000007FC0
FF800000000000000000007FC0
FF800000000000000000007FC0
FF800000000000000000007FC0
FF800000000000000000007FC0
FF800000000000000000007FC0
FF800000000000000000007FC0
FF800000000000000000007FC0
FF800000000000000000007FC0
FF800000000000000000007FC0
FF800000000000000000007FC0
FF800000000000000000007FC0
FF800000000000000000007FC0
FF800000000000000000007FC0
FF800000000000000000007FC0
FF800000000000000000007FC0
FF80000000000000000000FFC0
FF80000000000000000000FFC0
FF80000000000000000001FF80
FF80000000000000000003FF80
FF80000000000000000007FF00
FF8000000000000000000FFF00
FFFFFFFFFFFFFFFFFFFFFFFE00
FFFFFFFFFFFFFFFFFFFFFFFE00
FFFFFFFFFFFFFFFFFFFFFFFC00
FFFFFFFFFFFFFFFFFFFFFFF800
FFFFFFFFFFFFFFFFFFFFFFF000
FFFFFFFFFFFFFFFFFFFFFFE000
FFFFFFFFFFFFFFFFFFFFFF8000
FFFFFFFFFFFFFFFFFFFFFF0000
FFFFFFFFFFFFFFFFFFFFF80000
FF800000000000000000000000
FF800000000000000000000000
FF800000000000000000000000
FF800000000000000000000000
FF800000000000000000000000
FF800000000000000000000000
FF800000000000000000000000
FF800000000000000000000000
FF800000000000000000000000
FF800000000000000000000000
FF800000000000000000000000
FF800000000000000000000000
FF800000000000000000000000
FF800000000000000000000000
FF800000000000000000000000
FF800000000000000000000000
FF800000000000000000000000
FF800000000000000000000000
FF800000000000000000000000
FF800000000000000000000000
FF800000000000000000000000
FF800000000000000000000000
ENDCHAR
STARTCHAR 0051
ENCODING 81
SWIDTH 1114 0
DWIDTH 107 0
BBX 98 80 0 0
BITMAP
0003FFFFFFFFFFFFFFFFF00000
001FFFFFFFFFFFFFFFFFFE0000
007FFFFFFFFFFFFFFFFFFF8000
01FFFFFFFFFFFFFFFFFFFFE000
03FFFFFFFFFFFFFFFFFFFFF000
07FFFFFFFFFFFFFFFFFFFFF800
0FFFFFFFFFFFFFFFFFFFFFFC00
1FFFFFFFFFFFFFFFFFFFFFFE00
1FFFFFFFFFFFFFFFFFFFFFFE00
3FFE00000000000000001FFF00
7FF8000000000000000007FF00
7FF0000000000000000003FF80
7FE0000000000000000001FF80
FFC0000000000000000000FFC0
FFC0000000000000000000FFC0
FF800000000000000000007FC0
FF800000000000000000007FC0
FF800000000000000000007FC0
FF800000000000000000007FC0
FF800000000000000000007FC0
FF800000000000000000007FC0
FF800000000000000000007FC0
FF800000000000000000007FC0
FF800000000000000000007FC0
FF800000000000000000007FC0
FF800000000000000000007FC0
FF800000000000000000007FC0
FF800000000000000000007FC0
FF800000000000000000007FC0
FF800000000000000000007FC0
FF800000000000000000007FC0
FF800000000000000000007FC0
FF800000000000000000007FC0
FF800000000000000000007FC0
FF800000000000000000007FC0
FF800000000000000000007FC0
FF800000000000000000007FC0
FF800000000000000000007FC0
FF800000000000000000007FC0
FF800000000000000000007FC0
FF800000000000000000007FC0
FF800000000000000000007FC0
FF800000000000000000007FC0
FF800000000000000000007FC0
FF800000000000000000007FC0
FF800000000000000000007FC0
FF800000000000000000007FC0
FF800001000000000000007FC0
FF800003800000000000007FC0
FF800007C00000000000007FC0
FF80000FE00000000000007FC0
FF80001FF00000000000007FC0
FF80003FF80000000000007FC0
FF80007FFC0000000000007FC0
FF80003FFE0000000000007FC0
FF80001FFF0000000000007FC0
FF80000FFF8000000000007FC0
FF800007FFC000000000007FC0
FF800003FFE000000000007FC0
FF800001FFF000000000007FC0
FF800000FFF800000000007FC0
FF8000007FFC00000000007FC0
FF8000003FFE00000000007FC0
FF8000001FFF00000000007FC0
FF8000000FFF80000000007FC0
FFC0000007FFC000000000FFC0
FFC0000003FFE000000000FFC0
7FE0000001FFF000000001FF80
7FF0000000FFF800000003FF80
7FF80000007FFC00000007FF00
3FFE0000003FFF0000001FFF00
1FFFFC00001FFFFFFFFFFFFE00
1FFFFC00000FFFFFFFFFFFFE00
0FFFFC000007FFFFFFFFFFFC00
07FFFC000003FFFFFFFFFFF800
03FFFC000001FFFFFFFFFFF000
01FFFC000000FFFFFFFFFFE000
007FFC0000003FFFFFFFFF8000
003FFC0000000FFFFFFFFE0000
0007FC00000001FFFFFFF00000
ENDCHAR
STARTCHAR 0052
ENCODING 82
SWIDTH 1114 0
DWIDTH 107 0
BBX 98 80 0 0
BITMAP
0003FFFFFFFFFFFFFFFFFFFFC0
003FFFFFFFFFFFFFFFFFFFFFC0
007FFFFFFFFFFFFFFFFFFFFFC0
01FFFFFFFFFFFFFFFFFFFFFFC0
03FFFFFFFFFFFFFFFFFFFFFFC0
07FFFFFFFFFFFFFFFFFFFFFFC0
0FFFFFFFFFFFFFFFFFFFFFFFC0
1FFFFFFFFFFFFFFFFFFFFFFFC0
1FFFFFFFFFFFFFFFFFFFFFFFC0
3FFE0000000000000000000000
7FF80000000000000000000000
7FF00000000000000000000000
7FE00000000000000000000000
FFC00000000000000000000000
FFC00000000000000000000000
FF800000000000000000000000
FF800000000000000000000000
FF800000000000000000000000
FF800000000000000000000000
FF800000000000000000000000
FF800000000000000000000000
FF800000000000000000000000
FF800000000000000000000000
FF800000000000000000000000
FF800000000000000000000000
FF800000000000000000000000
FF800000000000000000000000
FF800000000000000000000000
FF800000000000000000000000
FF800000000000000000000000
FF800000000000000000000000
FF800000000000000000000000
FF800000000000000000000000
FF800000000000000000000000
FF800000000000000000000000
FF800000000000000000000000
FF800000000000000000000000
FF800000000000000000000000
FF800000000000000000000000
FF800000000000000000000000
FF800000000000000000000000
FF800000000000000000000000
FF800000000000000000000000
FF800000000000000000000000
FF800000000000000000000000
FF800000000000000000000000
FF800000000000000000000000
FF800000000000000000000000
FF800000000000000000000000
FF800000000000000000000000
FF800000000000000000000000
FF800000000000000000000000
FF800000000000000000000000
FF800000000000000000000000
FF800000000000000000000000
FF800000000000000000000000
FF800000000000000000000000
FF800000000000000000000000
FF800000000000000000000000
FF800000000000000000000000
FF800000000000000000000000
FF800000000000000000000000
FF800000000000000000000000
FF800000000000000000000000
FF800000000000000000000000
FF800000000000000000000000
FF800000000000000000000000
FF800000000000000000000000
FF800000000000000000000000
FF800000000000000000000000
FF800000000000000000000000
FF800000000000000000000000
FF800000000000000000000000
FF800000000000000000000000
FF800000000000000000000000
FF800000000000000000000000
FF800000000000000000000000
FF800000000000000000000000
FF800000000000000000000000
FF800000000000000000000000
ENDCHAR
STARTCHAR 0053
ENCODING 83
SWIDTH 1114 0
DWIDTH 107 0
BBX 98 80 0 0
BITMAP
0003FFFFFFFFFFFFFFFFFFFFC0
001FFFFFFFFFFFFFFFFFFFFFC0
007FFFFFFFFFFFFFFFFFFFFFC0
01FFFFFFFFFFFFFFFFFFFFFFC0
03FFFFFFFFFFFFFFFFFFFFFFC0
07FFFFFFFFFFFFFFFFFFFFFFC0
0FFFFFFFFFFFFFFFFFFFFFFFC0
1FFFFFFFFFFFFFFFFFFFFFFFC0
3FFFFFFFFFFFFFFFFFFFFFFFC0
3FFE0000000000000000000000
7FF80000000000000000000000
7FF00000000000000000000000
7FE00000000000000000000000
FFC00000000000000000000000
FFC00000000000000000000000
FF800000000000000000000000
FF800000000000000000000000
FF800000000000000000000000
FF800000000000000000000000
FF800000000000000000000000
FF800000000000000000000000
FF800000000000000000000000
FF800000000000000000000000
FF800000000000000000000000
FF800000000000000000000000
FF800000000000000000000000
FF800000000000000000000000
FF800000000000000000000000
FF800000000000000000000000
FFC00000000000000000000000
FFC00000000000000000000000
7FE00000000000000000000000
7FF00000000000000000000000
7FF80000000000000000000000
3FFE0000000000000000000000
3FFFFFFFFFFFFFFFFFFFF00000
1FFFFFFFFFFFFFFFFFFFFE0000
0FFFFFFFFFFFFFFFFFFFFF8000
07FFFFFFFFFFFFFFFFFFFFE000
03FFFFFFFFFFFFFFFFFFFFF000
01FFFFFFFFFFFFFFFFFFFFF800
00FFFFFFFFFFFFFFFFFFFFFC00
003FFFFFFFFFFFFFFFFFFFFE00
0007FFFFFFFFFFFFFFFFFFFE00
000000000000000000001FFF00
0000000000000000000007FF00
0000000000000000000003FF80
0000000000000000000001FF80
0000000000000000000000FF80
0000000000000000000000FFC0
00000000000000000000007FC0
00000000000000000000007FC0
00000000000000000000007FC0
00000000000000000000007FC0
00000000000000000000007FC0
00000000000000000000007FC0
00000000000000000000007FC0
00000000000000000000007FC0
00000000000000000000007FC0
00000000000000000000007FC0
00000000000000000000007FC0
00000000000000000000007FC0
00000000000000000000007FC0
00000000000000000000007FC0
00000000000000000000007FC0
0000000000000000000000FFC0
0000000000000000000000FF80
0000000000000000000001FF80
0000000000000000000003FF80
0000000000000000000007FF00
000000000000000000001FFF00
FFFFFFFFFFFFFFFFFFFFFFFE00
FFFFFFFFFFFFFFFFFFFFFFFE00
FFFFFFFFFFFFFFFFFFFFFFFC00
FFFFFFFFFFFFFFFFFFFFFFF800
FFFFFFFFFFFFFFFFFFFFFFF000
FFFFFFFFFFFFFFFFFFFFFFE000
FFFFFFFFFFFFFFFFFFFFFF8000
FFFFFFFFFFFFFFFFFFFFFE0000
FFFFFFFFFFFFFFFFFFFFF00000
ENDCHAR
STARTCHAR 0054
ENCODING 84
SWIDTH 1114 0
DWIDTH 107 0
BBX 98 107 0 0
BITMAP
FF800000000000000000000000
FF800000000000000000000000
FF800000000000000000000000
FF800000000000000000000000
FF800000000000000000000000
FF800000000000000000000000
FF800000000000000000000000
FF800000000000000000000000
FF800000000000000000000000
FF800000000000000000000000
FF800000000000000000000000
FF800000000000000000000000
FF800000000000000000000000
FF800000000000000000000000
FF800000000000000000000000
FF800000000000000000000000
FF800000000000000000000000
FF800000000000000000000000
FF800000000000000000000000
FF800000000000000000000000
FF800000000000000000000000
FF800000000000000000000000
FF800000000000000000000000
FF800000000000000000000000
FF800000000000000000000000
FF800000000000000000000000
FF800000000000000000000000
FFFFFFFFFFFFFFFFFFFFFFFFC0
FFFFFFFFFFFFFFFFFFFFFFFFC0
FFFFFFFFFFFFFFFFFFFFFFFFC0
FFFFFFFFFFFFFFFFFFFFFFFFC0
FFFFFFFFFFFFFFFFFFFFFFFFC0
FFFFFFFFFFFFFFFFFFFFFFFFC0
FFFFFFFFFFFFFFFFFFFFFFFFC0
FFFFFFFFFFFFFFFFFFFFFFFFC0
FFFFFFFFFFFFFFFFFFFFFFFFC0
FF800000000000000000000000
FF800000000000000000000000
FF800000000000000000000000
FF800000000000000000000000
FF800000000000000000000000
FF800000000000000000000000
FF800000000000000000000000
FF800000000000000000000000
FF800000000000000000000000
FF800000000000000000000000
FF800000000000000000000000
FF800000000000000000000000
FF800000000000000000000000
FF800000000000000000000000
FF800000000000000000000000
FF800000000000000000000000
FF800000000000000000000000
FF800000000000000000000000
FF800000000000000000000000
FF800000000000000000000000
FF800000000000000000000000
FF800000000000000000000000
FF800000000000000000000000
FF800000000000000000000000
FF800000000000000000000000
FF800000000000000000000000
FF800000000000000000000000
FF800000000000000000000000
FF800000000000000000000000
FF800000000000000000000000
FF800000000000000000000000
FF800000000000000000000000
FF800000000000000000000000
FF800000000000000000000000
FF800000000000000000000000
FF800000000000000000000000
FF800000000000000000000000
FF800000000000000000000000
FF800000000000000000000000
FF800000000000000000000000
FF800000000000000000000000
FF800000000000000000000000
FF800000000000000000000000
FF800000000000000000000000
FF800000000000000000000000
FF800000000000000000000000
FF800000000000000000000000
FF800000000000000000000000
FF800000000000000000000000
FF800000000000000000000000
FF800000000000000000000000
FF800000000000000000000000
FF800000000000000000000000
FF800000000000000000000000
FF800000000000000000000000
FF800000000000000000000000
FFC00000000000000000000000
FFC00000000000000000000000
7FE00000000000000000000000
7FF00000000000000000000000
7FF80000000000000000000000
3FFE0000000000000000000000
3FFFFFFFFFFFFFFFFFFFFFFFC0
1FFFFFFFFFFFFFFFFFFFFFFFC0
0FFFFFFFFFFFFFFFFFFFFFFFC0
07FFFFFFFFFFFFFFFFFFFFFFC0
03FFFFFFFFFFFFFFFFFFFFFFC0
01FFFFFFFFFFFFFFFFFFFFFFC0
00FFFFFFFFFFFFFFFFFFFFFFC0
003FFFFFFFFFFFFFFFFFFFFFC0
0007FFFFFFFFFFFFFFFFFFFFC0
ENDCHAR
STARTCHAR 0055
ENCODING 85
SWIDTH 1114 0
DWIDTH 107 0
BBX 98 80 0 0
BITMAP
FF800000000000000000007FC0
FF800000000000000000007FC0
FF800000000000000000007FC0
FF800000000000000000007FC0
FF800000000000000000007FC0
FF800000000000000000007FC0
FF800000000000000000007FC0
FF800000000000000000007FC0
FF800000000000000000007FC0
FF800000000000000000007FC0
FF800000000000000000007FC0
FF800000000000000000007FC0
FF800000000000000000007FC0
FF800000000000000000007FC0
FF800000000000000000007FC0
FF800000000000000000007FC0
FF800000000000000000007FC0
FF800000000000000000007FC0
FF800000000000000000007FC0
FF800000000000000000007FC0
FF800000000000000000007FC0
FF800000000000000000007FC0
FF800000000000000000007FC0
FF800000000000000000007FC0
FF800000000000000000007FC0
FF800000000000000000007FC0
FF800000000000000000007FC0
FF800000000000000000007FC0
FF800000000000000000007FC0
FF800000000000000000007FC0
FF800000000000000000007FC0
FF800000000000000000007FC0
FF800000000000000000007FC0
FF800000000000000000007FC0
FF800000000000000000007FC0
FF800000000000000000007FC0
FF800000000000000000007FC0
FF800000000000000000007FC0
FF800000000000000000007FC0
FF800000000000000000007FC0
FF800000000000000000007FC0
FF800000000000000000007FC0
FF800000000000000000007FC0
FF800000000000000000007FC0
FF800000000000000000007FC0
FF800000000000000000007FC0
FF800000000000000000007FC0
FF800000000000000000007FC0
FF800000000000000000007FC0
FF800000000000000000007FC0
FF800000000000000000007FC0
FF800000000000000000007FC0
FF800000000000000000007FC0
FF800000000000000000007FC0
FF800000000000000000007FC0
FF800000000000000000007FC0
FF800000000000000000007FC0
FF800000000000000000007FC0
FF800000000000000000007FC0
FF800000000000000000007FC0
FF800000000000000000007FC0
FF800000000000000000007FC0
FF800000000000000000007FC0
FF800000000000000000007FC0
FF800000000000000000007FC0
FFC0000000000000000000FFC0
FFC0000000000000000000FFC0
7FE0000000000000000001FF80
7FF0000000000000000003FF80
7FF8000000000000000007FF00
3FFE00000000000000001FFF00
3FFFFFFFFFFFFFFFFFFFFFFE00
1FFFFFFFFFFFFFFFFFFFFFFE00
0FFFFFFFFFFFFFFFFFFFFFFC00
07FFFFFFFFFFFFFFFFFFFFF800
03FFFFFFFFFFFFFFFFFFFFF000
01FFFFFFFFFFFFFFFFFFFFE000
007FFFFFFFFFFFFFFFFFFF8000
003FFFFFFFFFFFFFFFFFFF0000
0007FFFFFFFFFFFFFFFFF00000
ENDCHAR
STARTCHAR 0056
ENCODING 86
SWIDTH 1114 0
DWIDTH 107 0
BBX 98 80 0 0
BITMAP
FF800000000000000000007FC0
FF800000000000000000007FC0
FF800000000000000000007FC0
FF800000000000000000007FC0
FF800000000000000000007FC0
FF800000000000000000007FC0
FF800000000000000000007FC0
FF800000000000000000007FC0
FF800000000000000000007FC0
FF800000000000000000007FC0
FF800000000000000000007FC0
FF800000000000000000007FC0
FF800000000000000000007FC0
FF800000000000000000007FC0
FF800000000000000000007FC0
FF800000000000000000007FC0
FF800000000000000000007FC0
FF800000000000000000007FC0
FF800000000000000000007FC0
FF800000000000000000007FC0
FF800000000000000000007FC0
FF800000000000000000007FC0
FF800000000000000000007FC0
FF800000000000000000007FC0
FFC00000000000000000007FC0
FFC00000000000000000007FC0
7FE00000000000000000007FC0
7FF00000000000000000007FC0
3FF80000000000000000007FC0
3FFC0000000000000000007FC0
1FFE0000000000000000007FC0
1FFF0000000000000000007FC0
0FFF8000000000000000007FC0
07FFC000000000000000007FC0
03FFE000000000000000007FC0
01FFF000000000000000007FC0
00FFF800000000000000007FC0
007FFC00000000000000007FC0
003FFE00000000000000007FC0
001FFF00000000000000007FC0
000FFF80000000000000007FC0
0007FFC0000000000000007FC0
0003FFE0000000000000007FC0
0001FFF0000000000000007FC0
0000FFF8000000000000007FC0
00007FFC000000000000007FC0
00003FFE000000000000007FC0
00001FFF000000000000007FC0
00000FFF800000000000007FC0
000007FFC00000000000007FC0
000003FFE00000000000007FC0
000001FFF00000000000007FC0
000000FFF80000000000007FC0
0000007FFC0000000000007FC0
0000003FFE0000000000007FC0
0000001FFF0000000000007FC0
0000000FFF8000000000007FC0
00000007FFC000000000007FC0
00000003FFE000000000007FC0
00000001FFF000000000007FC0
00000000FFF800000000007FC0
000000007FFC00000000007FC0
000000003FFE00000000007FC0
000000001FFF00000000007FC0
000000000FFF80000000007FC0
0000000007FFC000000000FFC0
0000000003FFE000000000FFC0
0000000001FFF000000001FF80
0000000000FFF800000003FF80
00000000007FFC00000007FF00
00000000003FFF0000001FFF00
00000000001FFFFFFFFFFFFE00
00000000000FFFFFFFFFFFFE00
000000000007FFFFFFFFFFFC00
000000000003FFFFFFFFFFF800
000000000001FFFFFFFFFFF000
000000000000FFFFFFFFFFE000
0000000000007FFFFFFFFF8000
0000000000001FFFFFFFFE0000
00000000000001FFFFFFF00000
ENDCHAR
STARTCHAR 0057
ENCODING 87
SWIDTH 1385 0
DWIDTH 133 0
BBX 125 80 0 0
BITMAP
FF8000000000003FE000000000000FF8
FF8000000000003FE000000000000FF8
FF8000000000003FE000000000000FF8
FF8000000000003FE000000000000FF8
FF8000000000003FE000000000000FF8
FF8000000000003FE000000000000FF8
FF8000000000003FE000000000000FF8
FF8000000000003FE000000000000FF8
FF8000000000003FE000000000000FF8
FF8000000000003FE000000000000FF8
FF8000000000003FE000000000000FF8
FF8000000000003FE000000000000FF8
FF8000000000003FE000000000000FF8
FF8000000000003FE000000000000FF8
FF8000000000003FE000000000000FF8
FF8000000000003FE000000000000FF8
FF8000000000003FE000000000000FF8
FF8000000000003FE000000000000FF8
FF8000000000003FE000000000000FF8
FF8000000000003FE000000000000FF8
FF8000000000003FE000000000000FF8
FF8000000000003FE000000000000FF8
FF8000000000003FE000000000000FF8
FF8000000000003FE000000000000FF8
FF8000000000003FE000000000000FF8
FF8000000000003FE000000000000FF8
FF8000000000003FE000000000000FF8
FF8000000000003FE000000000000FF8
FF8000000000003FE000000000000FF8
FF8000000000003FE000000000000FF8
FF8000000000003FE000000000000FF8
FF8000000000003FE000000000000FF8
FF8000000000003FE000000000000FF8
FF8000000000003FE000000000000FF8
FF8000000000003FE000000000000FF8
FF8000000000003FE000000000000FF8
FF8000000000003FE000000000000FF8
FF8000000000003FE000000000000FF8
FF8000000000003FE000000000000FF8
FF8000000000003FE000000000000FF8
FF8000000000003FE000000000000FF8
FF8000000000003FE000000000000FF8
FF8000000000003FE000000000000FF8
FF8000000000003FE000000000000FF8
FF8000000000003FE000000000000FF8
FF8000000000003FE000000000000FF8
FF8000000000003FE000000000000FF8
FF8000000000003FE000000000000FF8
FF8000000000003FE000000000000FF8
FF8000000000003FE000000000000FF8
FF8000000000003FE000000000000FF8
FF8000000000003FE000000000000FF8
FF8000000000003FE000000000000FF8
FF8000000000003FE000000000000FF8
FF8000000000003FE000000000000FF8
FF8000000000003FE000000000000FF8
FF8000000000003FE000000000000FF8
FF8000000000003FE000000000000FF8
FF8000000000003FE000000000000FF8
FF8000000000003FE000000000000FF8
FF8000000000003FE000000000000FF8
FF8000000000003FE000000000000FF8
FF8000000000003FE000000000000FF8
FF8000000000003FE000000000000FF8
FF8000000000003FE000000000000FF8
FFC000000000003FE000000000001FF8
FFC000000000003FE000000000001FF8
7FE000000000003FE000000000003FF0
7FF000000000003FE000000000007FF0
7FF800000000003FE00000000000FFE0
3FFE00000000003FE00000000003FFE0
3FFFFFFFFFFFFFFFFFFFFFFFFFFFFFC0
1FFFFFFFFFFFFFFFFFFFFFFFFFFFFFC0
0FFFFFFFFFFFFFFFFFFFFFFFFFFFFF80
07FFFFFFFFFFFFFFFFFFFFFFFFFFFF00
03FFFFFFFFFFFFFFFFFFFFFFFFFFFE00
01FFFFFFFFFFFFFFFFFFFFFFFFFFFC00
007FFFFFFFFFFFFFFFFFFFFFFFFFF000
003FFFFFFFFFFFFFFFFFFFFFFFFFC000
0003FFFFFFFFFFFFFFFFFFFFFFFE0000
ENDCHAR
STARTCHAR 0058
ENCODING 88
SWIDTH 1114 0
DWIDTH 107 0
BBX 98 80 0 0
BITMAP
FFF0000000000000000003FFC0
FFFE00000000000000001FFFC0
FFFF80000000000000007FFFC0
FFFFE000000000000000FFFFC0
FFFFF000000000000003FFFFC0
FFFFF800000000000007FFFFC0
FFFFFC0000000000000FFFFFC0
FFFFFE0000000000001FFFFFC0
FFFFFF0000000000003FFFFFC0
001FFF8000000000007FFE0000
0007FFC00000000000FFF80000
0003FFE00000000001FFF00000
0001FFF00000000003FFE00000
0000FFF80000000007FFC00000
00007FFC000000000FFF800000
00003FFE000000001FFF000000
00001FFF000000003FFE000000
00000FFF800000007FFC000000
000007FFC0000000FFF8000000
000003FFE0000001FFF0000000
000001FFF0000003FFE0000000
000000FFF8000007FFC0000000
0000007FFC00000FFF80000000
0000003FFE00001FFF00000000
0000001FFF00003FFE00000000
0000000FFF80007FFC00000000
00000007FFC000FFF800000000
00000003FFE001FFF000000000
00000001FFF003FFE000000000
00000000FFF807FFC000000000
000000007FFC0FFF8000000000
000000003FFE1FFF0000000000
000000001FFF3FFE0000000000
000000000FFFFFFC0000000000
0000000007FFFFF80000000000
0000000003FFFFF00000000000
0000000003FFFFE00000000000
0000000001FFFFC00000000000
0000000000FFFF800000000000
00000000007FFF000000000000
00000000003FFF000000000000
00000000007FFF800000000000
0000000000FFFFC00000000000
0000000001FFFFE00000000000
0000000003FFFFF00000000000
0000000007FFFFF80000000000
000000000FFFFFFC0000000000
000000001FFF3FFE0000000000
000000003FFE1FFF0000000000
000000007FFC0FFF8000000000
00000000FFF807FFC000000000
00000001FFF003FFE000000000
00000003FFE001FFF000000000
00000007FFC000FFF800000000
0000000FFF80007FFC00000000
0000001FFF00003FFE00000000
0000003FFE00001FFF00000000
0000007FFC00000FFF80000000
000000FFF8000007FFC0000000
000001FFF0000003FFE0000000
000003FFE0000001FFF0000000
000007FFC0000000FFF8000000
00000FFF800000007FFC000000
00001FFF000000003FFE000000
00003FFE000000001FFF000000
00007FFC000000000FFF800000
0000FFF80000000007FFC00000
0001FFF00000000003FFE00000
0003FFE00000000001FFF00000
0007FFC00000000000FFF80000
001FFF8000000000007FFE0000
FFFFFF0000000000003FFFFFC0
FFFFFE0000000000001FFFFFC0
FFFFFC0000000000000FFFFFC0
FFFFF800000000000007FFFFC0
FFFFF000000000000003FFFFC0
FFFFE000000000000001FFFFC0
FFFF80000000000000007FFFC0
FFFE00000000000000001FFFC0
FFF0000000000000000003FFC0
ENDCHAR
STARTCHAR 0059
ENCODING 89
SWIDTH 1114 0
DWIDTH 107 0
BBX 98 102 0 -22
BITMAP
FF800000000000000000007FC0
FF800000000000000000007FC0
FF800000000000000000007FC0
FF800000000000000000007FC0
FF800000000000000000007FC0
FF800000000000000000007FC0
FF800000000000000000007FC0
FF800000000000000000007FC0
FF800000000000000000007FC0
FF800000000000000000007FC0
FF800000000000000000007FC0
FF800000000000000000007FC0
FF800000000000000000007FC0
FF800000000000000000007FC0
FF800000000000000000007FC0
FF800000000000000000007FC0
FF800000000000000000007FC0
FF800000000000000000007FC0
FF800000000000000000007FC0
FF800000000000000000007FC0
FF800000000000000000007FC0
FF800000000000000000007FC0
FF800000000000000000007FC0
FF800000000000000000007FC0
FFC00000000000000000007FC0
FFC00000000000000000007FC0
7FE00000000000000000007FC0
7FF00000000000000000007FC0
3FF80000000000000000007FC0
3FFC0000000000000000007FC0
1FFE0000000000000000007FC0
1FFF0000000000000000007FC0
0FFF8000000000000000007FC0
07FFC000000000000000007FC0
03FFE000000000000000007FC0
01FFF000000000000000007FC0
00FFF800000000000000007FC0
007FFC00000000000000007FC0
003FFE00000000000000007FC0
001FFF00000000000000007FC0
000FFF80000000000000007FC0
0007FFC0000000000000007FC0
0003FFE0000000000000007FC0
0001FFF0000000000000007FC0
0000FFF8000000000000007FC0
00007FFC000000000000007FC0
00003FFE000000000000007FC0
00001FFF000000000000007FC0
00000FFF800000000000007FC0
000007FFC00000000000007FC0
000003FFE00000000000007FC0
000001FFF00000000000007FC0
000000FFF80000000000007FC0
0000007FFC0000000000007FC0
0000003FFE0000000000007FC0
0000001FFF0000000000007FC0
0000000FFF8000000000007FC0
00000007FFC000000000007FC0
00000003FFE000000000007FC0
00000001FFF000000000007FC0
00000000FFF800000000007FC0
000000007FFC00000000007FC0
000000003FFE00000000007FC0
000000001FFF00000000007FC0
000000000FFF00000000007FC0
0000000007FF80000000007FC0
0000000003FFC0000000007FC0
0000000001FFE0000000007FC0
0000000000FFF0000000007FC0
00000000007FFC000000007FC0
00000000003FFE000000007FC0
00000000001FFFFFFFFFFFFFC0
00000000000FFFFFFFFFFFFFC0
000000000007FFFFFFFFFFFFC0
000000000003FFFFFFFFFFFFC0
000000000001FFFFFFFFFFFFC0
000000000000FFFFFFFFFFFFC0
0000000000007FFFFFFFFFFFC0
0000000000001FFFFFFFFFFFC0
00000000000003FFFFFFFFFFC0
00000000000000000000007FC0
00000000000000000000007FC0
00000000000000000000007FC0
00000000000000000000007FC0
00000000000000000000007FC0
00000000000000000000007FC0
00000000000000000000007FC0
00000000000000000000007FC0
00000000000000000000007FC0
00000000000000000000007FC0
00000000000000000000007FC0
00000000000000000000007FC0
00000000000000000000007FC0
00000000000000000000007FC0
00000000000000000000007FC0
00000000000000000000007FC0
00000000000000000000007FC0
00000000000000000000007FC0
00000000000000000000007FC0
00000000000000000000007FC0
00000000000000000000007FC0
00000000000000000000007FC0
ENDCHAR
STARTCHAR 005A
ENCODING 90
SWIDTH 1114 0
DWIDTH 107 0
BBX 98 80 0 0
BITMAP
FFFFFFFFFFFFFFFFFFFFF00000
FFFFFFFFFFFFFFFFFFFFFE0000
FFFFFFFFFFFFFFFFFFFFFF8000
FFFFFFFFFFFFFFFFFFFFFFE000
FFFFFFFFFFFFFFFFFFFFFFF000
FFFFFFFFFFFFFFFFFFFFFFF800
FFFFFFFFFFFFFFFFFFFFFFFC00
FFFFFFFFFFFFFFFFFFFFFFFE00
FFFFFFFFFFFFFFFFFFFFFFFE00
000000000000000000001FFF00
0000000000000000000007FF80
0000000000000000000003FF80
0000000000000000000001FF80
0000000000000000000000FFC0
0000000000000000000000FFC0
00000000000000000000007FC0
00000000000000000000007FC0
00000000000000000000007FC0
00000000000000000000007FC0
00000000000000000000007FC0
00000000000000000000007FC0
00000000000000000000007FC0
00000000000000000000007FC0
00000000000000000000007FC0
00000000000000000000007FC0
00000000000000000000007FC0
00000000000000000000007FC0
00000000000000000000007FC0
00000000000000000000007FC0
0000000000000000000000FFC0
0000000000000000000000FFC0
0000000000000000000001FF80
0000000000000000000003FF80
0000000000000000000007FF80
000000000000000000001FFF00
0003FFFFFFFFFFFFFFFFFFFF00
003FFFFFFFFFFFFFFFFFFFFE00
007FFFFFFFFFFFFFFFFFFFFC00
01FFFFFFFFFFFFFFFFFFFFF800
03FFFFFFFFFFFFFFFFFFFFF000
07FFFFFFFFFFFFFFFFFFFFE000
0FFFFFFFFFFFFFFFFFFFFF8000
1FFFFFFFFFFFFFFFFFFFFF0000
1FFFFFFFFFFFFFFFFFFFF80000
3FFE0000000000000000000000
3FF80000000000000000000000
7FF00000000000000000000000
7FE00000000000000000000000
FFC00000000000000000000000
FFC00000000000000000000000
FF800000000000000000000000
FF800000000000000000000000
FF800000000000000000000000
FF800000000000000000000000
FF800000000000000000000000
FF800000000000000000000000
FF800000000000000000000000
FF800000000000000000000000
FF800000000000000000000000
FF800000000000000000000000
FF800000000000000000000000
FF800000000000000000000000
FF800000000000000000000000
FF800000000000000000000000
FF800000000000000000000000
FFC00000000000000000000000
FFC00000000000000000000000
7FE00000000000000000000000
7FF00000000000000000000000
3FF80000000000000000000000
3FFE0000000000000000000000
1FFFFFFFFFFFFFFFFFFFFFFFC0
1FFFFFFFFFFFFFFFFFFFFFFFC0
0FFFFFFFFFFFFFFFFFFFFFFFC0
07FFFFFFFFFFFFFFFFFFFFFFC0
03FFFFFFFFFFFFFFFFFFFFFFC0
01FFFFFFFFFFFFFFFFFFFFFFC0
007FFFFFFFFFFFFFFFFFFFFFC0
001FFFFFFFFFFFFFFFFFFFFFC0
0003FFFFFFFFFFFFFFFFFFFFC0
ENDCHAR
STARTCHAR 005B
ENCODING 91
SWIDTH 833 0
DWIDTH 80 0
BBX 0 0 0 0
BITMAP
ENDCHAR
STARTCHAR 005C
ENCODING 92
SWIDTH 968 0
DWIDTH 93 0
BBX 92 80 0 -1
BITMAP
FFF800000000000000000000
7FFC00000000000000000000
3FFE00000000000000000000
1FFF00000000000000000000
0FFF80000000000000000000
07FFC0000000000000000000
03FFE0000000000000000000
01FFF0000000000000000000
00FFF8000000000000000000
007FFC000000000000000000
003FFE000000000000000000
001FFF000000000000000000
000FFF800000000000000000
0007FFC00000000000000000
0003FFE00000000000000000
0001FFF00000000000000000
0000FFF80000000000000000
00007FFC0000000000000000
00003FFE0000000000000000
00001FFF0000000000000000
00000FFF8000000000000000
000007FFC000000000000000
000003FFE000000000000000
000001FFF000000000000000
000000FFF800000000000000
0000007FFC00000000000000
0000003FFE00000000000000
0000001FFF00000000000000
0000000FFF80000000000000
00000007FFC0000000000000
00000003FFE0000000000000
00000001FFF0000000000000
00000000FFF8000000000000
000000007FFC000000000000
000000003FFE000000000000
000000001FFF000000000000
000000000FFF800000000000
0000000007FFC00000000000
0000000003FFE00000000000
0000000001FFF00000000000
0000000000FFF80000000000
00000000007FFC0000000000
00000000003FFE0000000000
00000000001FFF0000000000
00000000000FFF8000000000
000000000007FFC000000000
000000000003FFE000000000
000000000001FFF000000000
000000000000FFF800000000
0000000000007FFC00000000
0000000000003FFE00000000
0000000000001FFF00000000
0000000000000FFF80000000
00000000000007FFC0000000
00000000000003FFE0000000
00000000000001FFF0000000
00000000000000FFF8000000
000000000000007FFC000000
000000000000003FFE000000
000000000000001FFF000000
000000000000000FFF800000
0000000000000007FFC00000
0000000000000003FFE00000
0000000000000001FFF00000
0000000000000000FFF80000
00000000000000007FFC0000
00000000000000003FFE0000
00000000000000001FFF0000
00000000000000000FFF8000
000000000000000007FFC000
000000000000000003FFE000
000000000000000001FFF000
000000000000000000FFF800
0000000000000000007FFC00
0000000000000000003FFE00
0000000000000000001FFF00
0000000000000000000FFF80
00000000000000000007FFC0
00000000000000000003FFE0
00000000000000000001FFF0
ENDCHAR
STARTCHAR 005D
ENCODING 93
SWIDTH 833 0
DWIDTH 80 0
BBX 0 0 0 0
BITMAP
ENDCHAR
STARTCHAR 005E
ENCODING 94
SWIDTH 833 0
DWIDTH 80 0
BBX 0 0 0 0
BITMAP
ENDCHAR
STARTCHAR 005F
ENCODING 95
SWIDTH 583 0
DWIDTH 56 0
BBX 47 9 0 0
BITMAP
FFFFFFFFFFFE
FFFFFFFFFFFE
FFFFFFFFFFFE
FFFFFFFFFFFE
FFFFFFFFFFFE
FFFFFFFFFFFE
FFFFFFFFFFFE
FFFFFFFFFFFE
FFFFFFFFFFFE
ENDCHAR
STARTCHAR 0061
ENCODING 97
SWIDTH 1114 0
DWIDTH 107 0
BBX 98 80 0 0
BITMAP
FFFFFFFFFFFFFFFFFFFFF00000
FFFFFFFFFFFFFFFFFFFFFE0000
FFFFFFFFFFFFFFFFFFFFFF8000
FFFFFFFFFFFFFFFFFFFFFFE000
FFFFFFFFFFFFFFFFFFFFFFF000
FFFFFFFFFFFFFFFFFFFFFFF800
FFFFFFFFFFFFFFFFFFFFFFFC00
FFFFFFFFFFFFFFFFFFFFFFFE00
FFFFFFFFFFFFFFFFFFFFFFFE00
000000000007FFC000001FFF00
00000000000FFF80000007FF00
00000000001FFF00000003FF80
00000000003FFE00000001FF80
00000000007FFC00000000FFC0
0000000000FFF800000000FFC0
0000000001FFF0000000007FC0
0000000003FFE0000000007FC0
0000000007FFC0000000007FC0
000000000FFF80000000007FC0
000000001FFF00000000007FC0
000000003FFE00000000007FC0
000000007FFC00000000007FC0
00000000FFF800000000007FC0
00000001FFF000000000007FC0
00000003FFE000000000007FC0
00000007FFC000000000007FC0
0000000FFF8000000000007FC0
0000001FFF0000000000007FC0
0000003FFE0000000000007FC0
0000007FFC0000000000007FC0
000000FFF80000000000007FC0
000001FFF00000000000007FC0
000003FFE00000000000007FC0
000007FFC00000000000007FC0
00000FFF800000000000007FC0
00001FFF000000000000007FC0
00003FFE000000000000007FC0
00007FFC000000000000007FC0
0000FFF8000000000000007FC0
0001FFF0000000000000007FC0
0003FFE0000000000000007FC0
0007FFC0000000000000007FC0
000FFF80000000000000007FC0
001FFF00000000000000007FC0
003FFE00000000000000007FC0
007FFC00000000000000007FC0
00FFF800000000000000007FC0
01FFF000000000000000007FC0
03FFE000000000000000007FC0
07FFC000000000000000007FC0
0FFF8000000000000000007FC0
0FFF0000000000000000007FC0
1FFE0000000000000000007FC0
3FFC0000000000000000007FC0
3FF80000000000000000007FC0
7FF00000000000000000007FC0
7FE00000000000000000007FC0
7FC00000000000000000007FC0
FFC00000000000000000007FC0
FF800000000000000000007FC0
FF800000000000000000007FC0
FF800000000000000000007FC0
FF800000000000000000007FC0
FF800000000000000000007FC0
FF800000000000000000007FC0
FFC0000000000000000000FFC0
FFC0000000000000000000FFC0
7FE0000000000000000001FF80
7FF0000000000000000003FF80
7FF8000000000000000007FF00
3FFE00000000000000001FFF00
3FFFFFFFFFFFFFFFFFFFFFFE00
1FFFFFFFFFFFFFFFFFFFFFFE00
0FFFFFFFFFFFFFFFFFFFFFFC00
07FFFFFFFFFFFFFFFFFFFFF800
03FFFFFFFFFFFFFFFFFFFFF000
01FFFFFFFFFFFFFFFFFFFFE000
007FFFFFFFFFFFFFFFFFFF8000
003FFFFFFFFFFFFFFFFFFF0000
0007FFFFFFFFFFFFFFFFF00000
ENDCHAR
STARTCHAR 0062
ENCODING 98
SWIDTH 1114 0
DWIDTH 107 0
BBX 98 107 0 0
BITMAP
FF800000000000000000000000
FF800000000000000000000000
FF800000000000000000000000
FF800000000000000000000000
FF800000000000000000000000
FF800000000000000000000000
FF800000000000000000000000
FF800000000000000000000000
FF800000000000000000000000
FF800000000000000000000000
FF800000000000000000000000
FF800000000000000000000000
FF800000000000000000000000
FF800000000000000000000000
FF800000000000000000000000
FF800000000000000000000000
FF800000000000000000000000
FF800000000000000000000000
FF800000000000000000000000
FF800000000000000000000000
FF800000000000000000000000
FF800000000000000000000000
FF800000000000000000000000
FF800000000000000000000000
FF800000000000000000000000
FF800000000000000000000000
FF800000000000000000000000
FFFFFFFFFFFFFFFFFFC0000000
FFFFFFFFFFFFFFFFFFF8000000
FFFFFFFFFFFFFFFFFFFE000000
FFFFFFFFFFFFFFFFFFFF800000
FFFFFFFFFFFFFFFFFFFFC00000
FFFFFFFFFFFFFFFFFFFFE00000
FFFFFFFFFFFFFFFFFFFFF00000
FFFFFFFFFFFFFFFFFFFFF80000
FFFFFFFFFFFFFFFFFFFFFC0000
FF80000000000000007FFE0000
FF80000000000000001FFF0000
FF80000000000000000FFF8000
FF800000000000000007FFC000
FF800000000000000003FFE000
FF800000000000000001FFF000
FF800000000000000000FFF800
FF8000000000000000007FFC00
FF8000000000000000003FFE00
FF8000000000000000001FFE00
FF8000000000000000000FFF00
FF80000000000000000007FF00
FF80000000000000000003FF80
FF80000000000000000001FF80
FF80000000000000000000FFC0
FF80000000000000000000FFC0
FF800000000000000000007FC0
FF800000000000000000007FC0
FF800000000000000000007FC0
FF800000000000000000007FC0
FF800000000000000000007FC0
FF800000000000000000007FC0
FF800000000000000000007FC0
FF800000000000000000007FC0
FF800000000000000000007FC0
FF800000000000000000007FC0
FF800000000000000000007FC0
FF800000000000000000007FC0
FF800000000000000000007FC0
FF800000000000000000007FC0
FF800000000000000000007FC0
FF800000000000000000007FC0
FF800000000000000000007FC0
FF800000000000000000007FC0
FF800000000000000000007FC0
FF800000000000000000007FC0
FF800000000000000000007FC0
FF800000000000000000007FC0
FF800000000000000000007FC0
FF800000000000000000007FC0
FF800000000000000000007FC0
FF800000000000000000007FC0
FF800000000000000000007FC0
FF800000000000000000007FC0
FF800000000000000000007FC0
FF800000000000000000007FC0
FF800000000000000000007FC0
FF800000000000000000007FC0
FF800000000000000000007FC0
FF800000000000000000007FC0
FF800000000000000000007FC0
FF800000000000000000007FC0
FF800000000000000000007FC0
FF800000000000000000007FC0
FF800000000000000000007FC0
FF800000000000000000007FC0
FFC0000000000000000000FFC0
FFC0000000000000000000FFC0
7FE0000000000000000001FF80
7FF0000000000000000003FF80
7FF8000000000000000007FF00
3FFE00000000000000001FFF00
1FFFFFFFFFFFFFFFFFFFFFFE00
1FFFFFFFFFFFFFFFFFFFFFFE00
0FFFFFFFFFFFFFFFFFFFFFFC00
07FFFFFFFFFFFFFFFFFFFFF800
03FFFFFFFFFFFFFFFFFFFFF000
01FFFFFFFFFFFFFFFFFFFFE000
007FFFFFFFFFFFFFFFFFFF8000
003FFFFFFFFFFFFFFFFFFF0000
0007FFFFFFFFFFFFFFFFF00000
ENDCHAR
STARTCHAR 0063
ENCODING 99
SWIDTH 1114 0
DWIDTH 107 0
BBX 98 80 0 0
BITMAP
0003FFFFFFFFFFFFFFFFFFFFC0
003FFFFFFFFFFFFFFFFFFFFFC0
007FFFFFFFFFFFFFFFFFFFFFC0
01FFFFFFFFFFFFFFFFFFFFFFC0
03FFFFFFFFFFFFFFFFFFFFFFC0
07FFFFFFFFFFFFFFFFFFFFFFC0
0FFFFFFFFFFFFFFFFFFFFFFFC0
1FFFFFFFFFFFFFFFFFFFFFFFC0
1FFFFFFFFFFFFFFFFFFFFFFFC0
3FFE0000000000000000000000
7FF80000000000000000000000
7FF00000000000000000000000
7FE00000000000000000000000
FFC00000000000000000000000
FFC00000000000000000000000
FF800000000000000000000000
FF800000000000000000000000
FF800000000000000000000000
FF800000000000000000000000
FF800000000000000000000000
FF800000000000000000000000
FF800000000000000000000000
FF800000000000000000000000
FF800000000000000000000000
FF800000000000000000000000
FF800000000000000000000000
FF800000000000000000000000
FF800000000000000000000000
FF800000000000000000000000
FF800000000000000000000000
FF800000000000000000000000
FF800000000000000000000000
FF800000000000000000000000
FF800000000000000000000000
FF800000000000000000000000
FF800000000000000000000000
FF800000000000000000000000
FF800000000000000000000000
FF800000000000000000000000
FF800000000000000000000000
FF800000000000000000000000
FF800000000000000000000000
FF800000000000000000000000
FF800000000000000000000000
FF800000000000000000000000
FF800000000000000000000000
FF800000000000000000000000
FF800000000000000000000000
FF800000000000000000000000
FF800000000000000000000000
FF800000000000000000000000
FF800000000000000000000000
FF800000000000000000000000
FF800000000000000000000000
FF800000000000000000000000
FF800000000000000000000000
FF800000000000000000000000
FF800000000000000000000000
FF800000000000000000000000
FF800000000000000000000000
FF800000000000000000000000
FF800000000000000000000000
FF800000000000000000000000
FF800000000000000000000000
FF800000000000000000000000
FFC00000000000000000000000
FFC00000000000000000000000
7FE00000000000000000000000
7FF00000000000000000000000
7FF80000000000000000000000
3FFE0000000000000000000000
3FFFFFFFFFFFFFFFFFFFFFFFC0
1FFFFFFFFFFFFFFFFFFFFFFFC0
0FFFFFFFFFFFFFFFFFFFFFFFC0
07FFFFFFFFFFFFFFFFFFFFFFC0
03FFFFFFFFFFFFFFFFFFFFFFC0
01FFFFFFFFFFFFFFFFFFFFFFC0
007FFFFFFFFFFFFFFFFFFFFFC0
003FFFFFFFFFFFFFFFFFFFFFC0
0007FFFFFFFFFFFFFFFFFFFFC0
ENDCHAR
STARTCHAR 0064
ENCODING 100
SWIDTH 1114 0
DWIDTH 107 0
BBX 98 107 0 0
BITMAP
00000000000000000000007FC0
00000000000000000000007FC0
00000000000000000000007FC0
00000000000000000000007FC0
00000000000000000000007FC0
00000000000000000000007FC0
00000000000000000000007FC0
00000000000000000000007FC0
00000000000000000000007FC0
00000000000000000000007FC0
00000000000000000000007FC0
00000000000000000000007FC0
00000000000000000000007FC0
00000000000000000000007FC0
00000000000000000000007FC0
00000000000000000000007FC0
00000000000000000000007FC0
00000000000000000000007FC0
00000000000000000000007FC0
00000000000000000000007FC0
00000000000000000000007FC0
00000000000000000000007FC0
00000000000000000000007FC0
00000000000000000000007FC0
00000000000000000000007FC0
00000000000000000000007FC0
00000000000000000000007FC0
000000FFFFFFFFFFFFFFFFFFC0
000007FFFFFFFFFFFFFFFFFFC0
00001FFFFFFFFFFFFFFFFFFFC0
00007FFFFFFFFFFFFFFFFFFFC0
0000FFFFFFFFFFFFFFFFFFFFC0
0001FFFFFFFFFFFFFFFFFFFFC0
0003FFFFFFFFFFFFFFFFFFFFC0
0007FFFFFFFFFFFFFFFFFFFFC0
000FFFFFFFFFFFFFFFFFFFFFC0
001FFF80000000000000007FC0
003FFE00000000000000007FC0
007FFC00000000000000007FC0
00FFF800000000000000007FC0
01FFF000000000000000007FC0
03FFE000000000000000007FC0
07FFC000000000000000007FC0
0FFF8000000000000000007FC0
1FFF0000000000000000007FC0
1FFE0000000000000000007FC0
3FFC0000000000000000007FC0
7FF80000000000000000007FC0
7FF00000000000000000007FC0
7FE00000000000000000007FC0
FFC00000000000000000007FC0
FFC00000000000000000007FC0
FF800000000000000000007FC0
FF800000000000000000007FC0
FF800000000000000000007FC0
FF800000000000000000007FC0
FF800000000000000000007FC0
FF800000000000000000007FC0
FF800000000000000000007FC0
FF800000000000000000007FC0
FF800000000000000000007FC0
FF800000000000000000007FC0
FF800000000000000000007FC0
FF800000000000000000007FC0
FF800000000000000000007FC0
FF800000000000000000007FC0
FF800000000000000000007FC0
FF800000000000000000007FC0
FF800000000000000000007FC0
FF800000000000000000007FC0
FF800000000000000000007FC0
FF800000000000000000007FC0
FF800000000000000000007FC0
FF800000000000000000007FC0
FF800000000000000000007FC0
FF800000000000000000007FC0
FF800000000000000000007FC0
FF800000000000000000007FC0
FF800000000000000000007FC0
FF800000000000000000007FC0
FF800000000000000000007FC0
FF800000000000000000007FC0
FF800000000000000000007FC0
FF800000000000000000007FC0
FF800000000000000000007FC0
FF800000000000000000007FC0
FF800000000000000000007FC0
FF800000000000000000007FC0
FF800000000000000000007FC0
FF800000000000000000007FC0
FF800000000000000000007FC0
FF800000000000000000007FC0
FFC0000000000000000000FFC0
FFC0000000000000000000FFC0
7FE0000000000000000001FF80
7FF0000000000000000003FF80
7FF8000000000000000007FF00
3FFE00000000000000001FFF00
1FFFFFFFFFFFFFFFFFFFFFFE00
1FFFFFFFFFFFFFFFFFFFFFFE00
0FFFFFFFFFFFFFFFFFFFFFFC00
07FFFFFFFFFFFFFFFFFFFFF800
03FFFFFFFFFFFFFFFFFFFFF000
01FFFFFFFFFFFFFFFFFFFFE000
007FFFFFFFFFFFFFFFFFFF8000
003FFFFFFFFFFFFFFFFFFF0000
0003FFFFFFFFFFFFFFFFF00000
ENDCHAR
STARTCHAR 0065
ENCODING 101
SWIDTH 1114 0
DWIDTH 107 0
BBX 98 80 0 0
BITMAP
0003FFFFFFFFFFFFFFFFF00000
001FFFFFFFFFFFFFFFFFFE0000
007FFFFFFFFFFFFFFFFFFF8000
01FFFFFFFFFFFFFFFFFFFFE000
03FFFFFFFFFFFFFFFFFFFFF000
07FFFFFFFFFFFFFFFFFFFFF800
0FFFFFFFFFFFFFFFFFFFFFFC00
1FFFFFFFFFFFFFFFFFFFFFFE00
1FFFFFFFFFFFFFFFFFFFFFFE00
3FFE00000000000000001FFF00
7FF8000000000000000007FF00
7FF0000000000000000003FF80
7FE0000000000000000001FF80
FFC0000000000000000000FFC0
FFC0000000000000000000FFC0
FF800000000000000000007FC0
FF800000000000000000007FC0
FF800000000000000000007FC0
FF800000000000000000007FC0
FF800000000000000000007FC0
FF800000000000000000007FC0
FF80000000000000000000FFC0
FF80000000000000000000FF80
FF80000000000000000001FF80
FF80000000000000000003FF80
FF80000000000000000007FF00
FF8000000000000000000FFF00
FF8000000000000000001FFE00
FF8000000000000000003FFC00
FF8000000000000000007FF800
FF800000000000000000FFF800
FF800000000000000001FFF000
FF800000000000000003FFE000
FF800000000000000007FF8000
FF80000000000000000FFF0000
FF80000000000000001FFE0000
FF80000000000000003FFC0000
FF80000000000000007FF80000
FF8000000000000000FFF00000
FF8000000000000001FFE00000
FF8000000000000003FFC00000
FF8000000000000007FF800000
FF800000000000000FFF000000
FF800000000000001FFE000000
FF800000000000003FFC000000
FF800000000000007FF8000000
FF80000000000000FFF0000000
FF80000000000001FFE0000000
FF80000000000003FFC0000000
FF80000000000007FF80000000
FF8000000000000FFF00000000
FF8000000000001FFE00000000
FF8000000000003FFC00000000
FF8000000000007FF800000000
FF800000000000FFF000000000
FF800000000001FFE000000000
FF800000000003FFC000000000
FF800000000007FF8000000000
FF80000000000FFF0000000000
FF80000000001FFE0000000000
FF80000000003FFC0000000000
FF80000000007FF80000000000
FF8000000000FFF00000000000
FF8000000001FFE00000000000
FF8000000003FFC00000000000
FFC000000007FF800000000000
FFC00000000FFF000000000000
7FE00000001FFE000000000000
7FF00000003FFC000000000000
7FF80000007FF8000000000000
3FFE000000FFF0000000000000
3FFFFFFFFFFFFFFFFFFFFFFFC0
1FFFFFFFFFFFFFFFFFFFFFFFC0
0FFFFFFFFFFFFFFFFFFFFFFFC0
07FFFFFFFFFFFFFFFFFFFFFFC0
03FFFFFFFFFFFFFFFFFFFFFFC0
01FFFFFFFFFFFFFFFFFFFFFFC0
007FFFFFFFFFFFFFFFFFFFFFC0
003FFFFFFFFFFFFFFFFFFFFFC0
0007FFFFFFFFFFFFFFFFFFFFC0
ENDCHAR
STARTCHAR 0066
ENCODING 102
SWIDTH 1114 0
DWIDTH 107 0
BBX 98 80 0 0
BITMAP
0003FFFFFFFFFFFFFFFFFFFFC0
003FFFFFFFFFFFFFFFFFFFFFC0
007FFFFFFFFFFFFFFFFFFFFFC0
01FFFFFFFFFFFFFFFFFFFFFFC0
03FFFFFFFFFFFFFFFFFFFFFFC0
07FFFFFFFFFFFFFFFFFFFFFFC0
0FFFFFFFFFFFFFFFFFFFFFFFC0
1FFFFFFFFFFFFFFFFFFFFFFFC0
1FFFFFFFFFFFFFFFFFFFFFFFC0
3FFE0000000000000000000000
7FF80000000000000000000000
7FF00000000000000000000000
7FE00000000000000000000000
FFC00000000000000000000000
FFC00000000000000000000000
FF800000000000000000000000
FF800000000000000000000000
FF800000000000000000000000
FF800000000000000000000000
FF800000000000000000000000
FF800000000000000000000000
FF800000000000000000000000
FF800000000000000000000000
FF800000000000000000000000
FF800000000000000000000000
FF800000000000000000000000
FF800000000000000000000000
FF800000000000000000000000
FF800000000000000000000000
FF800000000000000000000000
FF800000000000000000000000
FF800000000000000000000000
FF800000000000000000000000
FF800000000000000000000000
FF800000000000000000000000
FF800000000000000000000000
FF800000000000000000000000
FF800000000000000000000000
FF800000000000000000000000
FF800000000000000000000000
FF800000000000000000000000
FF800000000000000000000000
FF800000000000000000000000
FF800000000000000000000000
FF800000000000000000000000
FF800000000000000000000000
FF800000000000000000000000
FF800000000000000000000000
FF800000000000000000000000
FF800000000000000000000000
FF800000000000000000000000
FF800000000000000000000000
FF800000000000000000000000
FFFFFFFFFFFFFFFFFFFFFFFFC0
FFFFFFFFFFFFFFFFFFFFFFFFC0
FFFFFFFFFFFFFFFFFFFFFFFFC0
FFFFFFFFFFFFFFFFFFFFFFFFC0
FFFFFFFFFFFFFFFFFFFFFFFFC0
FFFFFFFFFFFFFFFFFFFFFFFFC0
FFFFFFFFFFFFFFFFFFFFFFFFC0
FFFFFFFFFFFFFFFFFFFFFFFFC0
FFFFFFFFFFFFFFFFFFFFFFFFC0
FF800000000000000000000000
FF800000000000000000000000
FF800000000000000000000000
FF800000000000000000000000
FF800000000000000000000000
FF800000000000000000000000
FF800000000000000000000000
FF800000000000000000000000
FF800000000000000000000000
FF800000000000000000000000
FF800000000000000000000000
FF800000000000000000000000
FF800000000000000000000000
FF800000000000000000000000
FF800000000000000000000000
FF800000000000000000000000
FF800000000000000000000000
FF800000000000000000000000
ENDCHAR
STARTCHAR 0067
ENCODING 103
SWIDTH 1114 0
DWIDTH 107 0
BBX 98 102 0 -22
BITMAP
0003FFFFFFFFFFFFFFFFF00000
003FFFFFFFFFFFFFFFFFFE0000
007FFFFFFFFFFFFFFFFFFF8000
01FFFFFFFFFFFFFFFFFFFFE000
03FFFFFFFFFFFFFFFFFFFFF000
07FFFFFFFFFFFFFFFFFFFFF800
0FFFFFFFFFFFFFFFFFFFFFFC00
1FFFFFFFFFFFFFFFFFFFFFFE00
1FFFFFFFFFFFFFFFFFFFFFFE00
3FFE00000000000000001FFF00
7FF8000000000000000007FF00
7FF0000000000000000003FF80
7FE0000000000000000001FF80
FFC0000000000000000000FFC0
FFC0000000000000000000FFC0
FF800000000000000000007FC0
FF800000000000000000007FC0
FF800000000000000000007FC0
FF800000000000000000007FC0
FF800000000000000000007FC0
FF800000000000000000007FC0
FF800000000000000000007FC0
FF800000000000000000007FC0
FF800000000000000000007FC0
FF800000000000000000007FC0
FF800000000000000000007FC0
FF800000000000000000007FC0
FF800000000000000000007FC0
FF800000000000000000007FC0
FF800000000000000000007FC0
FF800000000000000000007FC0
FF800000000000000000007FC0
FF800000000000000000007FC0
FF800000000000000000007FC0
FF800000000000000000007FC0
FF800000000000000000007FC0
FF800000000000000000007FC0
FF800000000000000000007FC0
FF800000000000000000007FC0
FF800000000000000000007FC0
FF800000000000000000007FC0
FF800000000000000000007FC0
FF800000000000000000007FC0
FF800000000000000000007FC0
FF800000000000000000007FC0
FF800000000000000000007FC0
FF800000000000000000007FC0
FF800000000000000000007FC0
FF800000000000000000007FC0
FF800000000000000000007FC0
FF800000000000000000007FC0
FF800000000000000000007FC0
FF800000000000000000007FC0
FF800000000000000000007FC0
FF800000000000000000007FC0
FF800000000000000000007FC0
FF800000000000000000007FC0
FF800000000000000000007FC0
FF800000000000000000007FC0
FF800000000000000000007FC0
FF800000000000000000007FC0
FF800000000000000000007FC0
FF800000000000000000007FC0
FF800000000000000000007FC0
FF800000000000000000007FC0
FFC00000000000000000007FC0
FFC00000000000000000007FC0
7FE00000000000000000007FC0
7FF00000000000000000007FC0
7FF80000000000000000007FC0
3FFE0000000000000000007FC0
3FFFFFFFFFFFFFFFFFFFFFFFC0
1FFFFFFFFFFFFFFFFFFFFFFFC0
0FFFFFFFFFFFFFFFFFFFFFFFC0
07FFFFFFFFFFFFFFFFFFFFFFC0
03FFFFFFFFFFFFFFFFFFFFFFC0
01FFFFFFFFFFFFFFFFFFFFFFC0
00FFFFFFFFFFFFFFFFFFFFFFC0
003FFFFFFFFFFFFFFFFFFFFFC0
0007FFFFFFFFFFFFFFFFFFFFC0
00000000000000000000007FC0
00000000000000000000007FC0
00000000000000000000007FC0
00000000000000000000007FC0
00000000000000000000007FC0
00000000000000000000007FC0
00000000000000000000007FC0
0000000000000000000000FFC0
0000000000000000000000FFC0
0000000000000000000001FF80
0000000000000000000003FF80
0000000000000000000007FF80
000000000000000000001FFF00
FFFFFFFFFFFFFFFFFFFFFFFF00
FFFFFFFFFFFFFFFFFFFFFFFE00
FFFFFFFFFFFFFFFFFFFFFFFC00
FFFFFFFFFFFFFFFFFFFFFFF800
FFFFFFFFFFFFFFFFFFFFFFF000
FFFFFFFFFFFFFFFFFFFFFFE000
FFFFFFFFFFFFFFFFFFFFFF8000
FFFFFFFFFFFFFFFFFFFFFF0000
FFFFFFFFFFFFFFFFFFFFF00000
ENDCHAR
STARTCHAR 0068
ENCODING 104
SWIDTH 1114 0
DWIDTH 107 0
BBX 98 107 0 0
BITMAP
FF800000000000000000000000
FF800000000000000000000000
FF800000000000000000000000
FF800000000000000000000000
FF800000000000000000000000
FF800000000000000000000000
FF800000000000000000000000
FF800000000000000000000000
FF800000000000000000000000
FF800000000000000000000000
FF800000000000000000000000
FF800000000000000000000000
FF800000000000000000000000
FF800000000000000000000000
FF800000000000000000000000
FF800000000000000000000000
FF800000000000000000000000
FF800000000000000000000000
FF800000000000000000000000
FF800000000000000000000000
FF800000000000000000000000
FF800000000000000000000000
FF800000000000000000000000
FF800000000000000000000000
FF800000000000000000000000
FF800000000000000000000000
FF800000000000000000000000
FFFFFFFFFFFFFFFFFFC0000000
FFFFFFFFFFFFFFFFFFF8000000
FFFFFFFFFFFFFFFFFFFE000000
FFFFFFFFFFFFFFFFFFFF800000
FFFFFFFFFFFFFFFFFFFFC00000
FFFFFFFFFFFFFFFFFFFFE00000
FFFFFFFFFFFFFFFFFFFFF00000
FFFFFFFFFFFFFFFFFFFFF80000
FFFFFFFFFFFFFFFFFFFFFC0000
FF80000000000000007FFE0000
FF80000000000000001FFF0000
FF80000000000000000FFF8000
FF800000000000000007FFC000
FF800000000000000003FFE000
FF800000000000000001FFF000
FF800000000000000000FFF800
FF8000000000000000007FFC00
FF8000000000000000003FFE00
FF8000000000000000001FFE00
FF8000000000000000000FFF00
FF80000000000000000007FF80
FF80000000000000000003FF80
FF80000000000000000001FF80
FF80000000000000000000FFC0
FF80000000000000000000FFC0
FF800000000000000000007FC0
FF800000000000000000007FC0
FF800000000000000000007FC0
FF800000000000000000007FC0
FF800000000000000000007FC0
FF800000000000000000007FC0
FF800000000000000000007FC0
FF800000000000000000007FC0
FF800000000000000000007FC0
FF800000000000000000007FC0
FF800000000000000000007FC0
FF800000000000000000007FC0
FF800000000000000000007FC0
FF800000000000000000007FC0
FF800000000000000000007FC0
FF800000000000000000007FC0
FF800000000000000000007FC0
FF800000000000000000007FC0
FF800000000000000000007FC0
FF800000000000000000007FC0
FF800000000000000000007FC0
FF800000000000000000007FC0
FF800000000000000000007FC0
FF800000000000000000007FC0
FF800000000000000000007FC0
FF800000000000000000007FC0
FF800000000000000000007FC0
FF800000000000000000007FC0
FF800000000000000000007FC0
FF800000000000000000007FC0
FF800000000000000000007FC0
FF800000000000000000007FC0
FF800000000000000000007FC0
FF800000000000000000007FC0
FF800000000000000000007FC0
FF800000000000000000007FC0
FF800000000000000000007FC0
FF800000000000000000007FC0
FF800000000000000000007FC0
FF800000000000000000007FC0
FF800000000000000000007FC0
FF800000000000000000007FC0
FF800000000000000000007FC0
FF800000000000000000007FC0
FF800000000000000000007FC0
FF800000000000000000007FC0
FF800000000000000000007FC0
FF800000000000000000007FC0
FF800000000000000000007FC0
FF800000000000000000007FC0
FF800000000000000000007FC0
FF800000000000000000007FC0
FF800000000000000000007FC0
FF800000000000000000007FC0
FF800000000000000000007FC0
ENDCHAR
STARTCHAR 0069
ENCODING 105
SWIDTH 187 0
DWIDTH 18 0
BBX 9 107 0 0
BITMAP
FF80
FF80
FF80
FF80
FF80
FF80
FF80
FF80
FF80
FF80
FF80
FF80
FF80
FF80
0000
0000
0000
0000
0000
0000
0000
0000
0000
0000
0000
0000
0000
FF80
FF80
FF80
FF80
FF80
FF80
FF80
FF80
FF80
FF80
FF80
FF80
FF80
FF80
FF80
FF80
FF80
FF80
FF80
FF80
FF80
FF80
FF80
FF80
FF80
FF80
FF80
FF80
FF80
FF80
FF80
FF80
FF80
FF80
FF80
FF80
FF80
FF80
FF80
FF80
FF80
FF80
FF80
FF80
FF80
FF80
FF80
FF80
FF80
FF80
FF80
FF80
FF80
FF80
FF80
FF80
FF80
FF80
FF80
FF80
FF80
FF80
FF80
FF80
FF80
FF80
FF80
FF80
FF80
FF80
FF80
FF80
FF80
FF80
FF80
FF80
FF80
FF80
FF80
FF80
ENDCHAR
STARTCHAR 006A
ENCODING 106
SWIDTH 250 0
DWIDTH 24 0
BBX 37 135 -22 -29
BITMAP
0000000FF8
0000000FF8
0000000FF8
0000000FF8
0000000FF8
0000000FF8
0000000FF8
0000000FF8
0000000FF8
0000000FF8
0000000FF8
0000000FF8
0000000FF8
0000000FF8
0000000000
0000000000
0000000000
0000000000
0000000000
0000000000
0000000000
0000000000
0000000000
0000000000
0000000000
0000000000
0000000000
0000000FF8
0000000FF8
0000000FF8
0000000FF8
0000000FF8
0000000FF8
0000000FF8
0000000FF8
0000000FF8
0000000FF8
0000000FF8
0000000FF8
0000000FF8
0000000FF8
0000000FF8
0000000FF8
0000000FF8
0000000FF8
0000000FF8
0000000FF8
0000000FF8
0000000FF8
0000000FF8
0000000FF8
0000000FF8
0000000FF8
0000000FF8
0000000FF8
0000000FF8
0000000FF8
0000000FF8
0000000FF8
0000000FF8
0000000FF8
0000000FF8
0000000FF8
0000000FF8
0000000FF8
0000000FF8
0000000FF8
0000000FF8
0000000FF8
0000000FF8
0000000FF8
0000000FF8
0000000FF8
0000000FF8
0000000FF8
0000000FF8
0000000FF8
0000000FF8
0000000FF8
0000000FF8
0000000FF8
0000000FF8
0000000FF8
0000000FF8
0000000FF8
0000000FF8
0000000FF8
0000000FF8
0000000FF8
0000000FF8
0000000FF8
0000000FF8
0000000FF8
0000000FF8
0000000FF8
0000000FF8
0000000FF8
0000000FF8
0000001FF0
0000001FF0
0000001FF0
0000003FF0
0000003FF0
0000007FE0
000000FFE0
000001FFE0
000003FFC0
000007FF80
00000FFF80
00001FFF00
00003FFE00
00007FFC00
0000FFF800
0001FFF000
0003FFE000
0007FFC000
000FFF8000
001FFF0000
003FFE0000
007FFC0000
00FFF80000
01FFF00000
03FFE00000
07FFC00000
0FFF800000
1FFF000000
3FFE000000
7FFC000000
FFF8000000
FFF0000000
7FE0000000
3FC0000000
1F80000000
0F00000000
0600000000
ENDCHAR
STARTCHAR 006B
ENCODING 107
SWIDTH 1250 0
DWIDTH 120 0
BBX 113 107 0 0
BITMAP
FF8000000000000000000000000000
FF8000000000000000000000000000
FF8000000000000000000000000000
FF8000000000000000000000000000
FF8000000000000000000000000000
FF8000000000000000000000000000
FF8000000000000000000000000000
FF8000000000000000000000000000
FF8000000000000000000000000000
FF8000000000000000000000000000
FF8000000000000000000000000000
FF8000000000000000000000000000
FF8000000000000000000000000000
FF8000000000000000000000000000
FF8000000000000000000000000000
FF8000000000000000000000000000
FF8000000000000000000000000000
FF8000000000000000000000000000
FF8000000000000000000000000000
FF8000000000000000000000000000
FF8000000000000000000000000000
FF8000000000000000000000000000
FF8000000000000000000000000000
FF8000000000000000000000000000
FF8000000000000000000000000000
FF8000000000000000000000000000
FF8000000000000000000000000000
FF8000000000000000000000FFFF80
FF8000000000000000000007FFFF80
FF800000000000000000001FFFFF80
FF800000000000000000007FFFFF80
FF80000000000000000000FFFFFF80
FF80000000000000000001FFFFFF80
FF80000000000000000003FFFFFF80
FF80000000000000000007FFFFFF80
FF8000000000000000000FFFFFFF80
FF8000000000000000001FFF800000
FF8000000000000000003FFE000000
FF8000000000000000007FFC000000
FF800000000000000000FFF8000000
FF800000000000000001FFF0000000
FF800000000000000003FFE0000000
FF800000000000000007FFC0000000
FF80000000000000000FFF80000000
FF80000000000000001FFF00000000
FF80000000000000003FFE00000000
FF80000000000000007FFC00000000
FF8000000000000000FFF800000000
FF8000000000000001FFF000000000
FF8000000000000003FFE000000000
FF8000000000000007FFC000000000
FF800000000000000FFF8000000000
FF800000000000001FFFC000000000
FF800000000000003FFFE000000000
FF800000000000007FFFF000000000
FF80000000000000FFFFF800000000
FF80000000000001FFFFFC00000000
FF80000000000003FFFFFE00000000
FF80000000000007FFDFFF00000000
FF8000000000000FFF8FFF80000000
FF8000000000001FFF07FFC0000000
FF8000000000003FFE03FFE0000000
FF8000000000007FFC01FFF0000000
FF800000000000FFF800FFF8000000
FF800000000001FFF0007FFC000000
FF800000000003FFE0003FFE000000
FF800000000007FFC0001FFF000000
FF80000000000FFF80000FFF800000
FF80000000001FFF000007FFC00000
FF80000000003FFE000003FFE00000
FF80000000007FFC000001FFF00000
FF8000000000FFF8000000FFF80000
FF8000000001FFF00000007FFC0000
FF8000000003FFE00000003FFE0000
FF8000000007FFC00000001FFF0000
FF800000000FFF800000000FFF8000
FF800000001FFF0000000007FFC000
FF800000003FFE0000000003FFE000
FF800000007FFC0000000001FFE000
FF80000000FFF80000000000FFF000
FF80000001FFF000000000007FF800
FF80000003FFE000000000003FF800
FF80000007FFC000000000001FFC00
FF8000000FFF8000000000000FFC00
FF8000001FFF00000000000007FC00
FF8000003FFE00000000000007FE00
FF8000007FFC00000000000007FE00
FF800000FFF800000000000003FE00
FF800001FFF000000000000003FE00
FF800003FFE000000000000003FE00
FF800007FFC000000000000003FE00
FF80000FFF8000000000000003FE00
FFC0001FFF0000000000000003FE00
FFC0003FFE0000000000000003FE00
7FE0007FFC0000000000000003FE00
7FF000FFF80000000000000003FE00
7FF801FFF00000000000000003FE00
3FFE07FFE00000000000000003FE00
3FFFFFFFC00000000000000003FE00
1FFFFFFF800000000000000003FE00
0FFFFFFF000000000000000003FE00
07FFFFFE000000000000000003FE00
03FFFFFC000000000000000003FE00
01FFFFF0000000000000000003FE00
00FFFFE0000000000000000003FE00
003FFF80000000000000000003FE00
0007FC00000000000000000003FE00
ENDCHAR
STARTCHAR 006C
ENCODING 108
SWIDTH 1114 0
DWIDTH 107 0
BBX 98 80 0 0
BITMAP
FF800000000000000000000000
FF800000000000000000000000
FF800000000000000000000000
FF800000000000000000000000
FF800000000000000000000000
FF800000000000000000000000
FF800000000000000000000000
FF800000000000000000000000
FF800000000000000000000000
FF800000000000000000000000
FF800000000000000000000000
FF800000000000000000000000
FF800000000000000000000000
FF800000000000000000000000
FF800000000000000000000000
FF800000000000000000000000
FF800000000000000000000000
FF800000000000000000000000
FF800000000000000000000000
FF800000000000000000000000
FF800000000000000000000000
FF800000000000000000000000
FF800000000000000000000000
FF800000000000000000000000
FF800000000000000000000000
FF800000000000000000000000
FF800000000000000000000000
FF800000000000000000000000
FF800000000000000000000000
FF800000000000000000000000
FF800000000000000000000000
FF800000000000000000000000
FF800000000000000000000000
FF800000000000000000000000
FF800000000000000000000000
FF800000000000000000000000
FF800000000000000000000000
FF800000000000000000000000
FF800000000000000000000000
FF800000000000000000000000
FF800000000000000000000000
FF800000000000000000000000
FF800000000000000000000000
FF800000000000000000000000
FF800000000000000000000000
FF800000000000000000000000
FF800000000000000000000000
FF800000000000000000000000
FF800000000000000000000000
FF800000000000000000000000
FF800000000000000000000000
FF800000000000000000000000
FF800000000000000000000000
FF800000000000000000000000
FF800000000000000000000000
FF800000000000000000000000
FF800000000000000000000000
FF800000000000000000000000
FF800000000000000000000000
FF800000000000000000000000
FF800000000000000000000000
FF800000000000000000000000
FF800000000000000000000000
FF800000000000000000000000
FF800000000000000000000000
FFC00000000000000000000000
FFC00000000000000000000000
7FE00000000000000000000000
7FF00000000000000000000000
7FF80000000000000000000000
3FFE0000000000000000000000
3FFFFFFFFFFFFFFFFFFFFFFFC0
1FFFFFFFFFFFFFFFFFFFFFFFC0
0FFFFFFFFFFFFFFFFFFFFFFFC0
07FFFFFFFFFFFFFFFFFFFFFFC0
03FFFFFFFFFFFFFFFFFFFFFFC0
01FFFFFFFFFFFFFFFFFFFFFFC0
007FFFFFFFFFFFFFFFFFFFFFC0
003FFFFFFFFFFFFFFFFFFFFFC0
0007FFFFFFFFFFFFFFFFFFFFC0
ENDCHAR
STARTCHAR 006D
ENCODING 109
SWIDTH 1385 0
DWIDTH 133 0
BBX 124 80 0 0
BITMAP
0007FFFFFFFFFFFFFFFFFFFFFFFE0000
003FFFFFFFFFFFFFFFFFFFFFFFFFC000
007FFFFFFFFFFFFFFFFFFFFFFFFFE000
01FFFFFFFFFFFFFFFFFFFFFFFFFFF800
03FFFFFFFFFFFFFFFFFFFFFFFFFFFC00
07FFFFFFFFFFFFFFFFFFFFFFFFFFFE00
0FFFFFFFFFFFFFFFFFFFFFFFFFFFFF00
1FFFFFFFFFFFFFFFFFFFFFFFFFFFFF80
1FFFFFFFFFFFFFFFFFFFFFFFFFFFFF80
3FFE00000000003FE00000000007FFC0
7FF800000000003FE00000000001FFE0
7FF000000000003FE00000000000FFE0
7FE000000000003FE000000000007FE0
FFC000000000003FE000000000003FF0
FFC000000000003FE000000000003FF0
FF8000000000003FE000000000001FF0
FF8000000000003FE000000000001FF0
FF8000000000003FE000000000001FF0
FF8000000000003FE000000000001FF0
FF8000000000003FE000000000001FF0
FF8000000000003FE000000000001FF0
FF8000000000003FE000000000001FF0
FF8000000000003FE000000000001FF0
FF8000000000003FE000000000001FF0
FF8000000000003FE000000000001FF0
FF8000000000003FE000000000001FF0
FF8000000000003FE000000000001FF0
FF8000000000003FE000000000001FF0
FF8000000000003FE000000000001FF0
FF8000000000003FE000000000001FF0
FF8000000000003FE000000000001FF0
FF8000000000003FE000000000001FF0
FF8000000000003FE000000000001FF0
FF8000000000003FE000000000001FF0
FF8000000000003FE000000000001FF0
FF8000000000003FE000000000001FF0
FF8000000000003FE000000000001FF0
FF8000000000003FE000000000001FF0
FF8000000000003FE000000000001FF0
FF8000000000003FE000000000001FF0
FF8000000000003FE000000000001FF0
FF8000000000003FE000000000001FF0
FF8000000000003FE000000000001FF0
FF8000000000003FE000000000001FF0
FF8000000000003FE000000000001FF0
FF8000000000003FE000000000001FF0
FF8000000000003FE000000000001FF0
FF8000000000003FE000000000001FF0
FF8000000000003FE000000000001FF0
FF8000000000003FE000000000001FF0
FF8000000000003FE000000000001FF0
FF8000000000003FE000000000001FF0
FF8000000000003FE000000000001FF0
FF8000000000003FE000000000001FF0
FF8000000000003FE000000000001FF0
FF8000000000003FE000000000001FF0
FF8000000000003FE000000000001FF0
FF8000000000003FE000000000001FF0
FF8000000000003FE000000000001FF0
FF8000000000003FE000000000001FF0
FF8000000000003FE000000000001FF0
FF8000000000003FE000000000001FF0
FF8000000000003FE000000000001FF0
FF8000000000003FE000000000001FF0
FF8000000000003FE000000000001FF0
FF8000000000003FE000000000001FF0
FF8000000000003FE000000000001FF0
FF8000000000003FE000000000001FF0
FF8000000000003FE000000000001FF0
FF8000000000003FE000000000001FF0
FF8000000000003FE000000000001FF0
FF8000000000003FE000000000001FF0
FF8000000000003FE000000000001FF0
FF8000000000003FE000000000001FF0
FF8000000000003FE000000000001FF0
FF8000000000003FE000000000001FF0
FF8000000000003FE000000000001FF0
FF8000000000003FE000000000001FF0
FF8000000000003FE000000000001FF0
FF8000000000003FE000000000001FF0
ENDCHAR
STARTCHAR 006E
ENCODING 110
SWIDTH 1114 0
DWIDTH 107 0
BBX 98 80 0 0
BITMAP
0003FFFFFFFFFFFFFFFFF00000
001FFFFFFFFFFFFFFFFFFE0000
007FFFFFFFFFFFFFFFFFFF8000
01FFFFFFFFFFFFFFFFFFFFE000
03FFFFFFFFFFFFFFFFFFFFF000
07FFFFFFFFFFFFFFFFFFFFF800
0FFFFFFFFFFFFFFFFFFFFFFC00
1FFFFFFFFFFFFFFFFFFFFFFE00
1FFFFFFFFFFFFFFFFFFFFFFE00
3FFE00000000000000001FFF00
7FF8000000000000000007FF00
7FF0000000000000000003FF80
7FE0000000000000000001FF80
FFC0000000000000000000FFC0
FFC0000000000000000000FFC0
FF800000000000000000007FC0
FF800000000000000000007FC0
FF800000000000000000007FC0
FF800000000000000000007FC0
FF800000000000000000007FC0
FF800000000000000000007FC0
FF800000000000000000007FC0
FF800000000000000000007FC0
FF800000000000000000007FC0
FF800000000000000000007FC0
FF800000000000000000007FC0
FF800000000000000000007FC0
FF800000000000000000007FC0
FF800000000000000000007FC0
FF800000000000000000007FC0
FF800000000000000000007FC0
FF800000000000000000007FC0
FF800000000000000000007FC0
FF800000000000000000007FC0
FF800000000000000000007FC0
FF800000000000000000007FC0
FF800000000000000000007FC0
FF800000000000000000007FC0
FF800000000000000000007FC0
FF800000000000000000007FC0
FF800000000000000000007FC0
FF800000000000000000007FC0
FF800000000000000000007FC0
FF800000000000000000007FC0
FF800000000000000000007FC0
FF800000000000000000007FC0
FF800000000000000000007FC0
FF800000000000000000007FC0
FF800000000000000000007FC0
FF800000000000000000007FC0
FF800000000000000000007FC0
FF800000000000000000007FC0
FF800000000000000000007FC0
FF800000000000000000007FC0
FF800000000000000000007FC0
FF800000000000000000007FC0
FF800000000000000000007FC0
FF800000000000000000007FC0
FF800000000000000000007FC0
FF800000000000000000007FC0
FF800000000000000000007FC0
FF800000000000000000007FC0
FF800000000000000000007FC0
FF800000000000000000007FC0
FF800000000000000000007FC0
FF800000000000000000007FC0
FF800000000000000000007FC0
FF800000000000000000007FC0
FF800000000000000000007FC0
FF800000000000000000007FC0
FF800000000000000000007FC0
FF800000000000000000007FC0
FF800000000000000000007FC0
FF800000000000000000007FC0
FF800000000000000000007FC0
FF800000000000000000007FC0
FF800000000000000000007FC0
FF800000000000000000007FC0
FF800000000000000000007FC0
FF800000000000000000007FC0
ENDCHAR
STARTCHAR 006F
ENCODING 111
SWIDTH 1114 0
DWIDTH 107 0
BBX 98 80 0 0
BITMAP
0003FFFFFFFFFFFFFFFFF00000
001FFFFFFFFFFFFFFFFFFE0000
007FFFFFFFFFFFFFFFFFFF8000
01FFFFFFFFFFFFFFFFFFFFE000
03FFFFFFFFFFFFFFFFFFFFF000
07FFFFFFFFFFFFFFFFFFFFF800
0FFFFFFFFFFFFFFFFFFFFFFC00
1FFFFFFFFFFFFFFFFFFFFFFE00
1FFFFFFFFFFFFFFFFFFFFFFE00
3FFE00000000000000001FFF00
7FF8000000000000000007FF00
7FF0000000000000000003FF80
7FE0000000000000000001FF80
FFC0000000000000000000FFC0
FFC0000000000000000000FFC0
FF800000000000000000007FC0
FF800000000000000000007FC0
FF800000000000000000007FC0
FF800000000000000000007FC0
FF800000000000000000007FC0
FF800000000000000000007FC0
FF800000000000000000007FC0
FF800000000000000000007FC0
FF800000000000000000007FC0
FF800000000000000000007FC0
FF800000000000000000007FC0
FF800000000000000000007FC0
FF800000000000000000007FC0
FF800000000000000000007FC0
FF800000000000000000007FC0
FF800000000000000000007FC0
FF800000000000000000007FC0
FF800000000000000000007FC0
FF800000000000000000007FC0
FF800000000000000000007FC0
FF800000000000000000007FC0
FF800000000000000000007FC0
FF800000000000000000007FC0
FF800000000000000000007FC0
FF800000000000000000007FC0
FF800000000000000000007FC0
FF800000000000000000007FC0
FF800000000000000000007FC0
FF800000000000000000007FC0
FF800000000000000000007FC0
FF800000000000000000007FC0
FF800000000000000000007FC0
FF800000000000000000007FC0
FF800000000000000000007FC0
FF800000000000000000007FC0
FF800000000000000000007FC0
FF800000000000000000007FC0
FF800000000000000000007FC0
FF800000000000000000007FC0
FF800000000000000000007FC0
FF800000000000000000007FC0
FF800000000000000000007FC0
FF800000000000000000007FC0
FF800000000000000000007FC0
FF800000000000000000007FC0
FF800000000000000000007FC0
FF800000000000000000007FC0
FF800000000000000000007FC0
FF800000000000000000007FC0
FF800000000000000000007FC0
FFC0000000000000000000FFC0
FFC0000000000000000000FF80
7FE0000000000000000001FF80
7FF0000000000000000003FF80
7FF8000000000000000007FF00
3FFE00000000000000001FFF00
3FFFFFFFFFFFFFFFFFFFFFFE00
1FFFFFFFFFFFFFFFFFFFFFFE00
0FFFFFFFFFFFFFFFFFFFFFFC00
07FFFFFFFFFFFFFFFFFFFFF800
03FFFFFFFFFFFFFFFFFFFFF000
01FFFFFFFFFFFFFFFFFFFFE000
007FFFFFFFFFFFFFFFFFFF8000
003FFFFFFFFFFFFFFFFFFE0000
0007FFFFFFFFFFFFFFFFF00000
ENDCHAR
STARTCHAR 0070
ENCODING 112
SWIDTH 1114 0
DWIDTH 107 0
BBX 98 102 0 -22
BITMAP
0003FFFFFFFFFFFFFFFFF80000
001FFFFFFFFFFFFFFFFFFF0000
007FFFFFFFFFFFFFFFFFFF8000
01FFFFFFFFFFFFFFFFFFFFE000
03FFFFFFFFFFFFFFFFFFFFF000
07FFFFFFFFFFFFFFFFFFFFF800
0FFFFFFFFFFFFFFFFFFFFFFC00
1FFFFFFFFFFFFFFFFFFFFFFE00
1FFFFFFFFFFFFFFFFFFFFFFE00
3FFE00000000000000001FFF00
7FF8000000000000000007FF80
7FF0000000000000000003FF80
7FE0000000000000000001FF80
FFC0000000000000000000FFC0
FFC0000000000000000000FFC0
FF800000000000000000007FC0
FF800000000000000000007FC0
FF800000000000000000007FC0
FF800000000000000000007FC0
FF800000000000000000007FC0
FF800000000000000000007FC0
FF800000000000000000007FC0
FF800000000000000000007FC0
FF800000000000000000007FC0
FF800000000000000000007FC0
FF800000000000000000007FC0
FF800000000000000000007FC0
FF800000000000000000007FC0
FF800000000000000000007FC0
FF800000000000000000007FC0
FF800000000000000000007FC0
FF800000000000000000007FC0
FF800000000000000000007FC0
FF800000000000000000007FC0
FF800000000000000000007FC0
FF800000000000000000007FC0
FF800000000000000000007FC0
FF800000000000000000007FC0
FF800000000000000000007FC0
FF800000000000000000007FC0
FF800000000000000000007FC0
FF800000000000000000007FC0
FF800000000000000000007FC0
FF800000000000000000007FC0
FF800000000000000000007FC0
FF800000000000000000007FC0
FF800000000000000000007FC0
FF800000000000000000007FC0
FF800000000000000000007FC0
FF800000000000000000007FC0
FF800000000000000000007FC0
FF800000000000000000007FC0
FF800000000000000000007FC0
FF800000000000000000007FC0
FF800000000000000000007FC0
FF800000000000000000007FC0
FF800000000000000000007FC0
FF800000000000000000007FC0
FF800000000000000000007FC0
FF800000000000000000007FC0
FF800000000000000000007FC0
FF800000000000000000007FC0
FF800000000000000000007FC0
FF800000000000000000007FC0
FF800000000000000000007FC0
FF80000000000000000000FFC0
FF80000000000000000000FFC0
FF80000000000000000001FF80
FF80000000000000000003FF80
FF80000000000000000007FF00
FF8000000000000000000FFF00
FFFFFFFFFFFFFFFFFFFFFFFE00
FFFFFFFFFFFFFFFFFFFFFFFE00
FFFFFFFFFFFFFFFFFFFFFFFC00
FFFFFFFFFFFFFFFFFFFFFFF800
FFFFFFFFFFFFFFFFFFFFFFF000
FFFFFFFFFFFFFFFFFFFFFFE000
FFFFFFFFFFFFFFFFFFFFFF8000
FFFFFFFFFFFFFFFFFFFFFF0000
FFFFFFFFFFFFFFFFFFFFF80000
FF800000000000000000000000
FF800000000000000000000000
FF800000000000000000000000
FF800000000000000000000000
FF800000000000000000000000
FF800000000000000000000000
FF800000000000000000000000
FF800000000000000000000000
FF800000000000000000000000
FF800000000000000000000000
FF800000000000000000000000
FF800000000000000000000000
FF800000000000000000000000
FF800000000000000000000000
FF800000000000000000000000
FF800000000000000000000000
FF800000000000000000000000
FF800000000000000000000000
FF800000000000000000000000
FF800000000000000000000000
FF800000000000000000000000
FF800000000000000000000000
ENDCHAR
STARTCHAR 0071
ENCODING 113
SWIDTH 1114 0
DWIDTH 107 0
BBX 98 80 0 0
BITMAP
0003FFFFFFFFFFFFFFFFF00000
001FFFFFFFFFFFFFFFFFFE0000
007FFFFFFFFFFFFFFFFFFF8000
01FFFFFFFFFFFFFFFFFFFFE000
03FFFFFFFFFFFFFFFFFFFFF000
07FFFFFFFFFFFFFFFFFFFFF800
0FFFFFFFFFFFFFFFFFFFFFFC00
1FFFFFFFFFFFFFFFFFFFFFFE00
1FFFFFFFFFFFFFFFFFFFFFFE00
3FFE00000000000000001FFF00
7FF8000000000000000007FF00
7FF0000000000000000003FF80
7FE0000000000000000001FF80
FFC0000000000000000000FFC0
FFC0000000000000000000FFC0
FF800000000000000000007FC0
FF800000000000000000007FC0
FF800000000000000000007FC0
FF800000000000000000007FC0
FF800000000000000000007FC0
FF800000000000000000007FC0
FF800000000000000000007FC0
FF800000000000000000007FC0
FF800000000000000000007FC0
FF800000000000000000007FC0
FF800000000000000000007FC0
FF800000000000000000007FC0
FF800000000000000000007FC0
FF800000000000000000007FC0
FF800000000000000000007FC0
FF800000000000000000007FC0
FF800000000000000000007FC0
FF800000000000000000007FC0
FF800000000000000000007FC0
FF800000000000000000007FC0
FF800000000000000000007FC0
FF800000000000000000007FC0
FF800000000000000000007FC0
FF800000000000000000007FC0
FF800000000000000000007FC0
FF800000000000000000007FC0
FF800000000000000000007FC0
FF800000000000000000007FC0
FF800000000000000000007FC0
FF800000000000000000007FC0
FF800000000000000000007FC0
FF800000000000000000007FC0
FF800001000000000000007FC0
FF800003800000000000007FC0
FF800007C00000000000007FC0
FF80000FE00000000000007FC0
FF80001FF00000000000007FC0
FF80003FF80000000000007FC0
FF80007FFC0000000000007FC0
FF80003FFE0000000000007FC0
FF80001FFF0000000000007FC0
FF80000FFF8000000000007FC0
FF800007FFC000000000007FC0
FF800003FFE000000000007FC0
FF800001FFF000000000007FC0
FF800000FFF800000000007FC0
FF8000007FFC00000000007FC0
FF8000003FFE00000000007FC0
FF8000001FFF00000000007FC0
FF8000000FFF80000000007FC0
FFC0000007FFC000000000FFC0
FFC0000003FFE000000000FFC0
7FE0000001FFF000000001FF80
7FF0000000FFF800000003FF80
7FF80000007FFC00000007FF00
3FFE0000003FFF0000001FFF00
1FFFFC00001FFFFFFFFFFFFE00
1FFFFC00000FFFFFFFFFFFFE00
0FFFFC000007FFFFFFFFFFFC00
07FFFC000003FFFFFFFFFFF800
03FFFC000001FFFFFFFFFFF000
01FFFC000000FFFFFFFFFFE000
007FFC0000003FFFFFFFFF8000
003FFC0000000FFFFFFFFE0000
0007FC00000001FFFFFFF00000
ENDCHAR
STARTCHAR 0072
ENCODING 114
SWIDTH 1114 0
DWIDTH 107 0
BBX 98 80 0 0
BITMAP
0003FFFFFFFFFFFFFFFFFFFFC0
003FFFFFFFFFFFFFFFFFFFFFC0
007FFFFFFFFFFFFFFFFFFFFFC0
01FFFFFFFFFFFFFFFFFFFFFFC0
03FFFFFFFFFFFFFFFFFFFFFFC0
07FFFFFFFFFFFFFFFFFFFFFFC0
0FFFFFFFFFFFFFFFFFFFFFFFC0
1FFFFFFFFFFFFFFFFFFFFFFFC0
1FFFFFFFFFFFFFFFFFFFFFFFC0
3FFE0000000000000000000000
7FF80000000000000000000000
7FF00000000000000000000000
7FE00000000000000000000000
FFC00000000000000000000000
FFC00000000000000000000000
FF800000000000000000000000
FF800000000000000000000000
FF800000000000000000000000
FF800000000000000000000000
FF800000000000000000000000
FF800000000000000000000000
FF800000000000000000000000
FF800000000000000000000000
FF800000000000000000000000
FF800000000000000000000000
FF800000000000000000000000
FF800000000000000000000000
FF800000000000000000000000
FF800000000000000000000000
FF800000000000000000000000
FF800000000000000000000000
FF800000000000000000000000
FF800000000000000000000000
FF800000000000000000000000
FF800000000000000000000000
FF800000000000000000000000
FF800000000000000000000000
FF800000000000000000000000
FF800000000000000000000000
FF800000000000000000000000
FF800000000000000000000000
FF800000000000000000000000
FF800000000000000000000000
FF800000000000000000000000
FF800000000000000000000000
FF800000000000000000000000
FF800000000000000000000000
FF800000000000000000000000
FF800000000000000000000000
FF800000000000000000000000
FF800000000000000000000000
FF800000000000000000000000
FF800000000000000000000000
FF800000000000000000000000
FF800000000000000000000000
FF800000000000000000000000
FF800000000000000000000000
FF800000000000000000000000
FF800000000000000000000000
FF800000000000000000000000
FF800000000000000000000000
FF800000000000000000000000
FF800000000000000000000000
FF800000000000000000000000
FF800000000000000000000000
FF800000000000000000000000
FF800000000000000000000000
FF800000000000000000000000
FF800000000000000000000000
FF800000000000000000000000
FF800000000000000000000000
FF800000000000000000000000
FF800000000000000000000000
FF800000000000000000000000
FF800000000000000000000000
FF800000000000000000000000
FF800000000000000000000000
FF800000000000000000000000
FF800000000000000000000000
FF800000000000000000000000
ENDCHAR
STARTCHAR 0073
ENCODING 115
SWIDTH 1114 0
DWIDTH 107 0
BBX 98 80 0 0
BITMAP
0003FFFFFFFFFFFFFFFFFFFFC0
001FFFFFFFFFFFFFFFFFFFFFC0
007FFFFFFFFFFFFFFFFFFFFFC0
01FFFFFFFFFFFFFFFFFFFFFFC0
03FFFFFFFFFFFFFFFFFFFFFFC0
07FFFFFFFFFFFFFFFFFFFFFFC0
0FFFFFFFFFFFFFFFFFFFFFFFC0
1FFFFFFFFFFFFFFFFFFFFFFFC0
3FFFFFFFFFFFFFFFFFFFFFFFC0
3FFE0000000000000000000000
7FF80000000000000000000000
7FF00000000000000000000000
7FE00000000000000000000000
FFC00000000000000000000000
FFC00000000000000000000000
FF800000000000000000000000
FF800000000000000000000000
FF800000000000000000000000
FF800000000000000000000000
FF800000000000000000000000
FF800000000000000000000000
FF800000000000000000000000
FF800000000000000000000000
FF800000000000000000000000
FF800000000000000000000000
FF800000000000000000000000
FF800000000000000000000000
FF800000000000000000000000
FF800000000000000000000000
FFC00000000000000000000000
FFC00000000000000000000000
7FE00000000000000000000000
7FF00000000000000000000000
7FF80000000000000000000000
3FFE0000000000000000000000
3FFFFFFFFFFFFFFFFFFFF00000
1FFFFFFFFFFFFFFFFFFFFE0000
0FFFFFFFFFFFFFFFFFFFFF8000
07FFFFFFFFFFFFFFFFFFFFE000
03FFFFFFFFFFFFFFFFFFFFF000
01FFFFFFFFFFFFFFFFFFFFF800
00FFFFFFFFFFFFFFFFFFFFFC00
003FFFFFFFFFFFFFFFFFFFFE00
0007FFFFFFFFFFFFFFFFFFFE00
000000000000000000001FFF00
0000000000000000000007FF00
0000000000000000000003FF80
0000000000000000000001FF80
0000000000000000000000FF80
0000000000000000000000FFC0
00000000000000000000007FC0
00000000000000000000007FC0
00000000000000000000007FC0
00000000000000000000007FC0
00000000000000000000007FC0
00000000000000000000007FC0
00000000000000000000007FC0
00000000000000000000007FC0
00000000000000000000007FC0
00000000000000000000007FC0
00000000000000000000007FC0
00000000000000000000007FC0
00000000000000000000007FC0
00000000000000000000007FC0
00000000000000000000007FC0
0000000000000000000000FFC0
0000000000000000000000FF80
0000000000000000000001FF80
0000000000000000000003FF80
0000000000000000000007FF00
000000000000000000001FFF00
FFFFFFFFFFFFFFFFFFFFFFFE00
FFFFFFFFFFFFFFFFFFFFFFFE00
FFFFFFFFFFFFFFFFFFFFFFFC00
FFFFFFFFFFFFFFFFFFFFFFF800
FFFFFFFFFFFFFFFFFFFFFFF000
FFFFFFFFFFFFFFFFFFFFFFE000
FFFFFFFFFFFFFFFFFFFFFF8000
FFFFFFFFFFFFFFFFFFFFFE0000
FFFFFFFFFFFFFFFFFFFFF00000
ENDCHAR
STARTCHAR 0074
ENCODING 116
SWIDTH 1114 0
DWIDTH 107 0
BBX 98 107 0 0
BITMAP
FF800000000000000000000000
FF800000000000000000000000
FF800000000000000000000000
FF800000000000000000000000
FF800000000000000000000000
FF800000000000000000000000
FF800000000000000000000000
FF800000000000000000000000
FF800000000000000000000000
FF800000000000000000000000
FF800000000000000000000000
FF800000000000000000000000
FF800000000000000000000000
FF800000000000000000000000
FF800000000000000000000000
FF800000000000000000000000
FF800000000000000000000000
FF800000000000000000000000
FF800000000000000000000000
FF800000000000000000000000
FF800000000000000000000000
FF800000000000000000000000
FF800000000000000000000000
FF800000000000000000000000
FF800000000000000000000000
FF800000000000000000000000
FF800000000000000000000000
FFFFFFFFFFFFFFFFFFFFFFFFC0
FFFFFFFFFFFFFFFFFFFFFFFFC0
FFFFFFFFFFFFFFFFFFFFFFFFC0
FFFFFFFFFFFFFFFFFFFFFFFFC0
FFFFFFFFFFFFFFFFFFFFFFFFC0
FFFFFFFFFFFFFFFFFFFFFFFFC0
FFFFFFFFFFFFFFFFFFFFFFFFC0
FFFFFFFFFFFFFFFFFFFFFFFFC0
FFFFFFFFFFFFFFFFFFFFFFFFC0
FF800000000000000000000000
FF800000000000000000000000
FF800000000000000000000000
FF800000000000000000000000
FF800000000000000000000000
FF800000000000000000000000
FF800000000000000000000000
FF800000000000000000000000
FF800000000000000000000000
FF800000000000000000000000
FF800000000000000000000000
FF800000000000000000000000
FF800000000000000000000000
FF800000000000000000000000
FF800000000000000000000000
FF800000000000000000000000
FF800000000000000000000000
FF800000000000000000000000
FF800000000000000000000000
FF800000000000000000000000
FF800000000000000000000000
FF800000000000000000000000
FF800000000000000000000000
FF800000000000000000000000
FF800000000000000000000000
FF800000000000000000000000
FF800000000000000000000000
FF800000000000000000000000
FF800000000000000000000000
FF800000000000000000000000
FF800000000000000000000000
FF800000000000000000000000
FF800000000000000000000000
FF800000000000000000000000
FF800000000000000000000000
FF800000000000000000000000
FF800000000000000000000000
FF800000000000000000000000
FF800000000000000000000000
FF800000000000000000000000
FF800000000000000000000000
FF800000000000000000000000
FF800000000000000000000000
FF800000000000000000000000
FF800000000000000000000000
FF800000000000000000000000
FF800000000000000000000000
FF800000000000000000000000
FF800000000000000000000000
FF800000000000000000000000
FF800000000000000000000000
FF800000000000000000000000
FF800000000000000000000000
FF800000000000000000000000
FF800000000000000000000000
FF800000000000000000000000
FFC00000000000000000000000
FFC00000000000000000000000
7FE00000000000000000000000
7FF00000000000000000000000
7FF80000000000000000000000
3FFE0000000000000000000000
3FFFFFFFFFFFFFFFFFFFFFFFC0
1FFFFFFFFFFFFFFFFFFFFFFFC0
0FFFFFFFFFFFFFFFFFFFFFFFC0
07FFFFFFFFFFFFFFFFFFFFFFC0
03FFFFFFFFFFFFFFFFFFFFFFC0
01FFFFFFFFFFFFFFFFFFFFFFC0
00FFFFFFFFFFFFFFFFFFFFFFC0
003FFFFFFFFFFFFFFFFFFFFFC0
0007FFFFFFFFFFFFFFFFFFFFC0
ENDCHAR
STARTCHAR 0075
ENCODING 117
SWIDTH 1114 0
DWIDTH 107 0
BBX 98 80 0 0
BITMAP
FF800000000000000000007FC0
FF800000000000000000007FC0
FF800000000000000000007FC0
FF800000000000000000007FC0
FF800000000000000000007FC0
FF800000000000000000007FC0
FF800000000000000000007FC0
FF800000000000000000007FC0
FF800000000000000000007FC0
FF800000000000000000007FC0
FF800000000000000000007FC0
FF800000000000000000007FC0
FF800000000000000000007FC0
FF800000000000000000007FC0
FF800000000000000000007FC0
FF800000000000000000007FC0
FF800000000000000000007FC0
FF800000000000000000007FC0
FF800000000000000000007FC0
FF800000000000000000007FC0
FF800000000000000000007FC0
FF800000000000000000007FC0
FF800000000000000000007FC0
FF800000000000000000007FC0
FF800000000000000000007FC0
FF800000000000000000007FC0
FF800000000000000000007FC0
FF800000000000000000007FC0
FF800000000000000000007FC0
FF800000000000000000007FC0
FF800000000000000000007FC0
FF800000000000000000007FC0
FF800000000000000000007FC0
FF800000000000000000007FC0
FF800000000000000000007FC0
FF800000000000000000007FC0
FF800000000000000000007FC0
FF800000000000000000007FC0
FF800000000000000000007FC0
FF800000000000000000007FC0
FF800000000000000000007FC0
FF800000000000000000007FC0
FF800000000000000000007FC0
FF800000000000000000007FC0
FF800000000000000000007FC0
FF800000000000000000007FC0
FF800000000000000000007FC0
FF800000000000000000007FC0
FF800000000000000000007FC0
FF800000000000000000007FC0
FF800000000000000000007FC0
FF800000000000000000007FC0
FF800000000000000000007FC0
FF800000000000000000007FC0
FF800000000000000000007FC0
FF800000000000000000007FC0
FF800000000000000000007FC0
FF800000000000000000007FC0
FF800000000000000000007FC0
FF800000000000000000007FC0
FF800000000000000000007FC0
FF800000000000000000007FC0
FF800000000000000000007FC0
FF800000000000000000007FC0
FF800000000000000000007FC0
FFC0000000000000000000FFC0
FFC0000000000000000000FFC0
7FE0000000000000000001FF80
7FF0000000000000000003FF80
7FF8000000000000000007FF00
3FFE00000000000000001FFF00
3FFFFFFFFFFFFFFFFFFFFFFE00
1FFFFFFFFFFFFFFFFFFFFFFE00
0FFFFFFFFFFFFFFFFFFFFFFC00
07FFFFFFFFFFFFFFFFFFFFF800
03FFFFFFFFFFFFFFFFFFFFF000
01FFFFFFFFFFFFFFFFFFFFE000
007FFFFFFFFFFFFFFFFFFF8000
003FFFFFFFFFFFFFFFFFFF0000
0007FFFFFFFFFFFFFFFFF00000
ENDCHAR
STARTCHAR 0076
ENCODING 118
SWIDTH 1114 0
DWIDTH 107 0
BBX 98 80 0 0
BITMAP
FF800000000000000000007FC0
FF800000000000000000007FC0
FF800000000000000000007FC0
FF800000000000000000007FC0
FF800000000000000000007FC0
FF800000000000000000007FC0
FF800000000000000000007FC0
FF800000000000000000007FC0
FF800000000000000000007FC0
FF800000000000000000007FC0
FF800000000000000000007FC0
FF800000000000000000007FC0
FF800000000000000000007FC0
FF800000000000000000007FC0
FF800000000000000000007FC0
FF800000000000000000007FC0
FF800000000000000000007FC0
FF800000000000000000007FC0
FF800000000000000000007FC0
FF800000000000000000007FC0
FF800000000000000000007FC0
FF800000000000000000007FC0
FF800000000000000000007FC0
FF800000000000000000007FC0
FF80000000000000000000FFC0
FF80000000000000000000FF80
FF80000000000000000001FF80
FF80000000000000000003FF80
FF80000000000000000007FF00
FF8000000000000000000FFF00
FF8000000000000000001FFE00
FF8000000000000000003FFC00
FF8000000000000000007FFC00
FF800000000000000000FFF800
FF800000000000000001FFF000
FF800000000000000003FFE000
FF800000000000000007FFC000
FF80000000000000000FFF8000
FF80000000000000001FFF0000
FF80000000000000003FFE0000
FF80000000000000007FFC0000
FF8000000000000000FFF80000
FF8000000000000001FFF00000
FF8000000000000003FFE00000
FF8000000000000007FFC00000
FF800000000000000FFF800000
FF800000000000001FFF000000
FF800000000000003FFE000000
FF800000000000007FFC000000
FF80000000000000FFF8000000
FF80000000000001FFF0000000
FF80000000000003FFE0000000
FF80000000000007FFC0000000
FF8000000000000FFF80000000
FF8000000000001FFF00000000
FF8000000000003FFE00000000
FF8000000000007FFC00000000
FF800000000000FFF800000000
FF800000000001FFF000000000
FF800000000003FFE000000000
FF800000000007FFC000000000
FF80000000000FFF8000000000
FF80000000001FFF0000000000
FF80000000003FFE0000000000
FF80000000007FFC0000000000
FFC000000000FFF80000000000
FFC000000001FFF00000000000
7FE000000003FFE00000000000
7FF000000007FFC00000000000
7FF80000000FFF800000000000
3FFE0000003FFF000000000000
1FFFFFFFFFFFFE000000000000
1FFFFFFFFFFFFC000000000000
0FFFFFFFFFFFF8000000000000
07FFFFFFFFFFF0000000000000
03FFFFFFFFFFE0000000000000
01FFFFFFFFFFC0000000000000
007FFFFFFFFF00000000000000
003FFFFFFFFC00000000000000
0007FFFFFFE000000000000000
ENDCHAR
STARTCHAR 0077
ENCODING 119
SWIDTH 1385 0
DWIDTH 133 0
BBX 125 80 0 0
BITMAP
FF8000000000003FE000000000000FF8
FF8000000000003FE000000000000FF8
FF8000000000003FE000000000000FF8
FF8000000000003FE000000000000FF8
FF8000000000003FE000000000000FF8
FF8000000000003FE000000000000FF8
FF8000000000003FE000000000000FF8
FF8000000000003FE000000000000FF8
FF8000000000003FE000000000000FF8
FF8000000000003FE000000000000FF8
FF8000000000003FE000000000000FF8
FF8000000000003FE000000000000FF8
FF8000000000003FE000000000000FF8
FF8000000000003FE000000000000FF8
FF8000000000003FE000000000000FF8
FF8000000000003FE000000000000FF8
FF8000000000003FE000000000000FF8
FF8000000000003FE000000000000FF8
FF8000000000003FE000000000000FF8
FF8000000000003FE000000000000FF8
FF8000000000003FE000000000000FF8
FF8000000000003FE000000000000FF8
FF8000000000003FE000000000000FF8
FF8000000000003FE000000000000FF8
FF8000000000003FE000000000000FF8
FF8000000000003FE000000000000FF8
FF8000000000003FE000000000000FF8
FF8000000000003FE000000000000FF8
FF8000000000003FE000000000000FF8
FF8000000000003FE000000000000FF8
FF8000000000003FE000000000000FF8
FF8000000000003FE000000000000FF8
FF8000000000003FE000000000000FF8
FF8000000000003FE000000000000FF8
FF8000000000003FE000000000000FF8
FF8000000000003FE000000000000FF8
FF8000000000003FE000000000000FF8
FF8000000000003FE000000000000FF8
FF8000000000003FE000000000000FF8
FF8000000000003FE000000000000FF8
FF8000000000003FE000000000000FF8
FF8000000000003FE000000000000FF8
FF8000000000003FE000000000000FF8
FF8000000000003FE000000000000FF8
FF8000000000003FE000000000000FF8
FF8000000000003FE000000000000FF8
FF8000000000003FE000000000000FF8
FF8000000000003FE000000000000FF8
FF8000000000003FE000000000000FF8
FF8000000000003FE000000000000FF8
FF8000000000003FE000000000000FF8
FF8000000000003FE000000000000FF8
FF8000000000003FE000000000000FF8
FF8000000000003FE000000000000FF8
FF8000000000003FE000000000000FF8
FF8000000000003FE000000000000FF8
FF8000000000003FE000000000000FF8
FF8000000000003FE000000000000FF8
FF8000000000003FE000000000000FF8
FF8000000000003FE000000000000FF8
FF8000000000003FE000000000000FF8
FF8000000000003FE000000000000FF8
FF8000000000003FE000000000000FF8
FF8000000000003FE000000000000FF8
FF8000000000003FE000000000000FF8
FFC000000000003FE000000000001FF8
FFC000000000003FE000000000001FF8
7FE000000000003FE000000000003FF0
7FF000000000003FE000000000007FF0
7FF800000000003FE00000000000FFE0
3FFE00000000003FE00000000003FFE0
3FFFFFFFFFFFFFFFFFFFFFFFFFFFFFC0
1FFFFFFFFFFFFFFFFFFFFFFFFFFFFFC0
0FFFFFFFFFFFFFFFFFFFFFFFFFFFFF80
07FFFFFFFFFFFFFFFFFFFFFFFFFFFF00
03FFFFFFFFFFFFFFFFFFFFFFFFFFFE00
01FFFFFFFFFFFFFFFFFFFFFFFFFFFC00
007FFFFFFFFFFFFFFFFFFFFFFFFFF000
003FFFFFFFFFFFFFFFFFFFFFFFFFC000
0003FFFFFFFFFFFFFFFFFFFFFFFE0000
ENDCHAR
STARTCHAR 0078
ENCODING 120
SWIDTH 1114 0
DWIDTH 107 0
BBX 98 80 0 0
BITMAP
FFF0000000000000000003FFC0
FFFE00000000000000001FFFC0
FFFF80000000000000007FFFC0
FFFFE000000000000000FFFFC0
FFFFF000000000000003FFFFC0
FFFFF800000000000007FFFFC0
FFFFFC0000000000000FFFFFC0
FFFFFE0000000000001FFFFFC0
FFFFFF0000000000003FFFFFC0
001FFF8000000000007FFE0000
0007FFC00000000000FFF80000
0003FFE00000000001FFF00000
0001FFF00000000003FFE00000
0000FFF80000000007FFC00000
00007FFC000000000FFF800000
00003FFE000000001FFF000000
00001FFF000000003FFE000000
00000FFF800000007FFC000000
000007FFC0000000FFF8000000
000003FFE0000001FFF0000000
000001FFF0000003FFE0000000
000000FFF8000007FFC0000000
0000007FFC00000FFF80000000
0000003FFE00001FFF00000000
0000001FFF00003FFE00000000
0000000FFF80007FFC00000000
00000007FFC000FFF800000000
00000003FFE001FFF000000000
00000001FFF003FFE000000000
00000000FFF807FFC000000000
000000007FFC0FFF8000000000
000000003FFE1FFF0000000000
000000001FFF3FFE0000000000
000000000FFFFFFC0000000000
0000000007FFFFF80000000000
0000000003FFFFF00000000000
0000000003FFFFE00000000000
0000000001FFFFC00000000000
0000000000FFFF800000000000
00000000007FFF000000000000
00000000003FFF000000000000
00000000007FFF800000000000
0000000000FFFFC00000000000
0000000001FFFFE00000000000
0000000003FFFFF00000000000
0000000007FFFFF80000000000
000000000FFFFFFC0000000000
000000001FFF3FFE0000000000
000000003FFE1FFF0000000000
000000007FFC0FFF8000000000
00000000FFF807FFC000000000
00000001FFF003FFE000000000
00000003FFE001FFF000000000
00000007FFC000FFF800000000
0000000FFF80007FFC00000000
0000001FFF00003FFE00000000
0000003FFE00001FFF00000000
0000007FFC00000FFF80000000
000000FFF8000007FFC0000000
000001FFF0000003FFE0000000
000003FFE0000001FFF0000000
000007FFC0000000FFF8000000
00000FFF800000007FFC000000
00001FFF000000003FFE000000
00003FFE000000001FFF000000
00007FFC000000000FFF800000
0000FFF80000000007FFC00000
0001FFF00000000003FFE00000
0003FFE00000000001FFF00000
0007FFC00000000000FFF80000
001FFF8000000000007FFE0000
FFFFFF0000000000003FFFFFC0
FFFFFE0000000000001FFFFFC0
FFFFFC0000000000000FFFFFC0
FFFFF800000000000007FFFFC0
FFFFF000000000000003FFFFC0
FFFFE000000000000001FFFFC0
FFFF80000000000000007FFFC0
FFFE00000000000000001FFFC0
FFF0000000000000000003FFC0
ENDCHAR
STARTCHAR 0079
ENCODING 121
SWIDTH 1114 0
DWIDTH 107 0
BBX 98 102 0 -22
BITMAP
FF800000000000000000007FC0
FF800000000000000000007FC0
FF800000000000000000007FC0
FF800000000000000000007FC0
FF800000000000000000007FC0
FF800000000000000000007FC0
FF800000000000000000007FC0
FF800000000000000000007FC0
FF800000000000000000007FC0
FF800000000000000000007FC0
FF800000000000000000007FC0
FF800000000000000000007FC0
FF800000000000000000007FC0
FF800000000000000000007FC0
FF800000000000000000007FC0
FF800000000000000000007FC0
FF800000000000000000007FC0
FF800000000000000000007FC0
FF800000000000000000007FC0
FF800000000000000000007FC0
FF800000000000000000007FC0
FF800000000000000000007FC0
FF800000000000000000007FC0
FF800000000000000000007FC0
FFC00000000000000000007FC0
FFC00000000000000000007FC0
7FE00000000000000000007FC0
7FF00000000000000000007FC0
3FF80000000000000000007FC0
3FFC0000000000000000007FC0
1FFE0000000000000000007FC0
1FFF0000000000000000007FC0
0FFF8000000000000000007FC0
07FFC000000000000000007FC0
03FFE000000000000000007FC0
01FFF000000000000000007FC0
00FFF800000000000000007FC0
007FFC00000000000000007FC0
003FFE00000000000000007FC0
001FFF00000000000000007FC0
000FFF80000000000000007FC0
0007FFC0000000000000007FC0
0003FFE0000000000000007FC0
0001FFF0000000000000007FC0
0000FFF8000000000000007FC0
00007FFC000000000000007FC0
00003FFE000000000000007FC0
00001FFF000000000000007FC0
00000FFF800000000000007FC0
000007FFC00000000000007FC0
000003FFE00000000000007FC0
000001FFF00000000000007FC0
000000FFF80000000000007FC0
0000007FFC0000000000007FC0
0000003FFE0000000000007FC0
0000001FFF0000000000007FC0
0000000FFF8000000000007FC0
00000007FFC000000000007FC0
00000003FFE000000000007FC0
00000001FFF000000000007FC0
00000000FFF800000000007FC0
000000007FFC00000000007FC0
000000003FFE00000000007FC0
000000001FFF00000000007FC0
000000000FFF00000000007FC0
0000000007FF80000000007FC0
0000000003FFC0000000007FC0
0000000001FFE0000000007FC0
0000000000FFF0000000007FC0
00000000007FFC000000007FC0
00000000003FFE000000007FC0
00000000001FFFFFFFFFFFFFC0
00000000000FFFFFFFFFFFFFC0
000000000007FFFFFFFFFFFFC0
000000000003FFFFFFFFFFFFC0
000000000001FFFFFFFFFFFFC0
000000000000FFFFFFFFFFFFC0
0000000000007FFFFFFFFFFFC0
0000000000001FFFFFFFFFFFC0
00000000000003FFFFFFFFFFC0
00000000000000000000007FC0
00000000000000000000007FC0
00000000000000000000007FC0
00000000000000000000007FC0
00000000000000000000007FC0
00000000000000000000007FC0
00000000000000000000007FC0
00000000000000000000007FC0
00000000000000000000007FC0
00000000000000000000007FC0
00000000000000000000007FC0
00000000000000000000007FC0
00000000000000000000007FC0
00000000000000000000007FC0
00000000000000000000007FC0
00000000000000000000007FC0
00000000000000000000007FC0
00000000000000000000007FC0
00000000000000000000007FC0
00000000000000000000007FC0
00000000000000000000007FC0
00000000000000000000007FC0
ENDCHAR
STARTCHAR 007A
ENCODING 122
SWIDTH 1114 0
DWIDTH 107 0
BBX 98 80 0 0
BITMAP
FFFFFFFFFFFFFFFFFFFFF00000
FFFFFFFFFFFFFFFFFFFFFE0000
FFFFFFFFFFFFFFFFFFFFFF8000
FFFFFFFFFFFFFFFFFFFFFFE000
FFFFFFFFFFFFFFFFFFFFFFF000
FFFFFFFFFFFFFFFFFFFFFFF800
FFFFFFFFFFFFFFFFFFFFFFFC00
FFFFFFFFFFFFFFFFFFFFFFFE00
FFFFFFFFFFFFFFFFFFFFFFFE00
000000000000000000001FFF00
0000000000000000000007FF80
0000000000000000000003FF80
0000000000000000000001FF80
0000000000000000000000FFC0
0000000000000000000000FFC0
00000000000000000000007FC0
00000000000000000000007FC0
00000000000000000000007FC0
00000000000000000000007FC0
00000000000000000000007FC0
00000000000000000000007FC0
00000000000000000000007FC0
00000000000000000000007FC0
00000000000000000000007FC0
00000000000000000000007FC0
00000000000000000000007FC0
00000000000000000000007FC0
00000000000000000000007FC0
00000000000000000000007FC0
0000000000000000000000FFC0
0000000000000000000000FFC0
0000000000000000000001FF80
0000000000000000000003FF80
0000000000000000000007FF80
000000000000000000001FFF00
0003FFFFFFFFFFFFFFFFFFFF00
003FFFFFFFFFFFFFFFFFFFFE00
007FFFFFFFFFFFFFFFFFFFFC00
01FFFFFFFFFFFFFFFFFFFFF800
03FFFFFFFFFFFFFFFFFFFFF000
07FFFFFFFFFFFFFFFFFFFFE000
0FFFFFFFFFFFFFFFFFFFFF8000
1FFFFFFFFFFFFFFFFFFFFF0000
1FFFFFFFFFFFFFFFFFFFF80000
3FFE0000000000000000000000
3FF80000000000000000000000
7FF00000000000000000000000
7FE00000000000000000000000
FFC00000000000000000000000
FFC00000000000000000000000
FF800000000000000000000000
FF800000000000000000000000
FF800000000000000000000000
FF800000000000000000000000
FF800000000000000000000000
FF800000000000000000000000
FF800000000000000000000000
FF800000000000000000000000
FF800000000000000000000000
FF800000000000000000000000
FF800000000000000000000000
FF800000000000000000000000
FF800000000000000000000000
FF800000000000000000000000
FF800000000000000000000000
FFC00000000000000000000000
FFC00000000000000000000000
7FE00000000000000000000000
7FF00000000000000000000000
3FF80000000000000000000000
3FFE0000000000000000000000
1FFFFFFFFFFFFFFFFFFFFFFFC0
1FFFFFFFFFFFFFFFFFFFFFFFC0
0FFFFFFFFFFFFFFFFFFFFFFFC0
07FFFFFFFFFFFFFFFFFFFFFFC0
03FFFFFFFFFFFFFFFFFFFFFFC0
01FFFFFFFFFFFFFFFFFFFFFFC0
007FFFFFFFFFFFFFFFFFFFFFC0
001FFFFFFFFFFFFFFFFFFFFFC0
0003FFFFFFFFFFFFFFFFFFFFC0
ENDCHAR
STARTCHAR 007C
ENCODING 124
SWIDTH 500 0
DWIDTH 48 0
BBX 0 0 0 0
BITMAP
ENDCHAR
STARTCHAR 007E
ENCODING 126
SWIDTH 833 0
DWIDTH 80 0
BBX 0 0 0 0
BITMAP
ENDCHAR
STARTCHAR 00A0
ENCODING 160
SWIDTH 833 0
DWIDTH 80 0
BBX 0 0 0 0
BITMAP
ENDCHAR
STARTCHAR 00A9
ENCODING 169
SWIDTH 1114 0
DWIDTH 107 0
BBX 98 80 0 0
BITMAP
0003FFFFFFFFFFFFFFFFF00000
001FFFFFFFFFFFFFFFFFFE0000
007FFFFFFFFFFFFFFFFFFF8000
01FFFFFFFFFFFFFFFFFFFFE000
03FFFFFFFFFFFFFFFFFFFFF000
07FFFFFFFFFFFFFFFFFFFFF800
0FFFFFFFFFFFFFFFFFFFFFFC00
1FFFFFFFFFFFFFFFFFFFFFFE00
1FFFFFFFFFFFFFFFFFFFFFFE00
3FFE00000000000000001FFF00
7FF8000000000000000007FF00
7FF0000000000000000003FF80
7FE0000000000000000001FF80
FFC0000000000000000000FFC0
FFC0000000000000000000FFC0
FF800000000000000000007FC0
FF800000000000000000007FC0
FF800000000000000000007FC0
FF800003FFFFFFFFFFF0007FC0
FF80000FFFFFFFFFFFF0007FC0
FF80003FFFFFFFFFFFF0007FC0
FF80007FFFFFFFFFFFF0007FC0
FF8000FFFFFFFFFFFFF0007FC0
FF8001FFFFFFFFFFFFF0007FC0
FF8001FFFFFFFFFFFFF0007FC0
FF8001FFFFFFFFFFFFF0007FC0
FF8003FFFFFFFFFFFFF0007FC0
FF8003FF000000000000007FC0
FF8003FE000000000000007FC0
FF8003FE000000000000007FC0
FF8003FE000000000000007FC0
FF8003FE000000000000007FC0
FF8003FE000000000000007FC0
FF8003FE000000000000007FC0
FF8003FE000000000000007FC0
FF8003FE000000000000007FC0
FF8003FE000000000000007FC0
FF8003FE000000000000007FC0
FF8003FE000000000000007FC0
FF8003FE000000000000007FC0
FF8003FE000000000000007FC0
FF8003FE000000000000007FC0
FF8003FE000000000000007FC0
FF8003FE000000000000007FC0
FF8003FE000000000000007FC0
FF8003FE000000000000007FC0
FF8003FE000000000000007FC0
FF8003FE000000000000007FC0
FF8003FE000000000000007FC0
FF8003FE000000000000007FC0
FF8003FE000000000000007FC0
FF8003FE000000000000007FC0
FF8003FF000000000000007FC0
FF8003FFFFFFFFFFFFF0007FC0
FF8001FFFFFFFFFFFFF0007FC0
FF8001FFFFFFFFFFFFF0007FC0
FF8001FFFFFFFFFFFFF0007FC0
FF8000FFFFFFFFFFFFF0007FC0
FF80007FFFFFFFFFFFF0007FC0
FF80003FFFFFFFFFFFF0007FC0
FF80001FFFFFFFFFFFF0007FC0
FF800003FFFFFFFFFFF0007FC0
FF800000000000000000007FC0
FF800000000000000000007FC0
FF800000000000000000007FC0
FFC0000000000000000000FFC0
FFC0000000000000000000FFC0
7FE0000000000000000001FF80
7FF0000000000000000003FF80
7FF8000000000000000007FF00
3FFE00000000000000001FFF00
3FFFFFFFFFFFFFFFFFFFFFFE00
1FFFFFFFFFFFFFFFFFFFFFFE00
0FFFFFFFFFFFFFFFFFFFFFFC00
07FFFFFFFFFFFFFFFFFFFFF800
03FFFFFFFFFFFFFFFFFFFFF000
01FFFFFFFFFFFFFFFFFFFFE000
007FFFFFFFFFFFFFFFFFFF8000
003FFFFFFFFFFFFFFFFFFF0000
0007FFFFFFFFFFFFFFFFF00000
ENDCHAR
STARTCHAR 00AD
ENCODING 173
SWIDTH 583 0
DWIDTH 56 0
BBX 47 9 0 35
BITMAP
FFFFFFFFFFFE
FFFFFFFFFFFE
FFFFFFFFFFFE
FFFFFFFFFFFE
FFFFFFFFFFFE
FFFFFFFFFFFE
FFFFFFFFFFFE
FFFFFFFFFFFE
FFFFFFFFFFFE
ENDCHAR
STARTCHAR 00AE
ENCODING 174
SWIDTH 1114 0
DWIDTH 107 0
BBX 98 80 0 0
BITMAP
0003FFFFFFFFFFFFFFFFF00000
001FFFFFFFFFFFFFFFFFFE0000
007FFFFFFFFFFFFFFFFFFF8000
01FFFFFFFFFFFFFFFFFFFFE000
03FFFFFFFFFFFFFFFFFFFFF000
07FFFFFFFFFFFFFFFFFFFFF800
0FFFFFFFFFFFFFFFFFFFFFFC00
1FFFFFFFFFFFFFFFFFFFFFFE00
1FFFFFFFFFFFFFFFFFFFFFFE00
3FFE00000000000000001FFF00
7FF8000000000000000007FF00
7FF0000000000000000003FF80
7FE0000000000000000001FF80
FFC0000000000000000000FFC0
FFC0000000000000000000FFC0
FF800000000000000000007FC0
FF800000000000000000007FC0
FF800000000000000000007FC0
FF800003FFFFFFFFFFF0007FC0
FF80000FFFFFFFFFFFF0007FC0
FF80003FFFFFFFFFFFF0007FC0
FF80007FFFFFFFFFFFF0007FC0
FF8000FFFFFFFFFFFFF0007FC0
FF8001FFFFFFFFFFFFF0007FC0
FF8001FFFFFFFFFFFFF0007FC0
FF8001FFFFFFFFFFFFF0007FC0
FF8003FFFFFFFFFFFFF0007FC0
FF8003FF000000000000007FC0
FF8003FE000000000000007FC0
FF8003FE000000000000007FC0
FF8003FE000000000000007FC0
FF8003FE000000000000007FC0
FF8003FE000000000000007FC0
FF8003FE000000000000007FC0
FF8003FE000000000000007FC0
FF8003FE000000000000007FC0
FF8003FE000000000000007FC0
FF8003FE000000000000007FC0
FF8003FE000000000000007FC0
FF8003FE000000000000007FC0
FF8003FE000000000000007FC0
FF8003FE000000000000007FC0
FF8003FE000000000000007FC0
FF8003FE000000000000007FC0
FF8003FE000000000000007FC0
FF8003FE000000000000007FC0
FF8003FE000000000000007FC0
FF8003FE000000000000007FC0
FF8003FE000000000000007FC0
FF8003FE000000000000007FC0
FF8003FE000000000000007FC0
FF8003FE000000000000007FC0
FF8003FE000000000000007FC0
FF8003FE000000000000007FC0
FF8003FE000000000000007FC0
FF8003FE000000000000007FC0
FF8003FE000000000000007FC0
FF8003FE000000000000007FC0
FF8003FE000000000000007FC0
FF8003FE000000000000007FC0
FF8003FE000000000000007FC0
FF8003FE000000000000007FC0
FF800000000000000000007FC0
FF800000000000000000007FC0
FF800000000000000000007FC0
FFC0000000000000000000FFC0
FFC0000000000000000000FFC0
7FE0000000000000000001FF80
7FF0000000000000000003FF80
7FF8000000000000000007FF00
3FFE00000000000000001FFF00
3FFFFFFFFFFFFFFFFFFFFFFE00
1FFFFFFFFFFFFFFFFFFFFFFE00
0FFFFFFFFFFFFFFFFFFFFFFC00
07FFFFFFFFFFFFFFFFFFFFF800
03FFFFFFFFFFFFFFFFFFFFF000
01FFFFFFFFFFFFFFFFFFFFE000
007FFFFFFFFFFFFFFFFFFF8000
003FFFFFFFFFFFFFFFFFFF0000
0007FFFFFFFFFFFFFFFFF00000
ENDCHAR
STARTCHAR 00C4
ENCODING 196
SWIDTH 1114 0
DWIDTH 107 0
BBX 98 96 0 0
BITMAP
0000FFFF00000000FFFF000000
0000FFFF00000000FFFF000000
0000FFFF00000000FFFF000000
0000FFFF00000000FFFF000000
0000FFFF00000000FFFF000000
0000FFFF00000000FFFF000000
0000FFFF00000000FFFF000000
0000FFFF00000000FFFF000000
0000FFFF00000000FFFF000000
00000000000000000000000000
00000000000000000000000000
00000000000000000000000000
00000000000000000000000000
00000000000000000000000000
00000000000000000000000000
00000000000000000000000000
FFFFFFFFFFFFFFFFFFFFF00000
FFFFFFFFFFFFFFFFFFFFFE0000
FFFFFFFFFFFFFFFFFFFFFF8000
FFFFFFFFFFFFFFFFFFFFFFE000
FFFFFFFFFFFFFFFFFFFFFFF000
FFFFFFFFFFFFFFFFFFFFFFF800
FFFFFFFFFFFFFFFFFFFFFFFC00
FFFFFFFFFFFFFFFFFFFFFFFE00
FFFFFFFFFFFFFFFFFFFFFFFE00
000000000007FFC000001FFF00
00000000000FFF80000007FF00
00000000001FFF00000003FF80
00000000003FFE00000001FF80
00000000007FFC00000000FFC0
0000000000FFF800000000FFC0
0000000001FFF0000000007FC0
0000000003FFE0000000007FC0
0000000007FFC0000000007FC0
000000000FFF80000000007FC0
000000001FFF00000000007FC0
000000003FFE00000000007FC0
000000007FFC00000000007FC0
00000000FFF800000000007FC0
00000001FFF000000000007FC0
00000003FFE000000000007FC0
00000007FFC000000000007FC0
0000000FFF8000000000007FC0
0000001FFF0000000000007FC0
0000003FFE0000000000007FC0
0000007FFC0000000000007FC0
000000FFF80000000000007FC0
000001FFF00000000000007FC0
000003FFE00000000000007FC0
000007FFC00000000000007FC0
00000FFF800000000000007FC0
00001FFF000000000000007FC0
00003FFE000000000000007FC0
00007FFC000000000000007FC0
0000FFF8000000000000007FC0
0001FFF0000000000000007FC0
0003FFE0000000000000007FC0
0007FFC0000000000000007FC0
000FFF80000000000000007FC0
001FFF00000000000000007FC0
003FFE00000000000000007FC0
007FFC00000000000000007FC0
00FFF800000000000000007FC0
01FFF000000000000000007FC0
03FFE000000000000000007FC0
07FFC000000000000000007FC0
0FFF8000000000000000007FC0
0FFF0000000000000000007FC0
1FFE0000000000000000007FC0
3FFC0000000000000000007FC0
3FF80000000000000000007FC0
7FF00000000000000000007FC0
7FE00000000000000000007FC0
7FC00000000000000000007FC0
FFC00000000000000000007FC0
FF800000000000000000007FC0
FF800000000000000000007FC0
FF800000000000000000007FC0
FF800000000000000000007FC0
FF800000000000000000007FC0
FF800000000000000000007FC0
FFC0000000000000000000FFC0
FFC0000000000000000000FFC0
7FE0000000000000000001FF80
7FF0000000000000000003FF80
7FF8000000000000000007FF00
3FFE00000000000000001FFF00
3FFFFFFFFFFFFFFFFFFFFFFE00
1FFFFFFFFFFFFFFFFFFFFFFE00
0FFFFFFFFFFFFFFFFFFFFFFC00
07FFFFFFFFFFFFFFFFFFFFF800
03FFFFFFFFFFFFFFFFFFFFF000
01FFFFFFFFFFFFFFFFFFFFE000
007FFFFFFFFFFFFFFFFFFF8000
003FFFFFFFFFFFFFFFFFFF0000
0007FFFFFFFFFFFFFFFFF00000
ENDCHAR
STARTCHAR 00D6
ENCODING 214
SWIDTH 1114 0
DWIDTH 107 0
BBX 98 96 0 0
BITMAP
0000FFFF00000000FFFF000000
0000FFFF00000000FFFF000000
0000FFFF00000000FFFF000000
0000FFFF00000000FFFF000000
0000FFFF00000000FFFF000000
0000FFFF00000000FFFF000000
0000FFFF00000000FFFF000000
0000FFFF00000000FFFF000000
0000FFFF00000000FFFF000000
00000000000000000000000000
00000000000000000000000000
00000000000000000000000000
00000000000000000000000000
00000000000000000000000000
00000000000000000000000000
00000000000000000000000000
0003FFFFFFFFFFFFFFFFF00000
001FFFFFFFFFFFFFFFFFFE0000
007FFFFFFFFFFFFFFFFFFF8000
01FFFFFFFFFFFFFFFFFFFFE000
03FFFFFFFFFFFFFFFFFFFFF000
07FFFFFFFFFFFFFFFFFFFFF800
0FFFFFFFFFFFFFFFFFFFFFFC00
1FFFFFFFFFFFFFFFFFFFFFFE00
1FFFFFFFFFFFFFFFFFFFFFFE00
3FFE00000000000000001FFF00
7FF8000000000000000007FF00
7FF0000000000000000003FF80
7FE0000000000000000001FF80
FFC0000000000000000000FFC0
FFC0000000000000000000FFC0
FF800000000000000000007FC0
FF800000000000000000007FC0
FF800000000000000000007FC0
FF800000000000000000007FC0
FF800000000000000000007FC0
FF800000000000000000007FC0
FF800000000000000000007FC0
FF800000000000000000007FC0
FF800000000000000000007FC0
FF800000000000000000007FC0
FF800000000000000000007FC0
FF800000000000000000007FC0
FF800000000000000000007FC0
FF800000000000000000007FC0
FF800000000000000000007FC0
FF800000000000000000007FC0
FF800000000000000000007FC0
FF800000000000000000007FC0
FF800000000000000000007FC0
FF800000000000000000007FC0
FF800000000000000000007FC0
FF800000000000000000007FC0
FF800000000000000000007FC0
FF800000000000000000007FC0
FF800000000000000000007FC0
FF800000000000000000007FC0
FF800000000000000000007FC0
FF800000000000000000007FC0
FF800000000000000000007FC0
FF800000000000000000007FC0
FF800000000000000000007FC0
FF800000000000000000007FC0
FF800000000000000000007FC0
FF800000000000000000007FC0
FF800000000000000000007FC0
FF800000000000000000007FC0
FF800000000000000000007FC0
FF800000000000000000007FC0
FF800000000000000000007FC0
FF800000000000000000007FC0
FF800000000000000000007FC0
FF800000000000000000007FC0
FF800000000000000000007FC0
FF800000000000000000007FC0
FF800000000000000000007FC0
FF800000000000000000007FC0
FF800000000000000000007FC0
FF800000000000000000007FC0
FF800000000000000000007FC0
FF800000000000000000007FC0
FFC0000000000000000000FFC0
FFC0000000000000000000FF80
7FE0000000000000000001FF80
7FF0000000000000000003FF80
7FF8000000000000000007FF00
3FFE00000000000000001FFF00
3FFFFFFFFFFFFFFFFFFFFFFE00
1FFFFFFFFFFFFFFFFFFFFFFE00
0FFFFFFFFFFFFFFFFFFFFFFC00
07FFFFFFFFFFFFFFFFFFFFF800
03FFFFFFFFFFFFFFFFFFFFF000
01FFFFFFFFFFFFFFFFFFFFE000
007FFFFFFFFFFFFFFFFFFF8000
003FFFFFFFFFFFFFFFFFFE0000
0007FFFFFFFFFFFFFFFFF00000
ENDCHAR
STARTCHAR 00D7
ENCODING 215
SWIDTH 0 0
DWIDTH 0 0
BBX 0 0 0 0
BITMAP
ENDCHAR
STARTCHAR 00DC
ENCODING 220
SWIDTH 1114 0
DWIDTH 107 0
BBX 98 96 0 0
BITMAP
0000FFFF00000000FFFF000000
0000FFFF00000000FFFF000000
0000FFFF00000000FFFF000000
0000FFFF00000000FFFF000000
0000FFFF00000000FFFF000000
0000FFFF00000000FFFF000000
0000FFFF00000000FFFF000000
0000FFFF00000000FFFF000000
0000FFFF00000000FFFF000000
00000000000000000000000000
00000000000000000000000000
00000000000000000000000000
00000000000000000000000000
00000000000000000000000000
00000000000000000000000000
00000000000000000000000000
FF800000000000000000007FC0
FF800000000000000000007FC0
FF800000000000000000007FC0
FF800000000000000000007FC0
FF800000000000000000007FC0
FF800000000000000000007FC0
FF800000000000000000007FC0
FF800000000000000000007FC0
FF800000000000000000007FC0
FF800000000000000000007FC0
FF800000000000000000007FC0
FF800000000000000000007FC0
FF800000000000000000007FC0
FF800000000000000000007FC0
FF800000000000000000007FC0
FF800000000000000000007FC0
FF800000000000000000007FC0
FF800000000000000000007FC0
FF800000000000000000007FC0
FF800000000000000000007FC0
FF800000000000000000007FC0
FF800000000000000000007FC0
FF800000000000000000007FC0
FF800000000000000000007FC0
FF800000000000000000007FC0
FF800000000000000000007FC0
FF800000000000000000007FC0
FF800000000000000000007FC0
FF800000000000000000007FC0
FF800000000000000000007FC0
FF800000000000000000007FC0
FF800000000000000000007FC0
FF800000000000000000007FC0
FF800000000000000000007FC0
FF800000000000000000007FC0
FF800000000000000000007FC0
FF800000000000000000007FC0
FF800000000000000000007FC0
FF800000000000000000007FC0
FF800000000000000000007FC0
FF800000000000000000007FC0
FF800000000000000000007FC0
FF800000000000000000007FC0
FF800000000000000000007FC0
FF800000000000000000007FC0
FF800000000000000000007FC0
FF800000000000000000007FC0
FF800000000000000000007FC0
FF800000000000000000007FC0
FF800000000000000000007FC0
FF800000000000000000007FC0
FF800000000000000000007FC0
FF800000000000000000007FC0
FF800000000000000000007FC0
FF800000000000000000007FC0
FF800000000000000000007FC0
FF800000000000000000007FC0
FF800000000000000000007FC0
FF800000000000000000007FC0
FF800000000000000000007FC0
FF800000000000000000007FC0
FF800000000000000000007FC0
FF800000000000000000007FC0
FF800000000000000000007FC0
FF800000000000000000007FC0
FFC0000000000000000000FFC0
FFC0000000000000000000FFC0
7FE0000000000000000001FF80
7FF0000000000000000003FF80
7FF8000000000000000007FF00
3FFE00000000000000001FFF00
3FFFFFFFFFFFFFFFFFFFFFFE00
1FFFFFFFFFFFFFFFFFFFFFFE00
0FFFFFFFFFFFFFFFFFFFFFFC00
07FFFFFFFFFFFFFFFFFFFFF800
03FFFFFFFFFFFFFFFFFFFFF000
01FFFFFFFFFFFFFFFFFFFFE000
007FFFFFFFFFFFFFFFFFFF8000
003FFFFFFFFFFFFFFFFFFF0000
0007FFFFFFFFFFFFFFFFF00000
ENDCHAR
STARTCHAR 00E4
ENCODING 228
SWIDTH 1114 0
DWIDTH 107 0
BBX 98 96 0 0
BITMAP
0000FFFF00000000FFFF000000
0000FFFF00000000FFFF000000
0000FFFF00000000FFFF000000
0000FFFF00000000FFFF000000
0000FFFF00000000FFFF000000
0000FFFF00000000FFFF000000
0000FFFF00000000FFFF000000
0000FFFF00000000FFFF000000
0000FFFF00000000FFFF000000
00000000000000000000000000
00000000000000000000000000
00000000000000000000000000
00000000000000000000000000
00000000000000000000000000
00000000000000000000000000
00000000000000000000000000
FFFFFFFFFFFFFFFFFFFFF00000
FFFFFFFFFFFFFFFFFFFFFE0000
FFFFFFFFFFFFFFFFFFFFFF8000
FFFFFFFFFFFFFFFFFFFFFFE000
FFFFFFFFFFFFFFFFFFFFFFF000
FFFFFFFFFFFFFFFFFFFFFFF800
FFFFFFFFFFFFFFFFFFFFFFFC00
FFFFFFFFFFFFFFFFFFFFFFFE00
FFFFFFFFFFFFFFFFFFFFFFFE00
000000000007FFC000001FFF00
00000000000FFF80000007FF00
00000000001FFF00000003FF80
00000000003FFE00000001FF80
00000000007FFC00000000FFC0
0000000000FFF800000000FFC0
0000000001FFF0000000007FC0
0000000003FFE0000000007FC0
0000000007FFC0000000007FC0
000000000FFF80000000007FC0
000000001FFF00000000007FC0
000000003FFE00000000007FC0
000000007FFC00000000007FC0
00000000FFF800000000007FC0
00000001FFF000000000007FC0
00000003FFE000000000007FC0
00000007FFC000000000007FC0
0000000FFF8000000000007FC0
0000001FFF0000000000007FC0
0000003FFE0000000000007FC0
0000007FFC0000000000007FC0
000000FFF80000000000007FC0
000001FFF00000000000007FC0
000003FFE00000000000007FC0
000007FFC00000000000007FC0
00000FFF800000000000007FC0
00001FFF000000000000007FC0
00003FFE000000000000007FC0
00007FFC000000000000007FC0
0000FFF8000000000000007FC0
0001FFF0000000000000007FC0
0003FFE0000000000000007FC0
0007FFC0000000000000007FC0
000FFF80000000000000007FC0
001FFF00000000000000007FC0
003FFE00000000000000007FC0
007FFC00000000000000007FC0
00FFF800000000000000007FC0
01FFF000000000000000007FC0
03FFE000000000000000007FC0
07FFC000000000000000007FC0
0FFF8000000000000000007FC0
0FFF0000000000000000007FC0
1FFE0000000000000000007FC0
3FFC0000000000000000007FC0
3FF80000000000000000007FC0
7FF00000000000000000007FC0
7FE00000000000000000007FC0
7FC00000000000000000007FC0
FFC00000000000000000007FC0
FF800000000000000000007FC0
FF800000000000000000007FC0
FF800000000000000000007FC0
FF800000000000000000007FC0
FF800000000000000000007FC0
FF800000000000000000007FC0
FFC0000000000000000000FFC0
FFC0000000000000000000FFC0
7FE0000000000000000001FF80
7FF0000000000000000003FF80
7FF8000000000000000007FF00
3FFE00000000000000001FFF00
3FFFFFFFFFFFFFFFFFFFFFFE00
1FFFFFFFFFFFFFFFFFFFFFFE00
0FFFFFFFFFFFFFFFFFFFFFFC00
07FFFFFFFFFFFFFFFFFFFFF800
03FFFFFFFFFFFFFFFFFFFFF000
01FFFFFFFFFFFFFFFFFFFFE000
007FFFFFFFFFFFFFFFFFFF8000
003FFFFFFFFFFFFFFFFFFF0000
0007FFFFFFFFFFFFFFFFF00000
ENDCHAR
STARTCHAR 00EB
ENCODING 235
SWIDTH 1156 0
DWIDTH 111 0
BBX 0 0 0 0
BITMAP
ENDCHAR
STARTCHAR 00F6
ENCODING 246
SWIDTH 1114 0
DWIDTH 107 0
BBX 98 96 0 0
BITMAP
0000FFFF00000000FFFF000000
0000FFFF00000000FFFF000000
0000FFFF00000000FFFF000000
0000FFFF00000000FFFF000000
0000FFFF00000000FFFF000000
0000FFFF00000000FFFF000000
0000FFFF00000000FFFF000000
0000FFFF00000000FFFF000000
0000FFFF00000000FFFF000000
00000000000000000000000000
00000000000000000000000000
00000000000000000000000000
00000000000000000000000000
00000000000000000000000000
00000000000000000000000000
00000000000000000000000000
0003FFFFFFFFFFFFFFFFF00000
001FFFFFFFFFFFFFFFFFFE0000
007FFFFFFFFFFFFFFFFFFF8000
01FFFFFFFFFFFFFFFFFFFFE000
03FFFFFFFFFFFFFFFFFFFFF000
07FFFFFFFFFFFFFFFFFFFFF800
0FFFFFFFFFFFFFFFFFFFFFFC00
1FFFFFFFFFFFFFFFFFFFFFFE00
1FFFFFFFFFFFFFFFFFFFFFFE00
3FFE00000000000000001FFF00
7FF8000000000000000007FF00
7FF0000000000000000003FF80
7FE0000000000000000001FF80
FFC0000000000000000000FFC0
FFC0000000000000000000FFC0
FF800000000000000000007FC0
FF800000000000000000007FC0
FF800000000000000000007FC0
FF800000000000000000007FC0
FF800000000000000000007FC0
FF800000000000000000007FC0
FF800000000000000000007FC0
FF800000000000000000007FC0
FF800000000000000000007FC0
FF800000000000000000007FC0
FF800000000000000000007FC0
FF800000000000000000007FC0
FF800000000000000000007FC0
FF800000000000000000007FC0
FF800000000000000000007FC0
FF800000000000000000007FC0
FF800000000000000000007FC0
FF800000000000000000007FC0
FF800000000000000000007FC0
FF800000000000000000007FC0
FF800000000000000000007FC0
FF800000000000000000007FC0
FF800000000000000000007FC0
FF800000000000000000007FC0
FF800000000000000000007FC0
FF800000000000000000007FC0
FF800000000000000000007FC0
FF800000000000000000007FC0
FF800000000000000000007FC0
FF800000000000000000007FC0
FF800000000000000000007FC0
FF800000000000000000007FC0
FF800000000000000000007FC0
FF800000000000000000007FC0
FF800000000000000000007FC0
FF800000000000000000007FC0
FF800000000000000000007FC0
FF800000000000000000007FC0
FF800000000000000000007FC0
FF800000000000000000007FC0
FF800000000000000000007FC0
FF800000000000000000007FC0
FF800000000000000000007FC0
FF800000000000000000007FC0
FF800000000000000000007FC0
FF800000000000000000007FC0
FF800000000000000000007FC0
FF800000000000000000007FC0
FF800000000000000000007FC0
FF800000000000000000007FC0
FFC0000000000000000000FFC0
FFC0000000000000000000FF80
7FE0000000000000000001FF80
7FF0000000000000000003FF80
7FF8000000000000000007FF00
3FFE00000000000000001FFF00
3FFFFFFFFFFFFFFFFFFFFFFE00
1FFFFFFFFFFFFFFFFFFFFFFE00
0FFFFFFFFFFFFFFFFFFFFFFC00
07FFFFFFFFFFFFFFFFFFFFF800
03FFFFFFFFFFFFFFFFFFFFF000
01FFFFFFFFFFFFFFFFFFFFE000
007FFFFFFFFFFFFFFFFFFF8000
003FFFFFFFFFFFFFFFFFFE0000
0007FFFFFFFFFFFFFFFFF00000
ENDCHAR
STARTCHAR 00FC
ENCODING 252
SWIDTH 1114 0
DWIDTH 107 0
BBX 98 96 0 0
BITMAP
0000FFFF00000000FFFF000000
0000FFFF00000000FFFF000000
0000FFFF00000000FFFF000000
0000FFFF00000000FFFF000000
0000FFFF00000000FFFF000000
0000FFFF00000000FFFF000000
0000FFFF00000000FFFF000000
0000FFFF00000000FFFF000000
0000FFFF00000000FFFF000000
00000000000000000000000000
00000000000000000000000000
00000000000000000000000000
00000000000000000000000000
00000000000000000000000000
00000000000000000000000000
00000000000000000000000000
FF800000000000000000007FC0
FF800000000000000000007FC0
FF800000000000000000007FC0
FF800000000000000000007FC0
FF800000000000000000007FC0
FF800000000000000000007FC0
FF800000000000000000007FC0
FF800000000000000000007FC0
FF800000000000000000007FC0
FF800000000000000000007FC0
FF800000000000000000007FC0
FF800000000000000000007FC0
FF800000000000000000007FC0
FF800000000000000000007FC0
FF800000000000000000007FC0
FF800000000000000000007FC0
FF800000000000000000007FC0
FF800000000000000000007FC0
FF800000000000000000007FC0
FF800000000000000000007FC0
FF800000000000000000007FC0
FF800000000000000000007FC0
FF800000000000000000007FC0
FF800000000000000000007FC0
FF800000000000000000007FC0
FF800000000000000000007FC0
FF800000000000000000007FC0
FF800000000000000000007FC0
FF800000000000000000007FC0
FF800000000000000000007FC0
FF800000000000000000007FC0
FF800000000000000000007FC0
FF800000000000000000007FC0
FF800000000000000000007FC0
FF800000000000000000007FC0
FF800000000000000000007FC0
FF800000000000000000007FC0
FF800000000000000000007FC0
FF800000000000000000007FC0
FF800000000000000000007FC0
FF800000000000000000007FC0
FF800000000000000000007FC0
FF800000000000000000007FC0
FF800000000000000000007FC0
FF800000000000000000007FC0
FF800000000000000000007FC0
FF800000000000000000007FC0
FF800000000000000000007FC0
FF800000000000000000007FC0
FF800000000000000000007FC0
FF800000000000000000007FC0
FF800000000000000000007FC0
FF800000000000000000007FC0
FF800000000000000000007FC0
FF800000000000000000007FC0
FF800000000000000000007FC0
FF800000000000000000007FC0
FF800000000000000000007FC0
FF800000000000000000007FC0
FF800000000000000000007FC0
FF800000000000000000007FC0
FF800000000000000000007FC0
FF800000000000000000007FC0
FF800000000000000000007FC0
FF800000000000000000007FC0
FFC0000000000000000000FFC0
FFC0000000000000000000FFC0
7FE0000000000000000001FF80
7FF0000000000000000003FF80
7FF8000000000000000007FF00
3FFE00000000000000001FFF00
3FFFFFFFFFFFFFFFFFFFFFFE00
1FFFFFFFFFFFFFFFFFFFFFFE00
0FFFFFFFFFFFFFFFFFFFFFFC00
07FFFFFFFFFFFFFFFFFFFFF800
03FFFFFFFFFFFFFFFFFFFFF000
01FFFFFFFFFFFFFFFFFFFFE000
007FFFFFFFFFFFFFFFFFFF8000
003FFFFFFFFFFFFFFFFFFF0000
0007FFFFFFFFFFFFFFFFF00000
ENDCHAR
STARTCHAR 00FD
ENCODING 253
SWIDTH 0 0
DWIDTH 0 0
BBX 0 0 0 0
BITMAP
ENDCHAR
STARTCHAR 0141
ENCODING 321
SWIDTH 0 0
DWIDTH 0 0
BBX 0 0 0 0
BITMAP
ENDCHAR
ENDFONT
